<?xml version="1.0" standalone="no"?>
<!DOCTYPE svg PUBLIC "-//W3C//DTD SVG 1.1//EN" "http://www.w3.org/Graphics/SVG/1.1/DTD/svg11.dtd" >
<svg xmlns="http://www.w3.org/2000/svg" xmlns:xlink="http://www.w3.org/1999/xlink" version="1.1">
<metadata>
Created by FontForge 20161116 at Thu Jan 12 13:41:16 2017
 By Jimmy Wärting
</metadata>
<defs>
<font id="Untitled" horiz-adv-x="833" >
  <font-face 
    font-family="Untitled"
    font-weight="400"
    font-stretch="normal"
    units-per-em="1000"
    panose-1="0 0 0 0 0 0 0 0 0 0"
    ascent="750"
    descent="-250"
    x-height="555"
    cap-height="566"
    bbox="-15 -187 1153 720"
    underline-thickness="50"
    underline-position="-100"
    unicode-range="U+001D-00F9"
  />
<missing-glyph horiz-adv-x="500" 
 />
    <glyph glyph-name=".notdef" horiz-adv-x="500" 
 />
    <glyph glyph-name="uni001D" horiz-adv-x="0" 
 />
    <glyph glyph-name="uni001D" horiz-adv-x="0" 
 />
    <glyph glyph-name="glyph2" 
 />
    <glyph glyph-name="space" unicode=" " 
d="M92 -72q0 -38 27 -66q28 -27 66 -27h465q39 0 66 27q27 28 27 66v558h-651v-558zM185 393h465v-465h-465v465zM557 626v93h-279v-93h-279v-93h837v93h-279zM278 21h93v279h-93v-279zM464 21h93v279h-93v-279z" />
    <glyph glyph-name="space" unicode="&#xa0;" 
d="M92 -72q0 -38 27 -66q28 -27 66 -27h465q39 0 66 27q27 28 27 66v558h-651v-558zM185 393h465v-465h-465v465zM557 626v93h-279v-93h-279v-93h837v93h-279zM278 21h93v279h-93v-279zM464 21h93v279h-93v-279z" />
    <glyph glyph-name="exclam" unicode="!" 
d="M339 207q-33 33 -33 80v286q0 47 33 80t80 33t80 -33t33 -80v-286q0 -47 -33 -80t-80 -33t-80 33zM284 -164q-28 0 -28 29t28 29h107v167q-89 11 -152 80t-70 165q0 8 5 14q6 7 15 7h17q18 0 19 -19q7 -79 62 -134q56 -55 132 -55t132 55q55 55 62 134q1 19 19 19h17
q9 0 15 -6q5 -7 5 -15q-7 -96 -70 -165t-152 -80v-167h107q28 0 28 -29t-28 -29h-270z" />
    <glyph glyph-name="quotedbl" unicode="&#x22;" 
d="M620 340q-18 0 -19 -18q-7 -80 -62 -134q-56 -55 -132 -55q-72 0 -128 51l-13 -13l-27 -28q61 -59 140 -68v-168h-107q-28 0 -28 -28q0 -29 28 -29h270q28 0 28 29q0 28 -28 28h-107v168q89 10 152 79q63 70 70 165q0 9 -5 15q-6 7 -15 7q-11 0 -17 -1zM213 322
q-1 19 -20 19q-11 0 -17 -1q-8 0 -14 -6t-5 -15q4 -53 29 -104l43 43q-14 33 -16 64zM522 436l-262 -266l-214 -217l41 -42l216 220l257 260l237 241l-41 42zM520 587q0 47 -33 80q-34 33 -80 33q-47 0 -80 -33t-33 -80v-264l226 226v38zM407 188q46 0 80 33q33 33 33 79
v124l-198 -197q34 -39 85 -39zM508 448l-262 -266l-214 -217l41 -42l216 220l257 260l237 241l-41 42z" />
    <glyph glyph-name="numbersign" unicode="#" 
d="M98 10q-41 0 -69 29q-29 28 -29 69v390q0 41 29 70q28 28 69 28h439q41 0 69 -28q29 -29 29 -70v-67l125 62q10 5 21 5q14 0 26 -7q23 -14 23 -41v-293q0 -28 -23 -42q-12 -7 -26 -7q-11 0 -21 5l-125 62v-67q0 -41 -29 -69q-28 -29 -69 -29h-439zM98 498v-390h439v390
h-439zM733 371l-98 -49v-38l98 -48v135z" />
    <glyph glyph-name="dollar" unicode="$" 
d="M517 420l-273 -277l-223 -225l43 -43l225 227l268 271l247 251l-43 43zM97 498h369l93 95q-13 3 -23 3h-439q-40 0 -68 -29q-29 -29 -29 -69v-390q0 -33 21 -60l76 77v373zM731 236l-98 49v37l98 49v-135zM758 493l-125 -62v67q0 34 -22 61l-75 -76v-375h-370l-92 -94
q13 -3 23 -3h439q40 0 69 29q28 28 28 68v68l125 -62q10 -6 21 -6q14 0 26 8q23 14 23 41v292q0 28 -23 42t-47 2zM738 691l2 -2l-247 -250l-268 -271l-225 -228l42 -41l225 228l267 271l247 250l-42 43h-1z" />
    <glyph glyph-name="percent" unicode="%" 
d="M559 652q57 0 107 -19q49 -20 86 -54q37 -35 59 -81q21 -46 21 -98v-276q0 -52 -21 -98q-22 -46 -59 -80t-86 -54q-50 -20 -107 -20h-285q-56 0 -105 20q-50 20 -87 54t-58 80q-22 46 -22 98v276q0 52 22 98q21 46 58 81q37 34 87 54q49 19 105 19h285zM695 442
q0 30 -22 51q-23 21 -55 21h-402q-32 0 -55 -21t-23 -51v-360q0 -29 23 -50q23 -22 55 -22h402q32 0 55 22q22 21 22 50v360z" />
    <glyph glyph-name="ampersand" unicode="&#x26;" 
d="M755 556q25 -31 41 -71q16 -39 16 -80v-269q0 -51 -21 -95q-22 -45 -57 -78q-36 -33 -84 -53q-49 -19 -104 -19h-277q-39 0 -79 5q-40 6 -70 23l106 107h377q31 0 54 20q21 21 21 49v350q0 17 -7 30zM60 -15q-25 31 -40 71q-17 39 -17 80v269q0 51 21 96q20 44 56 77
q37 34 86 53q48 19 103 19h277q36 0 73 -8q37 -9 68 -29l-99 -97h-376q-32 0 -54 -21q-23 -20 -23 -50v-350q0 -8 2 -13q2 -7 5 -14zM808 642q6 -6 6 -15t-6 -15l-770 -773q-7 -6 -15 -6q-10 0 -16 5q-7 7 -7 16t7 16l769 772q7 7 16 7zM817 632q7 -6 7 -14q0 -10 -7 -16
l-769 -772q-7 -7 -16 -7t-15 6q-7 7 -7 15q0 9 7 16l769 772q7 7 16 7zM827 623q7 -6 7 -15q0 -10 -7 -16l-769 -772q-7 -7 -16 -7q-10 0 -16 6q-6 7 -6 16q0 8 6 15l770 773q7 6 16 6z" />
    <glyph glyph-name="quotesingle" unicode="'" 
d="M818 -43q15 -16 15 -37t-15 -36t-36 -15t-36 15l-186 186q-1 1 -1 2l-1 1q-45 -32 -97 -50q-52 -19 -112 -19q-72 0 -135 28q-64 27 -111 74q-48 47 -75 111q-28 64 -28 136t28 136q27 63 75 111q47 47 111 75q63 27 135 27t136 -27q64 -28 111 -75q47 -48 75 -111
q27 -64 27 -136q0 -60 -18 -112q-19 -52 -51 -97q1 -1 2 -1l1 -1zM508 312h-317v84h317v-84zM149 550q-82 -82 -82 -198t82 -198t198 -82t198 82t82 198t-82 198t-198 82t-198 -82z" />
    <glyph glyph-name="parenleft" unicode="(" 
d="M818 -43q15 -16 15 -37t-15 -36t-36 -15t-36 15l-186 186q-1 1 -1 2l-1 1q-45 -32 -97 -50q-52 -19 -112 -19q-72 0 -135 28q-64 27 -111 74q-48 47 -75 111q-28 64 -28 136t28 136q27 63 75 111q47 47 111 75q63 27 135 27t136 -27q64 -28 111 -75q47 -48 75 -111
q27 -64 27 -136q0 -60 -18 -112q-19 -52 -51 -97q1 -1 2 -1l1 -1zM508 312h-317v84h317v-84zM149 550q-82 -82 -82 -198t82 -198t198 -82t198 82t82 198t-82 198t-198 82t-198 -82zM307 199v317h84v-317h-84z" />
    <glyph glyph-name="parenright" unicode=")" 
d="M0 466v244h253v-79h-174v-165h-79zM590 710h243v-254h-79v175h-164v79zM754 -44v164h79v-243h-253v79h174zM79 130v-174h164v-79h-243v253h79zM0 466v244h253v-79h-174v-165h-79zM0 466v244h253v-79h-174v-165h-79z" />
    <glyph glyph-name="asterisk" unicode="*" 
d="M174 541v165h79v-244h-253v79h174zM669 531h164v-79h-243v254h79v-175zM580 -127v243h253v-79h-174v-164h-79zM0 47v79h243v-253h-79v174h-164z" />
    <glyph glyph-name="plus" unicode="+" 
d="M524 -142h-215v325h-299v206h299v325h215v-325h299v-206h-299v-325z" />
    <glyph glyph-name="comma" unicode="," 
d="M88 -57q-36 0 -61 25t-25 61v476q0 36 25 61t61 25h663q36 0 61 -25t25 -61v-476q0 -36 -25 -61t-61 -25h-663zM636 397h94v94h-94v-94zM731 5q16 0 26 11q11 10 11 26v450q0 16 -11 26q-10 11 -26 11h-624q-15 0 -26 -11q-11 -10 -11 -26v-450q0 -16 11 -26
q11 -11 26 -11h624zM489 337q29 -29 29 -70t-29 -70t-70 -29t-70 29t-29 70t29 70t70 29t70 -29zM114 592h154v94h-154v-94zM419 447q-74 0 -127 -52.5t-53 -127.5t53 -128t127 -53q75 0 128 53t53 128t-53 127.5t-128 52.5z" />
    <glyph glyph-name="hyphen" unicode="-" 
d="M-1 -25l703 703l59 -59l-235 -235v-356q0 -55 -51 -76q-15 -7 -32 -7q-38 0 -63 30l-108 155l-214 -214zM443 302l-112 -112l112 -161v273zM81 223v166q0 33 25 58q24 24 59 24h102l129 183q23 24 58 24q17 0 32 -6q44 -18 50 -67l-82 -81v71l-144 -206h-145v-155
l-64 -63q-20 23 -20 52z" />
    <glyph glyph-name="period" unicode="." 
d="M312 -42l-125 178h-103q-35 0 -59 25q-25 25 -25 59v167q0 35 25 59q24 25 59 25h103l130 184q24 25 60 25q16 0 31 -6q52 -22 52 -78v-585q0 -56 -52 -77q-15 -7 -32 -7q-38 0 -64 31zM84 387v-167h147l145 -208v583l-145 -208h-147zM543 96q87 0 148 62q61 61 61 148
q0 86 -61 147q-61 62 -148 62v83q121 0 207 -86q86 -85 86 -206q0 -122 -86 -207q-86 -86 -207 -86v83zM543 264q18 0 30 12t12 30q0 17 -12 29t-30 12v84q52 0 89 -37t37 -88q0 -52 -37 -89t-89 -37v84z" />
    <glyph glyph-name="slash" unicode="/" 
d="M837 -124h-837v837h837v-837z" />
    <glyph glyph-name="zero" unicode="0" 
d="M517 271q-17 0 -29.5 -12.5t-12.5 -29.5q0 -18 12.5 -30.5t29.5 -12.5q18 0 30.5 12.5t12.5 30.5q0 17 -12.5 29.5t-30.5 12.5zM271 99q-2 -16 -2 -29q0 -11 1 -23t5 -18q2 -4 8 -5q6 -2 13 -3l16 -2h31h7h116h52q9 0 17 1q7 1 14 4q7 2 12 7q8 11 6 20q-1 5 -3 10
q-6 14 -14 25q-8 9 -18 17q-11 8 -26 8q-17 0 -39 -10q-23 -10 -45 -24q-10 11 -21 24q-12 12 -24 22q-13 10 -24 17q-12 6 -22 6q-14 0 -24 -7q-11 -8 -19 -17zM169 690q-35 0 -59 -25q-25 -25 -25 -59v-672q0 -35 25 -59q24 -25 59 -25h504q35 0 59 25q25 24 25 59v563
l-193 193h-395zM672 -65h-511v681h341v-170h170v-511zM224 261q0 25 12 42q11 16 28 16h308q17 0 29 -16q11 -17 11 -42v-215q0 -25 -11 -41q-12 -16 -29 -16h-308q-17 0 -28 16q-12 16 -12 41v215z" />
    <glyph glyph-name="one" unicode="1" 
d="M241 127q3 -1 13 -1q36 0 56 18q16 16 16 42t-18 39q-17 14 -53 14q-35 0 -53 -3v-171h39v62zM351 66q8 -1 19 -2q10 -1 25 -1q52 0 80 23q12 11 21 28q8 17 8 42q0 23 -8 39q-8 15 -22 26q-12 9 -28 14q-17 4 -42 4q-32 0 -53 -3v-170zM568 166v40h67v32h-106v-173h39
v70h62v31h-62zM257 210q30 0 30 -26q0 -28 -33 -28q-10 0 -13 1v51zM408 209q25 0 40 -14q14 -14 14 -41q0 -31 -16 -45q-16 -15 -42 -15h-8q-4 0 -6 1v113q2 0 7 1h11zM169 690q-35 0 -59 -25q-25 -25 -25 -59v-672q0 -35 25 -59q24 -25 59 -25h504q35 0 59 25q25 24 25 59
v563l-193 193h-395zM672 -65h-511v681h341v-170h170v-511z" />
    <glyph glyph-name="two" unicode="2" 
d="M425 278h70v-137l45 79q2 3 3 7q1 6 -3 12q-5 3 -11 3h-7v36h115v-36q-5 0 -9 -1l-8 -2q-5 -2 -7 -6q-2 -3 -8 -14q-7 -12 -16 -30q-10 -18 -21 -40t-23 -45q-27 -54 -61 -120h-76v133l-70 -133h-66v225q1 6 0 11l-2 10q-2 4 -6 7q-3 2 -8 3q-5 0 -10 1t-11 1v36h140v-36
h-13l-10 -2q-6 -1 -10 -5q-3 -3 -4 -7l-2 -8q-1 -4 0 -9v-70zM179 690q-35 0 -59 -25q-25 -25 -25 -59v-672q0 -35 25 -59q24 -25 59 -25h504q35 0 59 25q25 24 25 59v563l-193 193h-395zM682 -65h-511v681h341v-170h170v-511z" />
    <glyph glyph-name="three" unicode="3" 
d="M420 249l40 39q1 2 5 2h132q4 0 6 -3q2 -5 -1 -8l-96 -122h91q6 0 6 -6l1 -35q1 -2 -1 -4l-26 -32l24 -18q3 -3 3 -6l-1 -39q0 -6 -6 -6h-111q-3 0 -4 1l-16 17h-225h-1q-4 0 -6 5q-1 1 -1 3q0 1 2 4l7 7l12 12l41 41q17 17 33 32l22 22l-109 124q-3 3 -1 7q1 4 6 4h139
q4 0 6 -2zM303 273h-25l219 -243h22zM179 690q-35 0 -59 -25q-25 -25 -25 -59v-672q0 -35 25 -59q24 -25 59 -25h504q35 0 59 25q25 24 25 59v563l-193 193h-395zM682 -65h-511v681h341v-170h170v-511z" />
    <glyph glyph-name="four" unicode="4" 
d="M289 296q26 -6 53 -11l54 -12q29 -6 57 -11q28 -6 56 -13q19 -5 36 -13q16 -9 25 -28q6 -11 9 -23t5 -24q2 -9 2 -18q-1 -10 -3 -18q-3 -19 -15 -31t-29 -17q-18 -5 -36 -8q-19 -3 -39 -7l-10 4q-6 2 -10 5q-10 8 -6 20q3 11 14 13q10 2 20 3l20 2q38 5 34 42q0 6 -1 12
q-1 5 -3 11q-5 16 -16 23t-25 9q-35 5 -71 10q-36 4 -71 9l-34 6q-18 2 -35 7q-13 4 -18 16q-6 11 -3 22q4 12 15 18zM397 146q5 -29 12 -58q7 -30 13 -60q3 -12 -1 -24t-13 -21q-9 -8 -21 -13q-12 -4 -25 -2q-42 6 -51 46l-16 66q-9 32 -17 64q-2 5 -2 10q0 4 -1 9
q0 17 10 28q9 10 26 13q15 3 29 -1t26 -12q12 -9 20 -20zM179 690q-35 0 -59 -25q-25 -25 -25 -59v-672q0 -35 25 -59q24 -25 59 -25h504q35 0 59 25q25 24 25 59v563l-193 193h-395zM682 -65h-511v681h341v-170h170v-511z" />
    <glyph glyph-name="five" unicode="5" 
d="M97 64h136v33h-83v1l82 118v23h-127v-33h75v-1l-83 -119v-22zM323 64v175h-40v-175h40zM69 690q-35 0 -59 -25q-25 -25 -25 -59v-672q0 -35 25 -59q24 -25 59 -25h504q35 0 59 25q25 24 25 59v563l-193 193h-395zM572 -65h-511v681h341v-170h170v-511zM411 127
q3 -1 13 -1q36 0 56 18q16 16 16 42t-18 39q-17 14 -53 14q-35 0 -53 -3v-171h39v62zM427 210q30 0 30 -26q0 -28 -33 -28q-10 0 -13 1v51z" />
    <glyph glyph-name="six" unicode="6" 
d="M774 -126q26 0 45 19t19 45q0 27 -19 45l-172 173q63 89 63 200q0 72 -28 137t-76 113q-47 47 -113 75q-65 28 -137 28t-137 -28t-113 -75q-47 -48 -75 -113t-28 -137t28 -137q28 -66 75 -113q48 -48 113 -76t137 -28q111 0 200 63l173 -172q18 -19 45 -19zM356 581
q93 0 159 -66t66 -159t-66 -159t-159 -66t-159 66t-66 159t66 159t159 66z" />
    <glyph glyph-name="seven" unicode="7" 
d="M532 253q-49 44 -140 44q-10 0 -28 -1q-17 -1 -25 -1v-287q5 -21 31 -35t63 -14q65 0 107 44q41 44 41 125t-49 125zM505 606q-36 36 -110 36q-10 0 -27 -1q-17 0 -29 -1v-291h28q90 0 133 42q42 42 42 113q0 65 -37 102zM777 207q23 -37 23 -86q0 -60 -26 -101
q-25 -41 -72 -65q-49 -25 -114 -36q-65 -10 -153 -10h-407v43q17 1 43 5q26 3 36 7q21 9 28 22q8 14 8 35v553q0 20 -6 33q-7 13 -30 23q-17 7 -40 12q-22 5 -39 7v44h426q160 0 232 -45q71 -44 71 -130q0 -40 -16 -70t-46 -52q-27 -21 -65 -36q-37 -14 -80 -24v-11
q43 -4 89 -19q47 -15 81 -38q35 -24 57 -61z" />
    <glyph glyph-name="eight" unicode="8" 
d="M635 670l-8 -34q-16 0 -41 -4q-26 -4 -38 -8q-22 -7 -31 -20q-10 -14 -14 -31l-123 -533q-2 -4 -2 -8q-1 -5 -1 -9q0 -12 6 -20q5 -8 18 -14q8 -4 34 -9t39 -6l-8 -34h-329l8 34q14 1 41 4q27 2 38 6q20 7 31 19q10 13 13 31l124 534q1 5 1 9q1 5 1 10q0 10 -4 18
q-5 7 -19 13q-14 7 -38 12q-23 5 -35 6l8 34h329z" />
    <glyph glyph-name="nine" unicode="9" 
d="M833 -71v-35q0 -7 -4 -12q-5 -5 -13 -5h-798q-8 0 -12 5q-5 5 -5 12v35q0 17 17 17h798q17 0 17 -17zM765 648q-14 0 -40 -6q-26 -5 -43 -16q-16 -11 -22 -46q-7 -35 -7 -85v-299q0 -57 -23 -100q-24 -42 -63 -69q-38 -26 -81 -38q-42 -11 -81 -11q-62 0 -110 16
q-49 17 -82 44q-32 28 -49 63q-16 36 -16 75v407q0 17 -6 28t-22 21q-13 7 -31 11q-19 4 -32 5v34h287v-34q-14 0 -34 -4q-21 -4 -30 -8q-17 -5 -23 -19q-5 -14 -5 -30v-379q0 -28 6 -58t24 -57q19 -26 51 -43q33 -17 90 -17q53 0 89 17t57 44q20 26 28 55t8 58v282
q0 53 -7 88q-8 34 -23 44q-17 12 -47 19q-29 7 -44 8v34h281v-34z" />
    <glyph glyph-name="colon" unicode=":" 
d="M522 562h-519v104h519v-104zM834 354h-831v104h831v-104zM522 147h-519v104h519v-104zM834 -61h-831v104h831v-104z" />
    <glyph glyph-name="semicolon" unicode=";" 
d="M678 559h-522v104h522v-104zM834 350h-834v105h834v-105zM678 142h-522v104h522v-104zM834 -67h-834v105h834v-105z" />
    <glyph glyph-name="less" unicode="&#x3c;" 
d="M127 300l126 126l288 288l126 -125l-289 -289l289 -288l-126 -126z" />
    <glyph glyph-name="equal" unicode="=" 
d="M830 566h-519v104h519v-104zM830 359h-830v104h830v-104zM830 151h-519v104h519v-104zM830 -56h-830v104h830v-104z" />
    <glyph glyph-name="greater" unicode="&#x3e;" 
d="M667 300l-126 126l-288 288l-126 -125l289 -289l-289 -288l126 -126z" />
    <glyph glyph-name="question" unicode="?" 
d="M104 488h-104v112h104v-112zM104 248h-104v112h104v-112zM104 7h-104v112h104v-112zM834 488h-626v112h626v-112zM834 248h-626v112h626v-112zM834 7h-626v112h626v-112z" />
    <glyph glyph-name="at" unicode="@" 
d="M162 203h-158q-3 12 -3 24q0 30 16 49q15 18 34 32q18 13 34 24q15 10 15 24q0 11 -6 17q-7 6 -18 6t-20 -8q-10 -8 -15 -17l-37 25q11 23 32 35q20 12 45 12q30 0 53 -17q22 -18 22 -50q0 -24 -14 -40q-15 -16 -33 -28l-33 -22q-15 -10 -16 -23h56v26h46v-69zM78 -76
q-21 0 -41 7t-34 22l25 38q8 -8 21 -14q12 -6 25 -6q11 0 21 6t10 19q0 9 -4 15q-5 5 -12 8q-7 2 -15 2h-15l-11 24q12 15 24 31q11 15 25 28v1h-21q-10 -1 -21 -1v-23h-47v66h146v-38l-42 -50q22 -5 36 -21q13 -16 13 -39q0 -36 -24 -56zM162 500h-146v43h47v106v5h-1
q-4 -8 -9 -13q-6 -5 -13 -11l-31 34l60 55h46v-176h47v-43zM833 493h-588v114h588v-114zM833 263h-588v114h588v-114zM833 36h-588v113h588v-113z" />
    <glyph glyph-name="A" unicode="A" 
d="M83 25q-34 0 -58 25q-25 24 -25 58v374q0 34 25 59q24 24 58 24h664q35 0 59 -24q24 -25 24 -59v-374q0 -34 -24 -58q-24 -25 -59 -25h-664zM83 108h664v325l-310 -194q-10 -6 -22 -6t-22 6l-310 194v-325zM162 482l253 -159l254 159h-507z" />
    <glyph glyph-name="B" unicode="B" 
d="M730 -118h-79v39h-473v-39h-79v39q-33 0 -56 23t-23 56v631q0 33 23 56t56 23h631q33 0 56 -23t23 -56v-631q0 -33 -23 -56t-56 -23v-39zM99 631v-631h631v631h-631zM217 40q-16 0 -28 11q-11 12 -11 28v79h-40v79h40v157h-40v79h40v79q0 17 11 28q12 12 28 12h434
q16 0 28 -12q11 -11 11 -28v-473q0 -16 -11 -28q-12 -11 -28 -11h-434zM257 158v-40h355v395h-355v-40h39v-79h-39v-157h39v-79h-39zM370 232q-34 35 -34 84t34 83q35 35 84 35t83 -35q35 -34 35 -83t-35 -84q-34 -35 -83 -35t-84 35zM426 343q-12 -11 -12 -27q0 -17 12 -28
q12 -12 28 -12t28 12q11 11 11 28q0 16 -11 27q-12 12 -28 12t-28 -12z" />
    <glyph glyph-name="C" unicode="C" 
d="M119 4q-122 122 -122 294t122 294t294 122t294 -122t122 -294t-122 -294t-294 -122t-294 122z" />
    <glyph glyph-name="D" unicode="D" 
d="M445 343q-42 42 -42 102q0 59 42 101t101 42q60 0 102 -42t42 -101q0 -60 -42 -102t-102 -42q-59 0 -101 42zM496 495q-21 -21 -21 -50q0 -30 21 -51t50 -21q30 0 51 21t21 51q0 29 -21 50t-51 21q-29 0 -50 -21zM834 13h-575v36q0 95 80 156q80 60 207 60t208 -60
q80 -61 80 -156v-36zM409 163q-56 -29 -73 -78h420q-16 49 -72 78q-57 30 -138 30q-80 0 -137 -30zM149 334q-34 34 -34 82q0 47 34 81q33 34 81 34t81 -34q34 -34 34 -81q0 -48 -34 -82q-33 -33 -81 -33t-81 33zM189 456q-16 -16 -16 -40t16 -41q17 -17 41 -17t41 17t17 41
t-17 40q-17 17 -41 17t-41 -17zM230 71h-230v28q0 77 64 125t166 48q61 0 111 -19q-33 -18 -57 -43q-26 4 -54 4q-64 0 -110 -23q-45 -24 -58 -63h175q-7 -24 -7 -50v-7z" />
    <glyph glyph-name="E" unicode="E" 
d="M507 -123q-209 0 -359 148q-148 150 -148 359v211q0 36 25 60q24 25 60 25h169q34 0 59 -25q25 -24 25 -60v-169q0 -33 -24 -58q-23 -24 -57 -26q14 -82 71 -138q57 -57 137 -71q2 35 26 58q25 24 58 24h169q36 0 60 -25q25 -25 25 -59v-169q0 -36 -25 -60
q-24 -25 -60 -25h-211zM85 595v-211q0 -174 123 -299q125 -123 299 -123h211v169h-169v-43q0 -17 -12 -30q-13 -12 -30 -12q-142 0 -239 97q-96 96 -99 240q0 18 12 31q13 12 30 12h43v169h-169z" />
    <glyph glyph-name="F" unicode="F" 
d="M835 35h-365v-109h159v-50h-417v50h153v109h-364v568h834v-568zM79 519v-409h678v409h-678z" />
    <glyph glyph-name="G" unicode="G" 
d="M161 17h-81q-33 0 -57 23q-23 24 -23 57v484q0 33 23 57q24 23 57 23h645q33 0 57 -23q23 -24 23 -57v-484q0 -33 -23 -57q-24 -23 -57 -23h-350l-214 -161v161zM80 581v-484h161v-80l107 80h377v484h-645z" />
    <glyph glyph-name="H" unicode="H" 
d="M163 -55v303h509v-303h-509zM833 250l-416 339v0l-1 1v-1l-416 -339h833z" />
    <glyph glyph-name="I" unicode="I" 
d="M822 464q-13 -13 -31 -13h-546q-18 0 -31 13q-12 13 -12 30q0 18 12 31q13 13 31 13h546q18 0 31 -13t13 -31q0 -17 -13 -30zM122 441q-21 -18 -50 -18t-49 18q-23 19 -23 53t23 54q20 18 49 18t50 -18q22 -20 22 -54t-22 -53zM822 270q-13 -13 -31 -13h-546
q-18 0 -31 13q-12 12 -12 30t12 31q13 12 31 12h546q18 0 31 -12q13 -13 13 -31t-13 -30zM122 246q-21 -18 -50 -18t-49 18q-23 20 -23 54t23 54q20 18 49 18t50 -18q22 -20 22 -54t-22 -54zM822 76q-13 -13 -31 -13h-546q-18 0 -31 13q-12 12 -12 30t12 31q13 12 31 12h546
q18 0 31 -12q13 -13 13 -31t-13 -30zM122 52q-21 -18 -50 -18t-49 18q-23 20 -23 54t23 54q20 18 49 18t50 -18q22 -20 22 -54t-22 -54z" />
    <glyph glyph-name="J" unicode="J" 
d="M365 -117q-17 0 -29 12t-12 29v41q-40 10 -80 32l-28 -29q-12 -11 -29 -11t-29 11l-74 75q-12 11 -12 28t12 29l29 29q-22 39 -33 80h-40q-17 0 -29 12q-12 11 -12 28v104q0 17 11 29q12 11 28 11h42q10 40 32 80l-29 29q-12 12 -12 29t12 28l74 75q12 11 29 11t29 -11
l28 -29q39 21 80 32v41q0 17 12 29t29 12h103q17 0 29 -12t11 -29v-40q40 -10 80 -32l29 29q11 11 28 11t29 -11l74 -75q12 -12 12 -28q0 -17 -12 -29l-29 -29q22 -39 33 -80h40q39 0 44 -41v-103q0 -17 -12 -29t-29 -12h-40q-11 -40 -33 -80l29 -29q12 -12 12 -29t-12 -28
l-74 -75q-12 -11 -29 -11t-29 11l-28 29q-39 -21 -80 -32v-41q0 -17 -12 -29t-29 -12h-104zM285 433q-55 -55 -55 -132q0 -76 55 -131q54 -54 131 -54q76 0 130 54q55 55 55 131q0 77 -55 132q-54 54 -130 54q-77 0 -131 -54z" />
    <glyph glyph-name="K" unicode="K" 
d="M730 -128h-79v39h-473v-39h-79v39q-33 0 -56 23t-23 56v631q0 33 23 56t56 23h631q33 0 56 -23t23 -56v-631q0 -33 -23 -56t-56 -23v-39zM99 621v-631h631v631h-631zM217 30q-16 0 -28 11q-11 12 -11 28v79h-40v79h40v157h-40v79h40v79q0 17 11 28q12 12 28 12h434
q16 0 28 -12q11 -11 11 -28v-473q0 -16 -11 -28q-12 -11 -28 -11h-434zM257 148v-40h355v395h-355v-40h39v-79h-39v-157h39v-79h-39zM370 222q-34 35 -34 84t34 83q35 35 84 35t83 -35q35 -34 35 -83t-35 -84q-34 -35 -83 -35t-84 35zM426 333q-12 -11 -12 -27q0 -17 12 -28
q12 -12 28 -12t28 12q11 11 11 28q0 16 -11 27q-12 12 -28 12t-28 -12z" />
    <glyph glyph-name="L" unicode="L" 
d="M79 -100q-32 0 -54 22t-22 54v567q0 32 22 54t54 22h75v-76h-75v-567h681v567h-114v-75h-75v227h75v-76h114q31 0 53 -22q23 -22 23 -54v-567q0 -32 -23 -54q-22 -22 -53 -22h-681zM268 468h-76v227h76v-76h265v-76h-265v-75zM306 241h-152v151h152v-151zM495 241h-151
v151h151v-151zM684 241h-151v151h151v-151zM306 51h-152v152h152v-152zM495 51h-151v152h151v-152z" />
    <glyph glyph-name="M" unicode="M" 
d="M83 1q-34 0 -59 24q-24 24 -24 59v374q0 34 24 59q25 24 59 24h665q35 0 59 -24q24 -25 24 -59v-374q0 -35 -24 -59t-59 -24h-665zM83 84h665v325l-310 -194q-10 -6 -22 -6t-22 6l-311 194v-325zM162 458l254 -159l254 159h-508zM1153 281l-169 -159v93h-113v132h113v92z
" />
    <glyph glyph-name="N" unicode="N" 
d="M83 25q-34 0 -58 25q-25 24 -25 58v374q0 34 25 59q24 24 58 24h664q35 0 59 -24q24 -25 24 -59v-374q0 -34 -24 -58q-24 -25 -59 -25h-664zM83 108h664v325l-310 -194q-10 -6 -22 -6t-22 6l-310 194v-325zM162 482l253 -159l254 159h-507z" />
    <glyph glyph-name="O" unicode="O" 
d="M251 200h334v84h-334v-84zM408 535l-69 92q-25 33 -67 33h-188q-35 0 -59 -25q-25 -24 -25 -59v-543q0 -35 25 -59q24 -25 59 -25h669q34 0 59 25q24 24 24 59v418q0 34 -24 59q-25 25 -59 25h-345zM84 33v543h188l69 -92q25 -33 67 -33h345v-418h-669z" />
    <glyph glyph-name="P" unicode="P" 
d="M730 -128h-79v39h-473v-39h-79v39q-33 0 -56 23t-23 56v631q0 33 23 56t56 23h631q33 0 56 -23t23 -56v-631q0 -33 -23 -56t-56 -23v-39zM99 621v-631h631v631h-631zM217 30q-16 0 -28 11q-11 12 -11 28v79h-40v79h40v157h-40v79h40v79q0 17 11 28q12 12 28 12h434
q16 0 28 -12q11 -11 11 -28v-473q0 -16 -11 -28q-12 -11 -28 -11h-434zM257 148v-40h355v395h-355v-40h39v-79h-39v-157h39v-79h-39zM370 222q-34 35 -34 84t34 83q35 35 84 35t83 -35q35 -34 35 -83t-35 -84q-34 -35 -83 -35t-84 35zM426 333q-12 -11 -12 -27q0 -17 12 -28
q12 -12 28 -12t28 12q11 11 11 28q0 16 -11 27q-12 12 -28 12t-28 -12z" />
    <glyph glyph-name="Q" unicode="Q" 
d="M698 624v-88h103v-128h-103v-89l-153 153zM506 -123q-208 0 -358 148q-148 150 -148 358v211q0 36 25 60q24 25 60 25h168q35 0 60 -25q25 -24 25 -60v-168q0 -34 -24 -59q-23 -24 -57 -26q14 -82 70 -138q57 -56 137 -70q2 35 26 58q25 24 59 24h168q36 0 60 -25
q25 -25 25 -60v-168q0 -36 -25 -60q-24 -25 -60 -25h-211zM85 594v-211q0 -174 123 -298q124 -123 298 -123h211v168h-168v-42q0 -17 -13 -30q-12 -13 -30 -13q-141 0 -238 98q-97 96 -100 239q0 19 13 31q13 13 30 13h42v168h-168z" />
    <glyph glyph-name="R" unicode="R" 
d="M795 455q1 -1 1 -2t-1 -2l-38 -39h-1q0 -1 -1 -1l-1 1l-73 73l-71 -73l-2 -1l-1 1l-39 39q-1 1 -1 2t1 2l72 71l-72 73q-1 1 -1 2l1 1l39 39q1 1 3 0l71 -72l73 72q1 1 3 0l38 -39q1 0 1 -1t-1 -2l-71 -73zM508 -123q-209 0 -359 149q-149 150 -149 359v212q0 36 25 60
q24 25 60 25h169q35 0 60 -25q25 -24 25 -60v-169q0 -34 -24 -59q-23 -24 -57 -26q14 -82 71 -138q57 -57 137 -71q2 35 26 58q25 24 59 24h169q36 0 60 -25q25 -25 25 -60v-169q0 -36 -25 -60q-24 -25 -60 -25h-212zM85 597v-212q0 -175 124 -299t299 -124h212v169h-169
v-42q0 -18 -13 -30q-12 -13 -30 -13q-142 0 -239 98q-97 96 -100 240q0 19 13 31q12 13 30 13h42v169h-169z" />
    <glyph glyph-name="S" unicode="S" 
d="M670 332v92h-108v132h108v93l158 -159zM526 -123q-217 0 -372 154q-154 155 -154 372v219q0 37 26 62q25 26 62 26h175q36 0 62 -26q26 -25 26 -62v-175q0 -35 -25 -61q-24 -25 -59 -27q14 -85 73 -143q59 -59 142 -73q2 36 27 60q26 25 61 25h175q37 0 62 -26
q26 -26 26 -62v-175q0 -37 -26 -62q-25 -26 -62 -26h-219zM88 622v-219q0 -181 128 -310q129 -128 310 -128h219v175h-175v-44q0 -18 -13 -31t-31 -13q-147 0 -248 101q-100 100 -103 249q0 19 13 32t31 13h44v175h-175z" />
    <glyph glyph-name="T" unicode="T" 
d="M18 -99q-17 15 -18 36v612q0 39 27 65q27 27 66 27h85v39q0 17 12 28q12 12 28 12t28 -12q12 -11 12 -28v-39h317v39q0 17 12 28q11 12 28 12q16 0 28 -12q11 -11 11 -28v-39h86q39 0 66 -27q27 -26 27 -65v-610q-2 -23 -18 -38q-16 -14 -38 -14h-4h-714h-3q-22 0 -38 14
zM230 181q-12 -11 -12 -27q0 -17 12 -29l107 -109q12 -10 28 -10t28 10l210 198q20 28 0 48q-13 15 -33 15q-12 0 -23 -7l-182 -171l-79 82q-10 11 -26 11q-17 0 -30 -11zM93 561q-14 0 -14 -12v-146h675v146q0 12 -14 12h-86v-39q0 -17 -11 -28q-12 -12 -28 -12
q-17 0 -28 12q-12 11 -12 28v39h-317v-39q0 -17 -12 -28q-12 -12 -28 -12t-28 12q-12 11 -12 28v39h-85z" />
    <glyph glyph-name="U" unicode="U" 
d="M375 386h-83v84h83v-84zM542 386h-83v84h83v-84zM375 219h-83v84h83v-84zM542 219h-83v84h83v-84zM209 53h-84v83h84v-83zM375 53h-83v83h83v-83zM542 53h-83v83h83v-83zM709 53h-83v83h83v-83zM42 -156q-18 0 -30 12t-12 30v333q0 18 12 30t30 12h125v334q0 17 12 29
q12 13 30 13h83v41q0 18 12 30t30 12h167q17 0 29 -12t12 -30v-41h84q17 0 29 -13q12 -12 12 -29v-334h126q17 0 29 -12t12 -30v-333q0 -18 -12 -30t-29 -12h-751zM334 11h167v-84h250v251h-125q-18 0 -30 12t-12 29v334h-83q-18 0 -30 12q-12 13 -12 30v42h-84v-42
q0 -17 -12 -30q-12 -12 -29 -12h-84v-334q0 -17 -12 -29t-29 -12h-126v-251h251v84z" />
    <glyph glyph-name="V" unicode="V" 
d="M794 454q1 -1 1 -2t-1 -2l-38 -38h-1q0 -1 -1 -1l-1 1l-73 72l-71 -72l-2 -1l-1 1l-38 38q-1 1 -1 2t1 2l71 72l-71 72q-1 1 -1 2l1 1l38 39q1 1 3 0l71 -72l73 72q1 1 3 0l38 -39q1 0 1 -1t-1 -2l-71 -72zM508 -123q-210 0 -359 149t-149 359v211q0 36 25 60
q24 25 60 25h169q35 0 60 -25q25 -24 25 -60v-169q0 -34 -24 -59q-24 -24 -57 -26q13 -82 70 -138q57 -57 137 -70q2 34 26 58q25 24 59 24h169q36 0 60 -25q25 -25 25 -60v-169q0 -36 -25 -60q-24 -25 -60 -25h-211zM85 596v-211q0 -175 123 -300q125 -123 300 -123h211
v169h-169v-43q0 -17 -12 -30q-13 -12 -30 -12q-142 0 -240 97q-96 97 -99 241q0 18 12 31q13 12 30 12h43v169h-169z" />
    <glyph glyph-name="W" unicode="W" 
d="M577 -13q14 -7 32 -25t35 -37q19 -22 40 -48h-230v65h-68v-65h-230q16 26 33 48q14 19 31 37q16 18 30 25q11 5 34 9q22 4 45 6q26 3 57 5v-32h68v32q27 -2 51 -5q20 -2 41 -6zM454 7h-68v24q-18 8 -35 24q-18 16 -31 37q-14 21 -22 47q-8 25 -8 53q0 62 20 95
q19 33 42 47q27 17 62 17q34 0 61 -18q23 -15 43 -48q19 -34 19 -98q0 -20 -6 -43q-7 -24 -18 -45q-11 -22 -26 -40t-33 -28v-24zM168 27h-111q3 23 8 41q5 16 11 31q6 14 15 19q7 3 20 5q12 2 25 4q15 2 32 3v16q-11 6 -20 17q-10 11 -17 25q-7 13 -11 28q-4 14 -4 27
q0 41 12 62t26 30q17 11 39 11q21 0 38 -11q14 -9 27 -29q12 -21 12 -60q0 -35 -18 -62q-19 -27 -42 -38v-16q16 0 30 -2l24 -4q12 -2 19 -5q1 -5 3 -10t4 -11q1 -6 4 -12q3 -8 11 -18q7 -11 15 -20q10 -11 21 -21h-131h-42zM621 140q-23 11 -41 39q-19 27 -19 62
q0 39 12 59t26 29q17 11 39 11q21 0 38 -11q14 -9 27 -30q12 -21 12 -62q0 -12 -4 -26q-4 -15 -11 -28q-7 -14 -16 -25q-10 -11 -21 -17v-16q17 -1 32 -3l26 -4q12 -2 19 -5q8 -5 15 -19q6 -15 11 -31q5 -18 8 -41h-111h-42h-131q10 10 20 21q8 9 16 19t11 18q2 7 4 13l4 10
t3 10q7 3 19 5l24 4q14 2 30 3v15zM296 411q-14 11 -22 21q-8 9 -6 15q1 3 7 10q5 7 11 14l16 18l13 13q5 5 11 10q5 4 10 5q8 2 14 -6q5 -9 14 -17q5 -5 15 -7q9 -2 22 11l68 74q11 14 9 23q-3 9 -8 14q-8 8 -17 13q-10 5 -9 13q1 4 5 10q3 6 8 12q5 7 12 14q8 10 16 18
q7 7 14 13q6 5 9 6q6 2 17 -4q10 -7 22 -20q6 -6 10 -16q3 -11 3 -23t-4 -23q-4 -12 -12 -21q-9 -9 -32 -35q-24 -26 -51 -55t-50 -54q-24 -26 -33 -36q-8 -9 -19 -14t-23 -6t-22 2z" />
    <glyph glyph-name="X" unicode="X" horiz-adv-x="845" 
d="M32 667q3 2 9 2h318q6 0 9 -2l-168 -166zM395 411v-2q-1 -1 -1 -2l-128 127l127 126q2 -6 2 -10v-239zM383 384q-7 -5 -13 -5h-340q-6 0 -13 5l134 133l49 -48l49 48zM132 536l-126 -125v2q-1 1 -1 2v236q0 3 2 9zM303 -81q-23 -22 -54 -32t-63 -11q-32 0 -60 9
q-29 9 -47 25q-35 33 -53 60q-18 28 -12 45q2 8 19 26q16 18 34 35q21 20 48 44q20 18 38 32q16 12 32 23q16 10 27 12q10 1 19 -5q8 -6 16 -16q7 -11 16 -23q8 -13 20 -24q6 -6 16 -12q9 -7 22 -9q12 -2 27 3t33 20l201 185q17 16 23 31q5 15 5 28q-1 12 -6 22q-6 9 -12 16
q-11 12 -22 22q-12 10 -21 19q-10 8 -15 17q-6 8 -4 19t14 27q12 15 26 29q16 17 35 35q26 25 48 44q19 17 38 31q18 14 27 16q17 5 44 -15q26 -21 55 -59q15 -19 22 -48q6 -29 3 -60q-3 -32 -15 -62q-13 -31 -37 -52q-18 -16 -56 -50q-38 -35 -86 -79q-49 -45 -102 -94
q-54 -49 -102 -93q-48 -45 -86 -80z" />
    <glyph glyph-name="Y" unicode="Y" 
d="M741 552q19 0 36 -7q16 -7 29 -19q12 -13 19 -30t7 -36v-368q0 -19 -7 -35q-7 -17 -19 -29q-13 -13 -29 -20q-17 -7 -36 -7h-649q-38 0 -64 27q-27 26 -27 64v368q0 19 7 36t20 30q12 12 29 19q16 7 35 7h649zM787 460q0 20 -13 33q-14 13 -33 13h-649q-19 0 -32 -13
q-14 -13 -14 -33v-368q0 -19 14 -32q13 -13 32 -13h649q19 0 33 13q13 13 13 32v368zM599 397q25 0 47 -9q22 -10 39 -26q16 -17 26 -39q9 -22 9 -47t-9 -47q-10 -22 -26 -38q-17 -17 -39 -26q-22 -10 -47 -10t-47 10q-22 9 -38 26q-17 16 -26 38q-10 22 -10 47q0 43 27 76
h-175q27 -33 27 -76q0 -25 -9 -47q-10 -22 -26 -38q-17 -17 -39 -26q-22 -10 -47 -10t-47 10q-22 9 -38 26q-17 16 -26 38q-10 22 -10 47t10 47q9 22 26 39q16 16 38 26q22 9 47 9h363zM236 201q32 0 54 22t22 53q0 32 -22 54t-54 22t-54 -22t-22 -54q0 -31 22 -53zM599 201
q32 0 54 22t22 53q0 32 -22 54t-54 22t-54 -22t-22 -54q0 -31 22 -53z" />
    <glyph glyph-name="Z" unicode="Z" horiz-adv-x="820" 
d="M481 163h110l-189 189l-189 -189h111v-157h157v157zM11 20h-9q-2 0 -2 -2v-16q0 -2 2 -2h12q2 0 2 2v13zM14 2h-12v16h8v-4h4v-12zM10 11h-6v-2h6v2zM4 5h8v2h-8v-2zM150 706q-35 0 -59 -25q-25 -25 -25 -59v-672q0 -35 25 -59q24 -25 59 -25h504q35 0 59 25q25 24 25 59
v563l-193 193h-395zM653 -49h-511v681h341v-170h170v-511z" />
    <glyph glyph-name="bracketleft" unicode="[" 
d="M115 161q-73 72 -115 144q42 72 115 145q145 144 300 144t301 -144q73 -73 115 -145q-42 -72 -115 -144q-146 -145 -301 -145t-300 145zM272 448q-60 -59 -60 -143t60 -144q59 -60 143 -60t144 60t60 144t-60 143q-60 60 -144 60t-143 -60zM351 241q-26 26 -26 64
q0 37 26 64q27 27 64 27t65 -27q27 -27 27 -64t-27 -64q-28 -27 -65 -27t-64 27z" />
    <glyph glyph-name="backslash" unicode="\" 
d="M83 25q-34 0 -58 25q-25 24 -25 58v374q0 34 25 59q24 24 58 24h664q35 0 59 -24q24 -25 24 -59v-374q0 -34 -24 -58q-24 -25 -59 -25h-664zM83 108h664v325l-310 -194q-10 -6 -22 -6t-22 6l-310 194v-325zM162 482l253 -159l254 159h-507z" />
    <glyph glyph-name="bracketright" unicode="]" 
d="M320 -49l-321 372l119 103l205 -237l395 435l116 -106z" />
    <glyph glyph-name="asciicircum" unicode="^" 
d="M418 237l-106 -106q-1 -1 -3 -1t-2 1l-57 57q-1 1 -1 3l1 2l106 105l-106 106q-1 1 -1 2q0 2 1 3l57 57q0 1 2 1t3 -1l106 -106l106 106q0 1 2 1t3 -1l57 -57q2 -3 0 -5l-106 -106l106 -105q2 -3 0 -5l-57 -57q-1 -1 -3 -1t-2 1zM126 6q-121 121 -121 292t121 292
t292 121t292 -121t121 -292t-121 -292t-292 -121t-292 121zM191 525q-94 -94 -94 -227t94 -227t227 -94t227 94t94 227t-94 227t-227 94t-227 -94z" />
    <glyph glyph-name="underscore" unicode="_" 
d="M547 237q-13 13 -13 32t13 32l168 168q27 27 27 65q0 37 -27 64t-64 27q-38 0 -65 -27l-168 -168q-13 -13 -32 -13t-33 13q-13 13 -13 32t13 32l169 169q53 53 129 53q75 0 129 -53q53 -54 53 -129q0 -76 -53 -129l-169 -168q-13 -14 -32 -14t-32 14zM53 -64
q-53 54 -53 129q0 76 53 129l169 169q13 13 32 13t32 -13q13 -14 13 -33t-13 -32l-168 -168q-27 -27 -27 -65q0 -37 27 -64t64 -27q38 0 65 27l168 168q13 14 32 14t33 -14q13 -13 13 -32t-13 -32l-169 -169q-53 -53 -129 -53q-75 0 -129 53zM257 140q-14 13 -14 32t14 32
l255 255q13 14 32 14t32 -14q14 -13 14 -32t-14 -32l-255 -255q-13 -14 -32 -14t-32 14z" />
    <glyph glyph-name="a" unicode="a" 
d="M458 418h-83v-125h-125v-83h125v-125h83v125h125v83h-125v125zM406 543l-69 91q-25 33 -66 33h-188q-34 0 -59 -24q-24 -24 -24 -59v-541q0 -34 24 -59q25 -24 59 -24h666q35 0 59 24q24 25 24 59v416q0 35 -24 59q-24 25 -59 25h-343zM83 43v541h188l68 -91
q25 -34 67 -34h343v-416h-666z" />
    <glyph glyph-name="b" unicode="b" 
d="M576 178l-190 190v-112h-158v-157h158v-111zM11 20h-9q-2 0 -2 -2v-16q0 -2 2 -2h12q2 0 2 2v13zM14 2h-12v16h8v-4h4v-12zM10 11h-6v-2h6v2zM4 5h8v2h-8v-2zM150 706q-35 0 -59 -25q-25 -25 -25 -59v-672q0 -35 25 -59q24 -25 59 -25h504q35 0 59 25q25 24 25 59v563
l-193 193h-395zM653 -49h-511v681h341v-170h170v-511z" />
    <glyph glyph-name="c" unicode="c" 
d="M614 279l-59 53l-200 -220l-103 120l-61 -52l163 -188zM11 20h-9q-2 0 -2 -2v-16q0 -2 2 -2h12q2 0 2 2v13zM14 2h-12v16h8v-4h4v-12zM10 11h-6v-2h6v2zM4 5h8v2h-8v-2zM150 706q-35 0 -59 -25q-25 -25 -25 -59v-672q0 -35 25 -59q24 -25 59 -25h504q35 0 59 25
q25 24 25 59v563l-193 193h-395zM653 -49h-511v681h341v-170h170v-511z" />
    <glyph glyph-name="d" unicode="d" 
d="M691 458l-448 -452l-118 118l448 451zM827 593l-101 -101l-118 117l101 101zM85 84l118 -118l-206 -89z" />
    <glyph glyph-name="e" unicode="e" 
d="M2 22h-9q-2 0 -2 -2v-16q0 -2 2 -2h12q2 0 2 2v13zM5 4h-12v16h8v-4h4v-12zM1 13h-6v-2h6v2zM-5 7h8v2h-8v-2zM147 708q-35 0 -59 -25q-25 -25 -25 -59v-672q0 -35 25 -59q24 -25 59 -25h504q35 0 59 25q25 24 25 59v563l-193 193h-395zM650 -47h-511v681h341v-170h170
v-511zM565 40l-112 27l-9 5l-225 215q-23 22 -23 54q0 31 23 54v0q23 22 56 22t56 -22l225 -216l5 -9l29 -107q2 -11 -6 -18q-5 -6 -14 -6q-2 0 -5 1zM488 136l-8 -37l63 -15l-15 60zM289 274l157 -151l5 23l-148 141zM331 314l147 -141l24 4l-157 150zM235 341
q0 -16 12 -27l14 -13l57 53l-15 14q-11 10 -28 10t-28 -10q-12 -11 -12 -27z" />
    <glyph glyph-name="f" unicode="f" 
d="M408 109l184 1v144l-185 -1v114l-195 -197l197 -184zM11 20h-9q-2 0 -2 -2v-16q0 -2 2 -2h12q2 0 2 2v13zM14 2h-12v16h8v-4h4v-12zM10 11h-6v-2h6v2zM4 5h8v2h-8v-2zM150 706q-35 0 -59 -25q-25 -25 -25 -59v-672q0 -35 25 -59q24 -25 59 -25h504q35 0 59 25
q25 24 25 59v563l-193 193h-395zM653 -49h-511v681h341v-170h170v-511z" />
    <glyph glyph-name="g" unicode="g" 
d="M271 357q-60 60 -60 146q0 85 60 145q61 61 146 61t146 -61q61 -60 61 -145q0 -86 -61 -146q-61 -61 -146 -61t-146 61zM344 575q-30 -30 -30 -72q0 -43 30 -73q30 -31 73 -31t73 31q30 30 30 73q0 42 -30 72q-30 31 -73 31t-73 -31zM830 -117h-826v52q0 136 115 223
q116 86 298 86t298 -86q115 -87 115 -223v-52zM220 99q-81 -42 -105 -113h604q-24 71 -105 113t-197 42t-197 -42z" />
    <glyph glyph-name="h" unicode="h" 
d="M161 17h-81q-33 0 -57 23q-23 24 -23 57v484q0 33 23 57q24 23 57 23h645q33 0 57 -23q23 -24 23 -57v-484q0 -33 -23 -57q-24 -23 -57 -23h-350l-214 -161v161zM80 581v-484h161v-80l107 80h377v484h-645z" />
    <glyph glyph-name="i" unicode="i" 
d="M751 295q0 138 -98 236t-236 98t-236 -98l111 -111h-250v251l81 -81q122 122 294 122q173 0 295 -122t122 -295h-83zM122 0q-122 123 -122 295h83q0 -138 98 -236t236 -98t236 99l-111 110h251v-250l-81 81q-122 -123 -295 -123q-172 0 -295 122zM358 236q-24 25 -24 59
q0 35 24 59q25 25 59 25q35 0 59 -25q25 -24 25 -59q0 -34 -25 -59q-24 -24 -59 -24q-34 0 -59 24z" />
    <glyph glyph-name="j" unicode="j" 
d="M833 303l-430 -426v249h-403v311h403v268z" />
    <glyph glyph-name="k" unicode="k" 
d="M0 280l430 425v-249h403v-311h-403v-268z" />
    <glyph glyph-name="l" unicode="l" 
d="M85 -133h-85v792h85v-792zM472 152q-88 60 -191 60q-101 0 -174 -44v496q56 55 164 55q95 0 201 -55q129 -66 224 -66q104 0 135 64v-514q0 -29 -38 -50q-41 -21 -100 -21q-112 0 -221 75z" />
    <glyph glyph-name="m" unicode="m" 
d="M169 -131q-29 0 -49 21q-21 20 -21 49v630q0 29 21 49q20 21 49 21h70v35q0 14 10 25q11 10 25 10t25 -10q10 -11 10 -25v-35h70v35q0 14 10 25q11 10 25 10t25 -10q10 -11 10 -25v-35h70v35q0 14 10 25q11 10 25 10t25 -10q10 -11 10 -25v-35h70q29 0 49 -21
q21 -20 21 -49v-630q0 -29 -21 -49q-20 -21 -49 -21h-490zM169 569v-630h490v630h-70v-35q0 -15 -10 -25q-11 -10 -25 -10t-25 10q-10 10 -10 25v35h-70v-35q0 -15 -10 -25q-11 -10 -25 -10t-25 10q-10 10 -10 25v35h-70v-35q0 -15 -10 -25q-11 -10 -25 -10t-25 10
q-10 10 -10 25v35h-70z" />
    <glyph glyph-name="n" unicode="n" 
d="M220 274q-50 49 -50 117t50 116q51 48 122 48t121 -48t50 -116t-50 -117q-50 -47 -121 -47t-122 47zM281 449q-25 -25 -25 -58q0 -34 25 -58q26 -24 61 -24t60 24q26 24 26 58q0 33 -26 58q-25 24 -60 24t-61 -24zM685 -102h-686v41q0 109 96 178t247 69t247 -69t96 -178
v-41zM178 69q-67 -32 -86 -89h501q-20 57 -87 89q-68 34 -164 34t-164 -34zM748 339h-57v85h-85v57h85v85h57v-85h85v-57h-85v-85z" />
    <glyph glyph-name="o" unicode="o" 
d="M221 276q-50 48 -50 117q0 68 50 117q51 47 122 47t122 -47q50 -49 50 -117q0 -69 -50 -117q-51 -48 -122 -48t-122 48zM282 451q-25 -25 -25 -58q0 -34 25 -59q26 -23 61 -23q36 0 61 23q25 25 25 59q0 33 -25 58q-25 24 -61 24q-35 0 -61 -24zM687 -102h-688v41
q0 109 96 178q96 70 248 70t248 -70q96 -69 96 -178v-41zM179 70q-67 -33 -87 -89h503q-19 56 -87 89q-68 34 -165 34q-96 0 -164 -34zM906 166l-97 23l-9 5l-194 185q-20 20 -20 47t20 47v0q20 19 49 19q27 0 48 -19l195 -187l4 -7l25 -94q2 -8 -5 -15q-5 -5 -12 -5
q-2 0 -4 1zM839 249l-7 -33l54 -12l-13 51zM667 369l136 -131l4 19l-129 122zM703 403l127 -123l21 4l-136 130zM620 426q0 -14 11 -23l12 -12l49 47l-14 12q-9 9 -23 9q-15 0 -24 -9q-11 -9 -11 -24z" />
    <glyph glyph-name="p" unicode="p" 
d="M221 276q-50 48 -50 117q0 68 50 117q51 47 122 47t122 -47q50 -49 50 -117q0 -69 -50 -117q-51 -48 -122 -48t-122 48zM282 451q-25 -25 -25 -58q0 -34 25 -59q26 -23 61 -23q36 0 61 23q25 25 25 59q0 33 -25 58q-25 24 -61 24q-35 0 -61 -24zM687 -102h-688v41
q0 109 96 178q96 70 248 70t248 -70q96 -69 96 -178v-41zM179 70q-67 -33 -87 -89h503q-19 56 -87 89q-68 34 -165 34q-96 0 -164 -34zM906 166l-97 23l-9 5l-194 185q-20 20 -20 47t20 47v0q20 19 49 19q27 0 48 -19l195 -187l4 -7l25 -94q2 -8 -5 -15q-5 -5 -12 -5
q-2 0 -4 1zM839 249l-7 -33l54 -12l-13 51zM667 369l136 -131l4 19l-129 122zM703 403l127 -123l21 4l-136 130zM620 426q0 -14 11 -23l12 -12l49 47l-14 12q-9 9 -23 9q-15 0 -24 -9q-11 -9 -11 -24z" />
    <glyph glyph-name="q" unicode="q" horiz-adv-x="0" 
d="M508 275l-219 -219l-183 -182l35 -35l183 183l219 217l200 202l-36 34zM465 549q23 -24 23 -57q0 -34 -23 -58q-24 -24 -58 -24q-32 0 -55 24q-24 24 -24 58q0 33 24 57q23 22 55 22q34 0 58 -22zM461 340l99 100q8 27 8 52q0 66 -45 113q-49 47 -116 47q-65 0 -113 -47
q-47 -47 -47 -113q0 -67 47 -114q48 -46 113 -46q26 0 54 8zM173 89q28 84 148 111l89 90h-3q-140 0 -232 -67q-88 -67 -88 -175v-40h42l80 81h-36zM443 209q166 -15 199 -120h-318l-12 -12l-68 -69h487v40q0 86 -59 147q-58 61 -158 83zM492 293l-219 -220l-181 -182
l34 -35l184 183l216 217l202 201l-34 35z" />
    <glyph glyph-name="r" unicode="r" 
d="M445 333q-42 42 -42 102q0 59 42 101t101 42q60 0 102 -42t42 -101q0 -60 -42 -102t-102 -42q-59 0 -101 42zM496 485q-21 -21 -21 -50q0 -30 21 -51t50 -21q30 0 51 21t21 51q0 29 -21 50t-51 21q-29 0 -50 -21zM834 3h-575v36q0 95 80 156q80 60 207 60t208 -60
q80 -61 80 -156v-36zM409 153q-56 -29 -73 -78h420q-16 49 -72 78q-57 30 -138 30q-80 0 -137 -30zM149 324q-34 34 -34 82q0 47 34 81q33 34 81 34t81 -34q34 -34 34 -81q0 -48 -34 -82q-33 -33 -81 -33t-81 33zM189 446q-16 -16 -16 -40t16 -41q17 -17 41 -17t41 17t17 41
t-17 40q-17 17 -41 17t-41 -17zM230 61h-230v28q0 77 64 125t166 48q61 0 111 -19q-33 -18 -57 -43q-26 4 -54 4q-64 0 -110 -23q-45 -24 -58 -63h175q-7 -24 -7 -50v-7zM912 426h-69v104h-104v69h104v104h69v-104h104v-69h-104v-104z" />
    <glyph glyph-name="s" unicode="s" 
d="M445 333q-42 42 -42 102q0 59 42 101t101 42q60 0 102 -42t42 -101q0 -60 -42 -102t-102 -42q-59 0 -101 42zM496 485q-21 -21 -21 -50q0 -30 21 -51t50 -21q30 0 51 21t21 51q0 29 -21 50t-51 21q-29 0 -50 -21zM834 3h-575v36q0 95 80 156q80 60 207 60t208 -60
q80 -61 80 -156v-36zM409 153q-56 -29 -73 -78h420q-16 49 -72 78q-57 30 -138 30q-80 0 -137 -30zM149 324q-34 34 -34 82q0 47 34 81q33 34 81 34t81 -34q34 -34 34 -81q0 -48 -34 -82q-33 -33 -81 -33t-81 33zM189 446q-16 -16 -16 -40t16 -41q17 -17 41 -17t41 17t17 41
t-17 40q-17 17 -41 17t-41 -17zM230 61h-230v28q0 77 64 125t166 48q61 0 111 -19q-33 -18 -57 -43q-26 4 -54 4q-64 0 -110 -23q-45 -24 -58 -63h175q-7 -24 -7 -50v-7zM710 541h224v84h-224v-84z" />
    <glyph glyph-name="t" unicode="t" 
d="M220 274q-50 49 -50 117t50 116q51 48 122 48t121 -48t50 -116t-50 -117q-50 -47 -121 -47t-122 47zM281 449q-25 -25 -25 -58q0 -34 25 -58q26 -24 61 -24t60 24q26 24 26 58q0 33 -26 58q-25 24 -60 24t-61 -24zM685 -102h-686v41q0 109 96 178t247 69t247 -69t96 -178
v-41zM178 69q-67 -32 -86 -89h501q-20 57 -87 89q-68 34 -164 34t-164 -34zM748 339h-57v85h-85v57h85v85h57v-85h85v-57h-85v-85z" />
    <glyph glyph-name="u" unicode="u" 
d="M606 422h227v60h-227v-60zM220 274q-50 49 -50 117t50 116q51 48 122 48t121 -48t50 -116t-50 -117q-50 -47 -121 -47t-122 47zM281 449q-25 -25 -25 -58q0 -34 25 -58q26 -24 61 -24t60 24q26 24 26 58q0 33 -26 58q-25 24 -60 24t-61 -24zM685 -102h-686v41
q0 109 96 178t247 69t247 -69t96 -178v-41zM178 69q-67 -32 -86 -89h501q-20 57 -87 89q-68 34 -164 34t-164 -34z" />
    <glyph glyph-name="v" unicode="v" 
d="M79 -100q-32 0 -54 22t-22 54v567q0 32 22 54t54 22h75v-76h-75v-567h681v567h-114v-75h-75v227h75v-76h114q31 0 53 -22q23 -22 23 -54v-567q0 -32 -23 -54q-22 -22 -53 -22h-681zM268 468h-76v227h76v-76h265v-76h-265v-75zM306 241h-152v151h152v-151zM495 241h-151
v151h151v-151zM684 241h-151v151h151v-151zM306 51h-152v152h152v-152zM495 51h-151v152h151v-152z" />
    <glyph glyph-name="w" unicode="w" 
d="M289 -115l-62 216q-85 81 -85 199q0 117 85 198l62 216h259l62 -216q85 -81 85 -198q0 -118 -85 -199l-62 -216h-259zM341 -46h155l25 89q-49 -20 -103 -20q-53 0 -103 20zM272 446q-61 -61 -61 -146q0 -86 61 -147q60 -61 146 -61t147 61t61 147q0 85 -61 146t-147 61
t-146 -61zM521 556l-25 89h-155l-26 -89q50 20 103 20q54 0 103 -20zM418 265l-103 -69l103 207l104 -207z" />
    <glyph glyph-name="x" unicode="x" 
d="M829 33q3 -2 3 -6q0 -3 -3 -6l-141 -140q-3 -3 -6 -3t-6 3l-259 261l-260 -261q-2 -3 -6 -3q-3 0 -6 3l-141 140q-2 4 -2 6q0 4 2 6l261 262l-261 261q-2 2 -2 6q0 3 2 5l141 141q6 6 12 0l260 -261l259 261q7 5 12 0l141 -141q3 -2 3 -5q0 -5 -3 -6l-260 -261z" />
    <glyph glyph-name="y" unicode="y" 
d="M133 706l609 -393l-615 -436v832z" />
    <glyph glyph-name="z" unicode="z" 
d="M445 343q-42 42 -42 102q0 59 42 101t101 42q60 0 102 -42t42 -101q0 -60 -42 -102t-102 -42q-59 0 -101 42zM496 495q-21 -21 -21 -50q0 -30 21 -51t50 -21q30 0 51 21t21 51q0 29 -21 50t-51 21q-29 0 -50 -21zM834 13h-575v36q0 95 80 156q80 60 207 60t208 -60
q80 -61 80 -156v-36zM409 163q-56 -29 -73 -78h420q-16 49 -72 78q-57 30 -138 30q-80 0 -137 -30zM149 334q-34 34 -34 82q0 47 34 81q33 34 81 34t81 -34q34 -34 34 -81q0 -48 -34 -82q-33 -33 -81 -33t-81 33zM189 456q-16 -16 -16 -40t16 -41q17 -17 41 -17t41 17t17 41
t-17 40q-17 17 -41 17t-41 -17zM230 71h-230v28q0 77 64 125t166 48q61 0 111 -19q-33 -18 -57 -43q-26 4 -54 4q-64 0 -110 -23q-45 -24 -58 -63h175q-7 -24 -7 -50v-7zM710 551h224v84h-224v-84z" />
    <glyph glyph-name="braceleft" unicode="{" 
d="M151 706q-34 0 -59 -24q-24 -25 -24 -59v-662q0 -34 24 -59q25 -24 59 -24h497q34 0 58 24q24 25 24 59v555l-189 190h-390zM648 -39h-497v662h331v-165h166v-497zM482 333h-248v-82h248v82zM234 85h331v83h-331v-83z" />
    <glyph glyph-name="bar" unicode="|" 
d="M296 -124h-226v829h226v-829zM763 -124h-226v829h226v-829z" />
    <glyph glyph-name="braceright" unicode="}" 
d="M352 -162q-11 5 -11 16v370l-244 446q-4 9 1 17q5 9 15 9h608q11 0 16 -9t0 -18l-255 -423v-290q0 -7 -5 -12l-106 -102q-5 -5 -12 -5z" />
    <glyph glyph-name="asciitilde" unicode="~" 
d="M407 535l-69 92q-25 33 -67 33h-188q-34 0 -59 -24q-24 -25 -24 -59v-543q0 -34 24 -59q25 -24 59 -24h668q34 0 59 24q24 25 24 59v417q0 35 -24 59q-25 25 -59 25h-344zM83 34v543h188l69 -92q25 -34 67 -34h344v-417h-668z" />
    <glyph glyph-name="degree" unicode="&#xb0;" 
d="M327 679q208 0 358 -148q148 -150 148 -358v-211q0 -36 -25 -60q-24 -25 -60 -25h-168q-35 0 -60 25q-25 24 -25 60v168q0 34 24 59q23 24 57 26q-14 82 -70 138q-57 56 -137 70q-2 -35 -26 -58q-25 -24 -59 -24h-168q-36 0 -60 25q-25 25 -25 60v168q0 36 25 60
q24 25 60 25h211zM748 -38v211q0 174 -123 298q-124 123 -298 123h-211v-168h168v42q0 17 13 30q12 13 30 13q141 0 238 -98q97 -96 100 -239q0 -19 -13 -31q-13 -13 -30 -13h-42v-168h168z" />
    <glyph glyph-name="Agrave" unicode="&#xc0;" 
d="M472 435l151 -186q18 -23 15.5 -51.5t-25.5 -46.5q-23 -19 -51.5 -16t-46.5 26l-97 119l-97 -119q-18 -23 -46.5 -26t-51.5 16q-23 18 -26 46.5t15 51.5l152 186q4 6 10 10v1q1 0 3 2q6 4 9 5q2 1 2.5 1t2.5 1l9 3q2 1 4 1q4 1 7 1.5t7 0.5q5 0 13 -2q3 0 4 -1
q4 -1 10 -3q1 -1 2 -1t2 -1q3 -1 9 -5q2 -2 3 -2l1 -1q6 -4 10 -10zM126 6q-121 121 -121 292t121 292t292 121t292 -121t121 -292t-121 -292t-292 -121t-292 121zM191 525q-94 -94 -94 -227t94 -227t227 -94t227 94t94 227t-94 227t-227 94t-227 -94z" />
    <glyph glyph-name="Aacute" unicode="&#xc1;" 
d="M363 161l-151 186q-18 23 -15 51.5t26 46.5t51.5 15.5t46.5 -25.5l97 -119l97 119q18 23 46.5 25.5t51.5 -15.5t25.5 -46.5t-15.5 -51.5l-151 -186q-4 -6 -10 -10l-1 -1q-1 -1 -1.5 -1t-1.5 -1l-9 -6q-1 0 -2 -0.5t-2 -0.5q-4 -2 -10 -4q-2 0 -4 -1q-3 0 -6.5 -0.5
t-6.5 -0.5q-4 0 -7 0.5t-7 0.5q-1 1 -4 1q-6 2 -9 4q-2 0 -2.5 0.5t-2.5 0.5l-9 6q-1 1 -1.5 1t-1.5 1v1q-8 6 -11 10zM126 6q-121 121 -121 292t121 292t292 121t292 -121t121 -292t-121 -292t-292 -121t-292 121zM191 525q-94 -94 -94 -227t94 -227t227 -94t227 94t94 227
t-94 227t-227 94t-227 -94z" />
    <glyph glyph-name="Egrave" unicode="&#xc8;" 
d="M417 404q5 0 12 -1.5t32 -11t76 -29.5t144 -58q20 -8 28.5 -28.5t0.5 -40.5t-28 -28.5t-40 -0.5q-33 14 -67.5 27.5t-64.5 25.5t-54.5 22t-38.5 15q-14 -5 -38.5 -15t-55 -22t-64.5 -25.5t-67 -27.5q-20 -8 -40.5 0.5t-28.5 28.5t0.5 40.5t28.5 28.5q93 38 144 58
t76.5 29.5t32.5 11t12 1.5z" />
    <glyph glyph-name="Eacute" unicode="&#xc9;" 
d="M417 199q-5 0 -12 1.5t-32.5 11t-76.5 30t-144 58.5q-20 8 -28.5 28.5t-0.5 40.5t28.5 28t40.5 0q33 -13 67 -27t64.5 -26t55 -21.5t38.5 -14.5q14 5 38.5 14.5t54.5 21.5t64.5 26t67.5 27q20 8 40 0t28 -28t-0.5 -40.5t-28.5 -28.5q-93 -38 -144 -58.5t-76 -30t-32 -11
t-12 -1.5z" />
    <glyph glyph-name="agrave" unicode="&#xe0;" 
d="M220 274q-50 49 -50 117t50 116q51 48 122 48t121 -48t50 -116t-50 -117q-50 -47 -121 -47t-122 47zM281 449q-25 -25 -25 -58q0 -34 25 -58q26 -24 61 -24t60 24q26 24 26 58q0 33 -26 58q-25 24 -60 24t-61 -24zM685 -102h-686v41q0 109 96 178t247 69t247 -69t96 -178
v-41zM178 69q-67 -32 -86 -89h501q-20 57 -87 89q-68 34 -164 34t-164 -34zM748 339h-57v85h-85v57h85v85h57v-85h85v-57h-85v-85z" />
    <glyph glyph-name="aacute" unicode="&#xe1;" 
d="M224 -62q-79 82 -79 206v347q0 99 55 158t147 59q99 0 155 -69q49 -60 49 -148v-346q0 -59 -33 -101q-37 -47 -97 -47q-54 0 -90 36q-42 40 -42 112v233q0 19 14 32q13 13 32 13q18 0 31 -13q14 -13 14 -32v-233q0 -58 41 -58q40 0 40 58v346q0 43 -17 74q-29 52 -97 52
q-112 0 -112 -126v-347q0 -88 52 -143q52 -56 133 -56q78 0 132 56q53 55 53 136v259q0 19 13 32q14 14 32 14q19 0 32 -14q13 -13 13 -32v-259q0 -119 -79 -200q-80 -82 -196 -82q-117 0 -196 83z" />
    <glyph glyph-name="acircumflex" unicode="&#xe2;" 
d="M605.5 455.5q77.5 -77.5 77.5 -186.5q0 -110 -77.5 -187.5t-186.5 -77.5q-110 0 -187.5 77.5t-77.5 187.5q0 109 77.5 186.5t187.5 77.5q109 0 186.5 -77.5zM993 281l-169 -159v93h-113v132h113v92z" />
    <glyph glyph-name="atilde" unicode="&#xe3;" 
d="M605.5 455.5q77.5 -77.5 77.5 -186.5q0 -110 -77.5 -187.5t-186.5 -77.5q-110 0 -187.5 77.5t-77.5 187.5q0 109 77.5 186.5t187.5 77.5q109 0 186.5 -77.5z" />
    <glyph glyph-name="adieresis" unicode="&#xe4;" 
d="M298 180l341 344l89 -90l-341 -343zM742 626l89 -89l-77 -77l-89 89zM268 150l89 -90l-156 -67zM652 -19v241l36 38v-279q0 -32 -23 -55.5t-56 -23.5h-524q-33 0 -56 23.5t-23 55.5v525q0 32 23 55t56 23h487l-33 -36h-454q-18 0 -30.5 -12.5t-12.5 -29.5v-525
q0 -17 12.5 -30t30.5 -13h524q18 0 30.5 13t12.5 30z" />
    <glyph glyph-name="aring" unicode="&#xe5;" horiz-adv-x="838" 
d="M169 -131q-29 0 -49 21q-21 20 -21 49v630q0 29 21 49q20 21 49 21h70v35q0 14 10 25q11 10 25 10t25 -10q10 -11 10 -25v-35h70v35q0 14 10 25q11 10 25 10t25 -10q10 -11 10 -25v-35h70v35q0 14 10 25q11 10 25 10t25 -10q10 -11 10 -25v-35h70q29 0 49 -21
q21 -20 21 -49v-630q0 -29 -21 -49q-20 -21 -49 -21h-490zM169 569v-630h490v630h-70v-35q0 -15 -10 -25q-11 -10 -25 -10t-25 10q-10 10 -10 25v35h-70v-35q0 -15 -10 -25q-11 -10 -25 -10t-25 10q-10 10 -10 25v35h-70v-35q0 -15 -10 -25q-11 -10 -25 -10t-25 10
q-10 10 -10 25v35h-70zM247 47h331v83h-331v-83zM247 197h331v83h-331v-83zM247 357h331v83h-331v-83z" />
    <glyph glyph-name="ae" unicode="&#xe6;" horiz-adv-x="830" 
d="M83 25q-34 0 -58 25q-25 24 -25 58v374q0 34 25 59q24 24 58 24h664q35 0 59 -24q24 -25 24 -59v-374q0 -34 -24 -58q-24 -25 -59 -25h-664zM83 108h664v325l-310 -194q-10 -6 -22 -6t-22 6l-310 194v-325zM162 482l253 -159l254 159h-507z" />
    <glyph glyph-name="ccedilla" unicode="&#xe7;" 
d="M758 499q23 17 40.5 17t27 -10.5t8.5 -28t-16 -36.5q-2 -3 -13 -15.5t-26.5 -30.5t-35 -40t-39.5 -44q-46 -52 -104 -116q-14 -13 -30 -20q-14 -6 -29.5 -5t-31.5 17q-13 14 -15 28t2 27t11.5 23t13.5 16q23 23 59.5 57t73 67.5t66 60t38.5 33.5zM409 209q13 6 23.5 8.5
t17.5 2.5q9 0 15 -1q0 -7 3 -15q2 -8 6 -16.5t12 -17.5t17.5 -14.5t17.5 -8.5q9 -4 19 -6q-6 -19 -16 -36q-10 -15 -24.5 -28t-37.5 -19q-30 -8 -62.5 -5t-59.5 10q-32 7 -62 20q15 -1 30 3q13 3 26 10t22 21q9 15 14 29t10 26t11 21.5t18 15.5zM611 177q25 -23 40 -50
q13 -25 15.5 -54.5t-18.5 -62.5t-53 -55t-67.5 -35t-69.5 -18.5t-59 -4.5t-68.5 6t-92.5 20.5t-96.5 45.5t-80.5 81t-49 117t-10 136t37 139t93 127q39 37 73.5 58.5t64 33t53.5 14.5t43 3q12 0 33 -2.5t44 -11t45 -25t36 -45.5q14 -28 11 -57.5t-13.5 -57.5t-24.5 -53
t-21 -46q-7 -20 -9 -43t-2 -43q1 -23 4 -45q-18 0 -35 -3q-16 -3 -32 -9.5t-28 -18.5q-12 -13 -18.5 -27.5t-12 -28.5t-12.5 -25.5t-19 -18.5q-10 -6 -22.5 -9t-24 -5t-19.5 -4.5t-11 -8.5q-5 -8 11.5 -24.5t57.5 -27.5q19 -5 35 -8t27 -5q14 -2 25 -2q9 -18 23 -30
q13 -12 31.5 -16.5t45.5 4.5q27 10 37 26t12 31q2 18 -5 38q5 5 9 11t7.5 12t6.5 13q3 6 5.5 12t4.5 11l4 10zM345 551q-23 0 -38.5 -16t-15.5 -38q0 -23 15.5 -39t38.5 -16t38.5 16t15.5 39q0 22 -15.5 38t-38.5 16zM202 442q-26 0 -44.5 -18.5t-18.5 -44.5t18.5 -44.5
t44.5 -18.5t45 18.5t19 44.5t-19 44.5t-45 18.5zM139 184q0 -29 20.5 -49.5t49.5 -20.5t50 20.5t21 49.5t-21 50t-50 21t-49.5 -21t-20.5 -50z" />
    <glyph glyph-name="egrave" unicode="&#xe8;" 
d="M-3 669h834v-104h-834v104zM-3 461h521v-105h-521v105zM-3 252h521v-104h-521v104zM-3 44h834v-105h-834v105zM831 200l-209 104l209 104v-208z" />
    <glyph glyph-name="eacute" unicode="&#xe9;" 
d="M831 565h-834v104h834v-104zM831 356h-521v105h521v-105zM831 148h-521v104h521v-104zM831 -61h-834v105h834v-105zM-3 408l208 -104l-208 -104v208z" />
    <glyph glyph-name="ecircumflex" unicode="&#xea;" horiz-adv-x="846" 
d="M220 274q-50 49 -50 117t50 116q51 48 122 48t121 -48t50 -116t-50 -117q-50 -47 -121 -47t-122 47zM281 449q-25 -25 -25 -58q0 -34 25 -58q26 -24 61 -24t60 24q26 24 26 58q0 33 -26 58q-25 24 -60 24t-61 -24zM685 -102h-686v41q0 109 96 178t247 69t247 -69t96 -178
v-41zM178 69q-67 -32 -86 -89h501q-20 57 -87 89q-68 34 -164 34t-164 -34zM748 339h-57v85h-85v57h85v85h57v-85h85v-57h-85v-85z" />
    <glyph glyph-name="edieresis" unicode="&#xeb;" 
d="M606 422h227v60h-227v-60zM220 274q-50 49 -50 117t50 116q51 48 122 48t121 -48t50 -116t-50 -117q-50 -47 -121 -47t-122 47zM281 449q-25 -25 -25 -58q0 -34 25 -58q26 -24 61 -24t60 24q26 24 26 58q0 33 -26 58q-25 24 -60 24t-61 -24zM685 -102h-686v41
q0 109 96 178t247 69t247 -69t96 -178v-41zM178 69q-67 -32 -86 -89h501q-20 57 -87 89q-68 34 -164 34t-164 -34z" />
    <glyph glyph-name="igrave" unicode="&#xec;" 
d="M499 680l204 -221h-204v221zM453 413h273v-538h-619v830h346v-292zM416 -47l190 189h-112v157h-156v-157h-111z" />
    <glyph glyph-name="iacute" unicode="&#xed;" 
d="M833 514h-833v111h833v-111zM833 244h-833v111h833v-111zM833 -26h-833v111h833v-111z" />
    <glyph glyph-name="icircumflex" unicode="&#xee;" 
d="M417 624q86 0 161 -32.5t131 -88.5t88.5 -131t32.5 -161q0 -71 -22 -134t-62 -115l-657 -2q-41 52 -63 115.5t-22 135.5q0 86 32.5 161t88.5 131t131.5 88.5t160.5 32.5zM412 569q-28 0 -48 -19.5t-20 -47.5t20 -47.5t48 -19.5t47.5 19.5t19.5 47.5t-19.5 47.5
t-47.5 19.5zM126 144q28 0 47.5 19.5t19.5 47.5t-19.5 47.5t-47.5 19.5q-29 0 -48.5 -19.5t-19.5 -47.5t19.5 -47.5t48.5 -19.5zM210 343q28 0 47.5 19.5t19.5 47.5t-19.5 47.5t-47.5 19.5t-47.5 -19.5t-19.5 -47.5t19.5 -47.5t47.5 -19.5zM414 17q41 0 69 28t28 69
q0 29 -15.5 53t-41.5 35l57 189l-29 8l-57 -189q-3 0 -5.5 0.5t-5.5 0.5q-20 0 -37.5 -7.5t-31 -21t-21 -31t-7.5 -37.5q0 -41 28.5 -69t68.5 -28zM556 410q0 -28 19.5 -47.5t47.5 -19.5t47.5 19.5t19.5 47.5t-19.5 47.5t-47.5 19.5t-47.5 -19.5t-19.5 -47.5zM708 144
q28 0 47.5 19.5t19.5 47.5t-19.5 47.5t-47.5 19.5t-47.5 -19.5t-19.5 -47.5t19.5 -47.5t47.5 -19.5z" />
    <glyph glyph-name="idieresis" unicode="&#xef;" 
d="M337 259q-34 33 -34 81q0 47 34 80q33 33 80 33t80 -33q34 -33 34 -80q0 -48 -34 -81q-33 -33 -80 -33t-80 33zM377 380q-17 -17 -17 -40q0 -24 17 -41q16 -16 40 -16t40 16q17 17 17 41q0 23 -17 40q-16 16 -40 16t-40 -16zM190 36q4 72 67 117q63 44 160 44t160 -44
q63 -45 67 -117h-454zM308 117q-44 -23 -57 -62h332q-13 39 -57 62q-45 24 -109 24t-109 -24zM114 -40q-16 0 -27 12q-11 11 -11 26v304h-38q-16 0 -27 11t-11 27v75q0 24 21 34l379 190q8 4 17 4t17 -4l379 -190q21 -10 21 -34v-75q0 -16 -11 -27t-27 -11h-38v-304
q0 -15 -11 -26q-11 -12 -27 -12h-606zM682 36v304q0 15 11 26q12 11 27 11h38v15l-341 170l-341 -170v-15h38q15 0 27 -11q11 -11 11 -26v-304h530z" />
    <glyph glyph-name="ntilde" unicode="&#xf1;" 
d="M647 252h-275v92h275v-92zM464 344h-92v183h92v-183zM126 6q-121 121 -121 292t121 292t292 121t292 -121t121 -292t-121 -292t-292 -121t-292 121zM191 525q-94 -94 -94 -227t94 -227t227 -94t227 94t94 227t-94 227t-227 94t-227 -94z" />
    <glyph glyph-name="ograve" unicode="&#xf2;" 
d="M231 480q0 -8 -5 -13.5t-13 -5.5h-187q-8 0 -13.5 5.5t-5.5 13.5v187q0 8 5.5 13t13.5 5h187q8 0 13 -5t5 -13v-187zM231 185q0 -8 -5 -13t-13 -5h-187q-8 0 -13.5 5t-5.5 13v187q0 8 5.5 13t13.5 5h187q8 0 13 -5t5 -13v-187zM231 -110q0 -8 -5 -13t-13 -5h-187
q-8 0 -13.5 5t-5.5 13v187q0 8 5.5 13.5t13.5 5.5h187q8 0 13 -5.5t5 -13.5v-187zM529 480q0 -8 -5.5 -13.5t-13.5 -5.5h-187q-8 0 -13 5.5t-5 13.5v187q0 8 5 13t13 5h187q8 0 13.5 -5t5.5 -13v-187zM529 185q0 -8 -5.5 -13t-13.5 -5h-187q-8 0 -13 5t-5 13v187q0 8 5 13
t13 5h187q8 0 13.5 -5t5.5 -13v-187zM529 -110q0 -8 -5.5 -13t-13.5 -5h-187q-8 0 -13 5t-5 13v187q0 8 5 13.5t13 5.5h187q8 0 13.5 -5.5t5.5 -13.5v-187zM826 480q0 -8 -5 -13.5t-13 -5.5h-187q-8 0 -13.5 5.5t-5.5 13.5v187q0 8 5.5 13t13.5 5h187q8 0 13 -5t5 -13v-187z
M826 185q0 -8 -5 -13t-13 -5h-187q-8 0 -13.5 5t-5.5 13v187q0 8 5.5 13t13.5 5h187q8 0 13 -5t5 -13v-187zM826 -110q0 -8 -5 -13t-13 -5h-187q-8 0 -13.5 5t-5.5 13v187q0 8 5.5 13.5t13.5 5.5h187q8 0 13 -5.5t5 -13.5v-187z" />
    <glyph glyph-name="ugrave" unicode="&#xf9;" 
d="M33 704q9 0 16 -7l761 -764q7 -7 7 -16t-7 -15q-6 -6 -15 -6q-8 0 -16 6l-761 765q-7 6 -7 15t7 16zM547 237q-13 13 -13 32t13 32l168 168q27 27 27 65q0 37 -27 64t-64 27q-38 0 -65 -27l-168 -168q-13 -13 -32 -13t-33 13q-13 13 -13 32t13 32l169 169q53 53 129 53
q75 0 129 -53q53 -54 53 -129q0 -76 -53 -129l-169 -168q-13 -14 -32 -14t-32 14zM53 -64q-53 54 -53 129q0 76 53 129l169 169q13 13 32 13t32 -13q13 -14 13 -33t-13 -32l-168 -168q-27 -27 -27 -65q0 -37 27 -64t64 -27q38 0 65 27l168 168q13 14 32 14t33 -14
q13 -13 13 -32t-13 -32l-169 -169q-53 -53 -129 -53q-75 0 -129 53zM257 140q-14 13 -14 32t14 32l255 255q13 14 32 14t32 -14q14 -13 14 -32t-14 -32l-255 -255q-13 -14 -32 -14t-32 14zM43 714q9 0 16 -7l761 -764q7 -7 7 -16t-7 -15q-6 -6 -15 -6q-8 0 -16 6l-761 765
q-7 6 -7 15t7 16zM23 694q9 0 16 -7l761 -764q7 -7 7 -16t-7 -15q-6 -6 -15 -6q-8 0 -16 6l-761 765q-7 6 -7 15t7 16z" />
  </font>
</defs>
</svg>
