<?xml version="1.0" standalone="no"?>
<!DOCTYPE svg PUBLIC "-//W3C//DTD SVG 1.1//EN" "http://www.w3.org/Graphics/SVG/1.1/DTD/svg11.dtd" >
<svg xmlns="http://www.w3.org/2000/svg" xmlns:xlink="http://www.w3.org/1999/xlink" version="1.1">
<metadata>
Created by FontForge 20141024 at Mon Mar 14 16:28:27 2016
 By Jimmy Warting
</metadata>
<defs>
<font id="Untitled" horiz-adv-x="833" >
  <font-face 
    font-family="Untitled"
    font-weight="400"
    font-stretch="normal"
    units-per-em="1000"
    panose-1="0 0 0 0 0 0 0 0 0 0"
    ascent="750"
    descent="-250"
    x-height="591"
    cap-height="612"
    bbox="-10 -173 843 733"
    underline-thickness="50"
    underline-position="-50"
    unicode-range="U+001D-00F9"
  />
<missing-glyph horiz-adv-x="500" 
 />
    <glyph glyph-name=".notdef" horiz-adv-x="500" 
 />
    <glyph glyph-name=".null" horiz-adv-x="0" 
 />
    <glyph glyph-name=".null" horiz-adv-x="0" 
 />
    <glyph glyph-name="nonmarkingreturn" 
d="M416 694q85 0 160 -32.5t130.5 -88t88 -130.5t32.5 -160t-32.5 -159.5t-88 -130.5t-130.5 -88.5t-160 -32.5t-159.5 32.5t-130.5 88.5t-88.5 130.5t-32.5 159.5t32.5 160t88.5 130.5t130.5 88t159.5 32.5zM610 188l137 -95q24 42 37.5 90t13.5 100q0 54 -13.5 102.5
t-39.5 91.5l-136 -95q11 -23 17.5 -47.5t6.5 -51.5q0 -26 -6 -49.5t-17 -45.5zM229 283q0 -39 14.5 -73t40 -59.5t59.5 -40t73 -14.5t73.5 14.5t60 40t40 59.5t14.5 73t-14.5 73.5t-40 60t-60 40t-73.5 14.5t-73 -14.5t-59.5 -40t-40 -60t-14.5 -73.5zM593 622
q-40 21 -84.5 32.5t-92.5 11.5q-50 0 -96 -12t-87 -35l89 -141q44 22 94 22q46 0 89 -19zM85 473q-24 -42 -37.5 -90t-13.5 -100q0 -51 13 -97.5t36 -88.5l138 95q-21 42 -21 91t22 95zM231 -51q42 -23 88 -35.5t97 -12.5q49 0 94 12t85 33l-89 141q-42 -20 -90 -20
q-26 0 -50 6t-46 17z" />
    <glyph glyph-name="space" unicode=" " 
d="M827 270q4 -5 0 -15q-2 -2 -15 -21.5t-37.5 -47.5t-59.5 -59.5t-80 -58t-100 -44.5t-119 -18t-118.5 18t-99.5 44.5t-80 58t-59.5 59.5t-38 47.5t-14.5 21.5q-5 8 0 15q0 1 12 20t35 47t57 61t79.5 61t102.5 46.5t124 18.5q68 0 124.5 -18.5t102 -46.5t80 -61t57.5 -61
t35 -47t12 -20zM416 479q-34 0 -64.5 -13t-53 -35.5t-35.5 -53t-13 -64.5q0 -8 5 -12.5t12 -4.5q17 0 17 17q0 27 10.5 51t28.5 42t42 28.5t51 10.5q8 0 12.5 5t4.5 12t-4.5 12t-12.5 5zM416 36q80 0 145.5 30t114.5 69t79.5 76.5t40.5 52.5q-7 12 -26 37.5t-49 56t-71 60.5
t-94 50q32 -29 50.5 -68.5t18.5 -86.5q0 -43 -16.5 -81.5t-44.5 -66.5t-66 -44.5t-82 -16.5q-43 0 -81 16.5t-66 44.5t-44.5 66.5t-16.5 81.5q0 47 18.5 86.5t50.5 68.5q-52 -20 -93.5 -50t-71.5 -60.5t-49 -56t-26 -37.5q10 -15 40.5 -52.5t79 -76.5t114 -69t145.5 -30z
" />
    <glyph glyph-name="space" unicode="&#xa0;" 
d="M827 270q4 -5 0 -15q-2 -2 -15 -21.5t-37.5 -47.5t-59.5 -59.5t-80 -58t-100 -44.5t-119 -18t-118.5 18t-99.5 44.5t-80 58t-59.5 59.5t-38 47.5t-14.5 21.5q-5 8 0 15q0 1 12 20t35 47t57 61t79.5 61t102.5 46.5t124 18.5q68 0 124.5 -18.5t102 -46.5t80 -61t57.5 -61
t35 -47t12 -20zM416 479q-34 0 -64.5 -13t-53 -35.5t-35.5 -53t-13 -64.5q0 -8 5 -12.5t12 -4.5q17 0 17 17q0 27 10.5 51t28.5 42t42 28.5t51 10.5q8 0 12.5 5t4.5 12t-4.5 12t-12.5 5zM416 36q80 0 145.5 30t114.5 69t79.5 76.5t40.5 52.5q-7 12 -26 37.5t-49 56t-71 60.5
t-94 50q32 -29 50.5 -68.5t18.5 -86.5q0 -43 -16.5 -81.5t-44.5 -66.5t-66 -44.5t-82 -16.5q-43 0 -81 16.5t-66 44.5t-44.5 66.5t-16.5 81.5q0 47 18.5 86.5t50.5 68.5q-52 -20 -93.5 -50t-71.5 -60.5t-49 -56t-26 -37.5q10 -15 40.5 -52.5t79 -76.5t114 -69t145.5 -30z
" />
    <glyph glyph-name="exclam" unicode="!" 
d="M411 131q-28 0 -53 10q-25 9 -43 26q-19 17 -30 40q-11 22 -11 48v330q0 26 11 49q11 22 30 39q18 17 43 27t53 10t53 -10t44 -27t30 -39q10 -23 10 -49v-330q0 -26 -10 -48q-11 -23 -30 -40t-44 -26zM648 356v-76q0 -42 -14 -80q-15 -38 -40 -68q-26 -30 -60 -50
q-35 -21 -75 -28v-142h108v-33h-293v33h103v141q-41 7 -76 28q-35 20 -61 50t-40 68q-15 38 -15 81v76h45v-76q0 -39 15 -72q14 -34 40 -59q25 -26 59 -40q34 -15 73 -15t73 15q34 14 60 40q25 25 40 59q14 33 14 72v76h44z" />
    <glyph glyph-name="quotedbl" unicode="&#x22;" 
d="M548 255q0 -26 -11 -48q-11 -23 -29 -40q-19 -17 -44 -27q-26 -10 -54 -10q-20 0 -35 3q-16 2 -39 16l212 212v-106zM278 219q-2 8 -4 18q-2 9 -2 18v330q0 26 11 49q11 22 30 39q18 17 43 27t54 10q28 0 54 -10q25 -10 44 -27q18 -17 29 -39q11 -23 11 -49v-97zM217 159
q-15 26 -25 58q-10 31 -10 63v76h45v-76q0 -23 7 -46q7 -24 16 -43zM824 700q7 -6 7 -15q0 -10 -6 -16l-786 -784q-7 -7 -17 -7q-9 0 -15 6q-7 7 -7 16t7 16l786 784q6 7 16 7zM604 356h45v-76q0 -42 -14 -80q-15 -38 -40 -68q-26 -30 -61 -51t-76 -28v-142h109v-33h-109
h-82h-104v33h104v141q-26 5 -49 15q-24 10 -45 24l32 32q22 -14 48 -22q25 -8 54 -8q39 0 73 15q34 14 60 40q25 25 40 59t15 73v76z" />
    <glyph glyph-name="numbersign" unicode="#" 
d="M530 52q0 -20 -12 -34q-13 -14 -31 -14h-445q-17 0 -29 14q-13 14 -13 34v379q0 20 13 34q12 14 29 14h445q18 0 31 -14q12 -14 12 -34v-379zM600 286l233 147v-383l-233 140v96z" />
    <glyph glyph-name="dollar" unicode="$" 
d="M530 292v-247q0 -20 -12 -34q-13 -14 -31 -14h-251zM106 -3h-64q-17 0 -29 14q-13 14 -13 34v380q0 20 13 34q12 13 29 13h445q18 0 31 -13q12 -13 12 -38zM833 491v-494l-233 187v95zM826 655q7 -6 7 -15q0 -10 -7 -16l-787 -791q-6 -6 -16 -6q-9 0 -16 6q-7 7 -7 16
t7 16l787 790q7 7 16 7z" />
    <glyph glyph-name="percent" unicode="%" 
d="M559 652q57 0 107 -19q49 -20 86 -54q37 -35 59 -81q21 -46 21 -98v-276q0 -52 -21 -98q-22 -46 -59 -80t-86 -54q-50 -20 -107 -20h-285q-56 0 -105 20q-50 20 -87 54t-58 80q-22 46 -22 98v276q0 52 22 98q21 46 58 81q37 34 87 54q49 19 105 19h285zM695 442
q0 30 -22 51q-23 21 -55 21h-402q-32 0 -55 -21t-23 -51v-360q0 -29 23 -50q23 -22 55 -22h402q32 0 55 22q22 21 22 50v360z" />
    <glyph glyph-name="ampersand" unicode="&#x26;" 
d="M770 554q26 -32 42 -72t16 -82v-274q0 -52 -21 -97q-22 -46 -58 -80q-37 -34 -86 -54q-50 -19 -106 -19h-283q-39 0 -80 5q-41 6 -72 23l109 109h384q32 0 55 21q22 21 22 50v357q0 17 -7 30zM61 -29q-25 32 -41 73q-17 40 -17 82v274q0 52 21 98q21 45 58 79t87 54
q49 19 105 19h283q37 0 75 -8q37 -9 69 -30l-101 -99h-384q-32 0 -55 -21t-23 -51v-357q0 -8 2 -14q2 -7 5 -14zM824 672q7 -6 7 -15q0 -10 -7 -16l-785 -788q-7 -7 -16 -7q-10 0 -16 6q-7 7 -7 16t7 16l785 788q7 7 16 7z" />
    <glyph glyph-name="quotesingle" unicode="'" 
d="M818 -43q15 -16 15 -37t-15 -36t-36 -15t-36 15l-186 186q-1 1 -1 2l-1 1q-45 -32 -97 -50q-52 -19 -112 -19q-72 0 -135 28q-64 27 -111 74q-48 47 -75 111q-28 64 -28 136t28 136q27 63 75 111q47 47 111 75q63 27 135 27t136 -27q64 -28 111 -75q47 -48 75 -111
q27 -64 27 -136q0 -60 -18 -112q-19 -52 -51 -97q1 -1 2 -1l1 -1zM52 353q0 -62 24 -116q23 -54 63 -94q40 -41 94 -64q54 -24 116 -24t116 24q54 23 95 64q40 40 64 94q23 54 23 116q0 61 -23 116q-24 54 -64 94q-41 40 -95 64q-54 23 -116 23t-116 -23q-54 -24 -94 -64
t-63 -94zM513 304h-317v84h317v-84z" />
    <glyph glyph-name="parenleft" unicode="(" 
d="M818 -23q15 -16 15 -37t-15 -36t-36 -15t-36 15l-186 186q-1 1 -1 2l-1 1q-45 -32 -97 -50q-52 -19 -112 -19q-72 0 -135 28q-64 27 -111 74q-48 47 -75 111q-28 64 -28 136t28 136q27 63 75 111q47 47 111 75q63 27 135 27t136 -27q64 -28 111 -75q47 -48 75 -111
q27 -64 27 -136q0 -60 -18 -112q-19 -52 -51 -97q1 -1 2 -1l1 -1zM349 75q62 0 116 24q54 23 95 64q40 40 64 94q23 54 23 116q0 61 -23 116q-24 54 -64 94q-41 40 -95 64q-54 23 -116 23t-116 -23q-54 -24 -94 -64t-63 -94q-24 -55 -24 -116q0 -62 24 -116q23 -54 63 -94
q40 -41 94 -64zM396 408h117v-84h-117v-117h-83v117h-117v84h117v117h83v-117z" />
    <glyph glyph-name="parenright" unicode=")" 
d="M0 466v244h253v-79h-174v-165h-79zM590 710h243v-254h-79v175h-164v79zM754 -44v164h79v-243h-253v79h174zM79 130v-174h164v-79h-243v253h79z" />
    <glyph glyph-name="asterisk" unicode="*" 
d="M174 541v165h79v-244h-253v79h174zM669 531h164v-79h-243v254h79v-175zM580 -127v243h253v-79h-174v-164h-79zM0 47v79h243v-253h-79v174h-164z" />
    <glyph glyph-name="plus" unicode="+" 
d="M643 344v-97h-454v97h454zM465 519v-447h-98v447h98zM754 633h-675v-675h675v675zM832 708v-831h-832v831h832z" />
    <glyph glyph-name="comma" unicode="," 
d="M834 638v-639h-834v639h834zM417 119q41 0 77 16q36 15 63 42t43 63q15 36 15 77t-15 77q-16 36 -43 63t-63 43q-36 15 -77 15t-77 -15q-36 -16 -63 -43t-42 -63q-16 -36 -16 -77t16 -77q15 -36 42 -63t63 -42zM417 438q25 0 47 -9q22 -10 39 -26q16 -17 26 -39
q9 -22 9 -47t-9 -47q-10 -22 -26 -38q-17 -17 -39 -26q-22 -10 -47 -10t-47 10q-22 9 -38 26q-17 16 -26 38q-10 22 -10 47t10 47q9 22 26 39q16 16 38 26z" />
    <glyph glyph-name="hyphen" unicode="-" 
d="M323 133l315 314v-506l-236 192h-79zM638 578l-438 -438v298h202l236 209v-39v-30zM828 703q7 -6 7 -15q0 -10 -7 -16l-786 -787q-6 -7 -16 -7q-9 0 -16 6q-7 7 -7 16t7 16l786 787q7 7 16 7z" />
    <glyph glyph-name="period" unicode="." 
d="M-1 415h219l255 227v-766l-255 209h-219v330zM570 148q-7 0 -12 5t-5 13q0 7 5 12q20 19 30 44t10 52q0 50 -32 88q-5 5 -4 12t7 12q5 5 12 4t12 -6q19 -23 30 -51q10 -29 10 -59q0 -70 -51 -121zM630 50q-8 0 -12 6q-5 5 -5 12t5 12q38 38 59 88q20 49 20 103
q0 47 -16 92q-16 44 -46 80q-5 5 -4 12t6 12t12 4t12 -6q35 -42 53 -91q17 -50 17 -103q0 -62 -22 -117q-23 -55 -67 -98zM687 -56q-8 0 -13 5q-10 12 0 24q61 61 93 139q32 77 32 163q0 75 -25 145q-25 69 -73 127q-5 5 -4 12t6 12q13 10 25 -2q51 -63 79 -138
q27 -75 27 -156q0 -93 -34 -176q-35 -84 -101 -150z" />
    <glyph glyph-name="slash" unicode="/" 
d="M837 -124h-837v837h837v-837z" />
    <glyph glyph-name="zero" unicode="0" 
d="M736 419v-541h-639v831h365zM474 432h189l-189 199v-199zM692 388h-262v277h-289v-743h551v466zM224 261q0 25 12 42q11 16 28 16h308q17 0 29 -16q11 -17 11 -42v-215q0 -25 -11 -41q-12 -16 -29 -16h-308q-17 0 -28 16q-12 16 -12 41v215zM491 260q-17 0 -28 -11
q-12 -12 -12 -29t12 -29q11 -12 28 -12t29 12t12 29t-12 29zM271 99q-2 -16 -2 -29q0 -11 1 -23t5 -18q2 -4 8 -5q6 -2 13 -3l16 -2h31h7h116h52q9 0 17 1q7 1 14 4q7 2 12 7q8 11 6 20q-1 5 -3 10q-6 14 -14 25q-8 9 -18 17q-11 8 -26 8q-17 0 -39 -10q-23 -10 -45 -24
q-10 11 -21 24q-12 12 -24 22q-13 10 -24 17q-12 6 -22 6q-14 0 -24 -7q-11 -8 -19 -17z" />
    <glyph glyph-name="one" unicode="1" 
d="M738 417v-541h-640v133h-62q-13 0 -21 10q-9 10 -9 25v215q0 14 9 25q8 10 21 10h62v413h365zM476 430h189l-189 200v-200zM121 127q3 -1 13 -1q36 0 56 18q16 16 16 42t-18 39q-17 14 -53 14q-35 0 -53 -3v-171h39v62zM694 386h-262v277h-290v-369h419q12 0 21 -10
q9 -11 9 -25v-215q0 -15 -9 -25t-21 -10h-419v-89h552v466zM231 66q8 -1 19 -2q10 -1 25 -1q52 0 80 23q12 11 21 28q8 17 8 42q0 23 -8 39q-8 15 -22 26q-12 9 -28 14q-17 4 -42 4q-32 0 -53 -3v-170zM448 166v40h67v32h-106v-173h39v70h62v31h-62zM137 210q30 0 30 -26
q0 -28 -33 -28q-10 0 -13 1v51zM288 209q25 0 40 -14q14 -14 14 -41q0 -31 -16 -45q-16 -15 -42 -15h-8q-4 0 -6 1v113q2 0 7 1h11z" />
    <glyph glyph-name="two" unicode="2" 
d="M737 419v-542h-641v832h366zM474 432h190l-190 200v-200zM693 388h-263v277h-289v-744h552v467zM425 278h70v-137l45 79q2 3 3 7q1 6 -3 12q-5 3 -11 3h-7v36h115v-36q-5 0 -9 -1l-8 -2q-5 -2 -7 -6q-2 -3 -8 -14q-7 -12 -16 -30q-10 -18 -21 -40t-23 -45
q-27 -54 -61 -120h-76v133l-70 -133h-66v225q1 6 0 11l-2 10q-2 4 -6 7q-3 2 -8 3q-5 0 -10 1t-11 1v36h140v-36h-13l-10 -2q-6 -1 -10 -5q-3 -3 -4 -7l-2 -8q-1 -4 0 -9v-70z" />
    <glyph glyph-name="three" unicode="3" 
d="M737 416v-541h-640v831h365zM474 429h189l-189 200v-200zM692 385h-262v277h-289v-743h551v466zM420 249l40 39q1 2 5 2h132q4 0 6 -3q2 -5 -1 -8l-96 -122h91q6 0 6 -6l1 -35q1 -2 -1 -4l-26 -32l24 -18q3 -3 3 -6l-1 -39q0 -6 -6 -6h-111q-3 0 -4 1l-16 17h-225h-1
q-4 0 -6 5q-1 1 -1 3q0 1 2 4l7 7l12 12l41 41q17 17 33 32l22 22l-109 124q-3 3 -1 7q1 4 6 4h139q4 0 6 -2zM303 273h-25l219 -243h22z" />
    <glyph glyph-name="four" unicode="4" 
d="M737 419v-542h-641v833h366zM474 432h190l-190 200v-200zM693 388h-263v278h-290v-745h553v467zM289 296q26 -6 53 -11l54 -12q29 -6 57 -11q28 -6 56 -13q19 -5 36 -13q16 -9 25 -28q6 -11 9 -23t5 -24q2 -9 2 -18q-1 -10 -3 -18q-3 -19 -15 -31t-29 -17q-18 -5 -36 -8
q-19 -3 -39 -7l-10 4q-6 2 -10 5q-10 8 -6 20q3 11 14 13q10 2 20 3l20 2q38 5 34 42q0 6 -1 12q-1 5 -3 11q-5 16 -16 23t-25 9q-35 5 -71 10q-36 4 -71 9l-34 6q-18 2 -35 7q-13 4 -18 16q-6 11 -3 22q4 12 15 18zM397 146q5 -29 12 -58q7 -30 13 -60q3 -12 -1 -24
t-13 -21q-9 -8 -21 -13q-12 -4 -25 -2q-42 6 -51 46l-16 66q-9 32 -17 64q-2 5 -2 10q0 4 -1 9q0 17 10 28q9 10 26 13q15 3 29 -1t26 -12q12 -9 20 -20z" />
    <glyph glyph-name="five" unicode="5" 
d="M738 418v-542h-641v133h-62q-13 0 -22 11q-9 10 -9 24v216q0 14 9 25q9 10 22 10h62v414h366zM475 431h190l-190 200v-200zM97 64h136v33h-83v1l82 118v23h-127v-33h75v-1l-83 -119v-22zM694 387h-263v278h-290v-370h419q13 0 22 -10q9 -11 9 -25v-216q0 -14 -9 -24
q-9 -11 -22 -11h-419v-89h553v467zM323 64v175h-40v-175h40zM418 64v63q3 -1 13 -1q36 0 57 18q16 16 16 42q0 27 -19 40q-15 14 -53 14q-35 0 -53 -3v-173h39zM465 185q0 -29 -34 -29q-5 0 -8 1h-5v52q6 2 16 2z" />
    <glyph glyph-name="six" unicode="6" 
d="M817 -51q14 -13 14 -32q0 -18 -14 -32q-13 -13 -32 -13t-32 13l-254 254q-1 1 -1 2l-1 1q-39 -29 -85 -45q-47 -16 -100 -16q-64 0 -120 24t-98 66t-66 99q-25 56 -25 120t25 120q24 56 66 98t98 67q56 24 120 24t121 -24q56 -25 98 -67t66 -98t24 -120q0 -52 -16 -99
t-45 -86q1 -1 2 -1l1 -1zM49 390q0 -55 21 -103q20 -48 56 -84t84 -56q48 -21 102 -21q55 0 103 21q48 20 84 56t57 84q20 48 20 103q0 54 -20 102q-21 48 -57 84t-84 57q-48 20 -103 20q-54 0 -102 -20q-48 -21 -84 -57t-56 -84z" />
    <glyph glyph-name="seven" unicode="7" 
d="M36 -72q8 2 17 3q9 2 20 3q20 4 37 8q16 4 30 9q8 13 11 28q2 18 4 44q1 26 1 61l-1 270q-1 21 -2 75t-3 143q-2 48 -6 60q-1 2 -2 3q-2 1 -4 3q-12 7 -38 8q-6 1 -21 3q-16 1 -41 4l-2 45l141 3l206 8h24q4 0 8 1h8h11q8 -1 22 -1h40q47 0 104 -15q19 -4 52 -21
q16 -8 30 -18q13 -11 25 -23q25 -26 35 -56q12 -32 12 -66q0 -39 -18 -70q-17 -30 -51 -57q-16 -12 -81 -41q96 -23 144 -80q50 -58 50 -127q0 -42 -15 -88q-13 -35 -39 -63q-37 -40 -76 -59q-40 -20 -110 -32q-18 -4 -44 -6q-27 -2 -63 0l-107 2q-35 1 -74 -1
q-40 -2 -87 -5q-14 -2 -50 -3q-37 -1 -98 -3zM387 355q96 0 144 35q48 37 48 122q0 61 -46 101q-47 41 -139 41q-13 0 -30 -1q-18 -2 -40 -6v-18q0 -10 1 -24q2 -27 3 -64q1 -38 0 -87v-53v-42q13 -2 28 -3zM412 -63q70 0 117 22q46 23 66 62q21 39 21 98q0 62 -23 97
q-32 51 -76 69q-43 17 -134 17q-37 0 -55 -5v-78v-94l1 -147q0 -7 7 -23z" />
    <glyph glyph-name="eight" unicode="8" 
d="M149 -75q7 2 18 4q10 3 24 7q40 10 62 21q15 18 23 55l14 75l30 145l7 34q12 64 22 96q9 32 9 34l16 85l9 34l12 73l4 27v20q-11 7 -30 11q-20 3 -48 5q-11 0 -21 2l11 55l171 -7q16 -1 26 -1h13q18 0 47 1t69 4q45 3 56 3q-1 -6 -1 -10l-2 -10t-3 -12t-4 -16
q-13 -5 -27 -9q-15 -4 -32 -7q-16 -5 -29 -8q-14 -4 -25 -9q-7 -15 -13 -48q-3 -14 -4 -25q-2 -11 -3 -19q-24 -108 -36 -165l-33 -169l-21 -85l-23 -127l-6 -24q-2 -5 0 -15q17 -4 34 -7q16 -2 31 -4q2 -1 11 -2t24 -4q0 -9 -1 -17t-3 -14q-1 -4 -1 -9q-1 -5 -3 -13
q-10 0 -13 -1q-10 -1 -15 -1h-8h-6q-4 1 -9 2q-4 1 -23 3q-20 2 -55 6l-107 1q-16 1 -39 -1t-55 -5q-20 -2 -33 -3q-14 -1 -20 -2z" />
    <glyph glyph-name="nine" unicode="9" 
d="M2 660l-1 48q5 1 11 1h10q29 0 61 -3q38 -2 61 -3q22 -1 29 -1q23 0 46 1q22 0 45 1q22 1 42 2q20 0 37 1h29q12 0 18 1l-1 -8l1 -34v-5q-16 -2 -32 -3q-17 -2 -35 -2q-33 0 -43 -14q-7 -9 -7 -71q0 -10 1 -17v-15v-124l8 -152q3 -67 28 -109q18 -31 52 -50
q47 -25 96 -25q55 0 103 15q14 5 28 11q13 6 26 16q27 21 35 35q11 17 18 33q6 15 11 29q11 42 11 124q0 36 -1 59q-1 22 -3 43q-3 21 -5 48q-3 26 -6 72l-2 32q-3 37 -13 48q-19 19 -42 18l-54 -1l-8 2l1 47h46l111 -6q28 -2 54 1q26 2 52 5l10 -1q3 -21 3 -28v-8
q-1 -4 -2 -9q-11 -3 -22 -4q-12 -2 -23 -3q-40 -6 -43 -9q-8 -8 -8 -22q0 -5 1 -13v-19q1 -6 3 -31q2 -21 4 -64t5 -120q2 -61 0 -102q-3 -42 -8 -62q-4 -21 -9 -37q-6 -17 -13 -29q-21 -36 -61 -67q-39 -30 -98 -48q-60 -18 -139 -18q-91 0 -154 25q-64 26 -97 66
q-16 20 -27 47q-12 26 -18 58q-5 23 -6 55q-2 32 -2 74v180q0 101 -10 116q-13 19 -79 21q-8 1 -14 1zM833 -71v-35q0 -7 -4 -12q-5 -5 -13 -5h-798q-8 0 -12 5q-5 5 -5 12v35q0 17 17 17h798q17 0 17 -17z" />
    <glyph glyph-name="colon" unicode=":" 
d="M580 508h-581v105h581v-105zM835 297h-836v105h836v-105zM703 86h-704v106h704v-106zM835 -124h-836v105h836v-105z" />
    <glyph glyph-name="semicolon" unicode=";" 
d="M587 581v-100h-353v100h353zM751 380v-101h-681v101h681zM645 77h-470v101h470v-101zM0 -24h833v-101h-833v101z" />
    <glyph glyph-name="less" unicode="&#x3c;" 
d="M677 -121l-521 361v110l521 362v-176l-358 -241l358 -241v-175z" />
    <glyph glyph-name="equal" unicode="=" 
d="M254 506v104h579v-104h-579zM0 296v105h833v-105h-833zM131 86v105h702v-105h-702zM0 -124v105h833v-105h-833z" />
    <glyph glyph-name="greater" unicode="&#x3e;" 
d="M156 710l521 -361v-111l-521 -361v176l358 240l-358 241v176z" />
    <glyph glyph-name="question" unicode="?" 
d="M833 489h-588v114h588v-114zM833 259h-588v114h588v-114zM833 32h-588v114h588v-114zM179 546q0 -37 -26 -63t-64 -26q-37 0 -63 26t-26 63t26 63t63 26q38 0 64 -26zM179 316q0 -37 -26 -63t-64 -26q-37 0 -63 26t-26 63q0 38 26 64t63 26q38 0 64 -26zM179 89
q0 -38 -26 -64t-64 -26q-37 0 -63 26t-26 64q0 37 26 63t63 26q38 0 64 -26z" />
    <glyph glyph-name="at" unicode="@" 
d="M162 203h-158q-3 12 -3 24q0 30 16 49q15 18 34 32q18 13 34 24q15 10 15 24q0 11 -6 17q-7 6 -18 6t-20 -8q-10 -8 -15 -17l-37 25q11 23 32 35q20 12 45 12q30 0 53 -17q22 -18 22 -50q0 -24 -14 -40q-15 -16 -33 -28l-33 -22q-15 -10 -16 -23h56v26h46v-69zM78 -76
q-21 0 -41 7t-34 22l25 38q8 -8 21 -14q12 -6 25 -6q11 0 21 6t10 19q0 9 -4 15q-5 5 -12 8q-7 2 -15 2h-15l-11 24q12 15 24 31q11 15 25 28v1h-21q-10 -1 -21 -1v-23h-47v66h146v-38l-42 -50q22 -5 36 -21q13 -16 13 -39q0 -36 -24 -56zM162 500h-146v43h47v106v5h-1
q-4 -8 -9 -13q-6 -5 -13 -11l-31 34l60 55h46v-176h47v-43zM833 493h-588v114h588v-114zM833 263h-588v114h588v-114zM833 36h-588v113h588v-113z" />
    <glyph glyph-name="A" unicode="A" 
d="M35 630q8 4 20 4h727q12 0 21 -4l-384 -381zM835 54q0 -3 -2 -9l-282 280l280 277q4 -8 4 -21v-527zM811 11q-15 -10 -29 -10h-727q-15 0 -28 10l287 285l105 -103l104 103zM286 325l-282 -280q-2 6 -2 9v527q0 6 1 11t3 10z" />
    <glyph glyph-name="B" unicode="B" 
d="M501 681l208 -221h-208v221zM455 413h277v-538h-629v831h352v-293z" />
    <glyph glyph-name="C" unicode="C" 
d="M699.5 609.5q121.5 -123.5 121.5 -298.5q0 -174 -121.5 -297.5t-294.5 -123.5q-172 0 -293.5 123.5t-121.5 297.5q0 175 121.5 298.5t293.5 123.5q173 0 294.5 -123.5z" />
    <glyph glyph-name="D" unicode="D" 
d="M604 128q16 -8 38 -29q21 -21 41 -43q23 -26 46 -56h-268v76h-80v-76h-268q20 30 39 56q17 22 36 43q18 21 35 29q13 6 40 11q26 4 52 7q31 4 66 5v-37h80v37q31 -1 59 -5q23 -3 47 -7zM461 151h-80v28q-21 10 -41 28t-35 43q-16 25 -25 55q-10 29 -10 62q0 36 6 64
q6 27 17 47q10 20 23 34q12 13 26 21q32 19 72 20q40 -1 72 -21q13 -9 26 -22q13 -14 24 -34q10 -21 16 -49q6 -29 6 -66q0 -24 -7 -51q-8 -27 -21 -52q-13 -26 -31 -47t-38 -32v-28zM127 175h-129q4 26 9 48q5 19 12 36t18 22q8 4 23 7l30 4q18 2 37 3v19q-13 7 -24 20
t-19 29q-9 15 -13 32q-5 17 -5 32q0 47 14 72q14 24 31 35q19 12 45 13q25 -1 45 -13q17 -11 31 -34q14 -24 14 -69q0 -41 -21 -73q-22 -32 -48 -44v-19q17 -1 34 -3q14 -2 29 -4q14 -2 22 -6q1 -6 3 -12q2 -5 4 -12t5 -15q3 -10 12 -21q9 -12 19 -23q11 -12 24 -24h-152
h-50zM570 275q8 4 22 7l28 4q17 2 35 3v18q-27 12 -48 44q-22 31 -22 73q0 45 14 69q14 23 31 34q19 12 45 13q25 -1 45 -13q17 -11 31 -35q14 -25 14 -72q0 -15 -5 -31q-5 -17 -13 -33t-19 -29t-24 -20v-18q19 -1 37 -3l30 -4q15 -3 23 -7q10 -5 18 -22q7 -17 12 -36
q5 -22 9 -48h-129h-49h-153q13 12 24 24q10 11 19 23q8 11 12 21q5 14 9 26z" />
    <glyph glyph-name="E" unicode="E" 
d="M832 13q6 -17 -12 -45t-53 -60q-18 -16 -46 -25q-29 -9 -61 -9t-63 10q-32 11 -55 33q-17 16 -55 51t-86 80q-48 44 -101 93q-54 49 -102 94q-49 44 -87 79t-56 51q-24 21 -37 52q-13 30 -16 62t4 61q6 29 21 48q29 38 56 58q26 20 43 16q9 -2 28 -16q18 -15 37 -32
q22 -19 48 -44q20 -18 36 -35q14 -14 26 -29q12 -16 14 -27t-3 -19q-6 -9 -15 -17q-10 -9 -22 -19t-22 -22q-6 -7 -11 -16q-6 -10 -7 -22q-1 -13 5 -28t23 -32l202 -185q18 -15 33 -20t28 -3q12 2 22 9q9 6 15 12q12 12 21 25q8 12 16 23q7 10 15 16t19 5q11 -2 27 -13
t32 -23q18 -15 38 -32q27 -24 48 -44q18 -17 34 -35z" />
    <glyph glyph-name="F" unicode="F" 
d="M835 35h-365v-109h159v-50h-417v50h153v109h-364v568h834v-568zM40 564v-489h755v489h-755z" />
    <glyph glyph-name="G" unicode="G" 
d="M58 -123l42 172q-49 46 -75 102q-26 55 -26 115q0 69 33 129t90 105q56 45 132 71t162 26t162 -26t133 -71q56 -45 89 -105t33 -129t-33 -129q-33 -61 -89 -106q-57 -45 -133 -71t-162 -26q-44 0 -86 7t-82 21z" />
    <glyph glyph-name="H" unicode="H" 
d="M163 -1v249h509v-249h-509zM773 250l-355 339v0l-1 1v-1l-355 -339h711z" />
    <glyph glyph-name="I" unicode="I" 
d="M833 507h-834v105h834v-105zM833 297h-834v105h834v-105zM833 87h-834v105h834v-105zM833 -124h-834v105h834v-105z" />
    <glyph glyph-name="J" unicode="J" 
d="M832 232q0 -6 -4 -11q-5 -6 -12 -8l-100 -15q-8 -27 -21 -49q14 -20 29 -38q14 -19 29 -37q6 -8 6 -13q0 -6 -5 -13q-5 -6 -19 -22q-15 -16 -31 -33q-17 -16 -32 -29q-16 -13 -23 -13q-3 0 -6 1l-8 4l-74 59q-12 -7 -24 -11q-13 -5 -25 -10q-3 -25 -6 -51q-3 -25 -10 -49
q-4 -16 -19 -16h-120q-8 0 -13 5q-6 5 -7 12l-15 99q-13 5 -25 10q-12 4 -24 10l-76 -58q-5 -5 -13 -5q-6 0 -14 6q-21 20 -46 44q-26 24 -43 47q-4 8 -4 13t5 12q14 19 29 37q14 18 28 37q-8 13 -13 26t-10 27l-99 15q-15 3 -15 20v119q0 16 14 20l101 15q8 27 21 50
q-14 20 -28 38l-30 36q-5 7 -5 13t5 13q5 6 19 22t31 33q16 16 32 29q15 12 22 12t14 -5l74 -58q23 11 50 21q2 25 6 51q3 25 9 49q3 15 20 15h120q7 0 13 -4q5 -5 6 -12l15 -99q13 -5 25 -9q12 -5 24 -11l76 57q5 5 13 5q7 0 14 -5q22 -20 47 -44t42 -48q4 -4 4 -12
q0 -4 -1 -6q-1 -3 -3 -6q-14 -19 -28 -37q-15 -18 -29 -37q7 -13 13 -26q5 -13 9 -27l99 -15q16 -4 16 -20v-120zM417 432q-29 0 -54 -11t-44 -30t-30 -44q-11 -26 -11 -54q0 -29 11 -54t30 -43q19 -19 44 -30t54 -11q28 0 54 11q25 11 44 30q18 18 29 43t11 54q0 28 -11 54
q-11 25 -29 44q-19 19 -44 30z" />
    <glyph glyph-name="K" unicode="K" 
d="M834 -124h-834v707h366v-94h468v-613z" />
    <glyph glyph-name="L" unicode="L" 
d="M438 -121v61h-64v-61h-219q15 24 31 45q14 18 30 35q15 16 28 23q11 5 33 8q21 4 43 6q25 3 54 4v-29h64v29q26 -1 49 -4q19 -2 39 -6q19 -3 30 -8q13 -7 30 -23q17 -17 33 -35q18 -21 38 -45h-219zM438 0h-64v22q-4 3 -9 6q-22 12 -40 34q-19 21 -30 50q-12 28 -12 61
q0 58 18 89q18 30 40 43l59 16q33 0 58 -17q22 -14 41 -45q19 -32 19 -92q0 -22 -9 -48q-10 -27 -25 -50t-35 -38q-5 -5 -11 -8v-23zM286 74q3 -8 11 -17l14 -18l20 -20h-124h-41h-104q4 22 8 39q3 15 9 28t15 18q6 3 19 4q11 2 23 4q15 2 30 3v15q-10 6 -19 16t-15 23
q-7 12 -11 26t-4 25q0 37 12 58q11 20 25 28q16 10 36 10t36 -10q14 -8 26 -27q12 -20 12 -55q0 -33 -18 -58q-17 -26 -39 -36v-15q14 -1 28 -3q11 -2 23 -3q11 -2 18 -4q1 -5 3 -10q2 -4 4 -10zM710 99q8 -5 15 -18q6 -14 9 -29q4 -17 8 -38h-105h-40l-124 1q9 8 19 18
q7 8 15 18t11 17q1 7 3 12q1 5 3 10q2 4 3 9q7 3 18 5l23 3q14 2 29 3v14q-22 11 -39 36q-18 25 -18 58q0 36 11 55t25 27q16 11 37 11q20 0 36 -11q14 -8 26 -28q12 -19 12 -57q0 -12 -4 -25q-4 -14 -11 -26q-6 -13 -15 -24q-10 -10 -20 -16v-14q15 -1 30 -3q12 -1 24 -3z
M469 691v-334h-130v334h130zM573 586v-121h-345v121h345zM374 -122v123h66v-123h-66z" />
    <glyph glyph-name="M" unicode="M" 
d="M33 400q8 4 20 4h729q12 0 21 -4l-385 -316zM835 -78q0 -2 -2 -8l-282 232l280 231q4 -7 4 -17v-438zM811 -114q-14 -8 -29 -8h-729q-15 0 -28 8l288 237l105 -86l104 86zM285 146l-283 -232q-2 6 -2 8v438q0 7 4 17zM575 553h-92v-106h-130v106h-93l158 158z" />
    <glyph glyph-name="N" unicode="N" 
d="M33 398q8 4 20 4h729q12 0 21 -4l-385 -316zM835 -80q0 -2 -2 -8l-282 232l280 231q4 -7 4 -17v-438zM811 -116q-14 -8 -29 -8h-729q-15 0 -28 8l288 237l105 -86l104 86zM285 144l-283 -232q-2 6 -2 8v438q0 7 4 17zM260 602h92v107h131v-107h92l-158 -157z" />
    <glyph glyph-name="O" unicode="O" 
d="M492 354l187 -176h-187v176zM450 141h250v-264h-566v497h316v-233zM417 710l158 -158h-92v-107h-132v107h-93z" />
    <glyph glyph-name="P" unicode="P" 
d="M492 354l187 -176h-187v176zM450 141h250v-264h-566v497h316v-233zM417 445l-159 158h93v107h131v-107h93z" />
    <glyph glyph-name="Q" unicode="Q" 
d="M533 -81q-17 16 -54 51t-84 79q-48 43 -100 92q-53 48 -101 92q-48 43 -85 77q-38 34 -56 50q-23 21 -35 51q-13 29 -16 61q-3 31 4 60q6 29 21 47q29 38 55 58q25 20 42 15q8 -2 27 -16q18 -14 37 -31q22 -19 47 -43q19 -18 35 -35q14 -14 26 -29t14 -26q2 -10 -3 -18
q-6 -9 -15 -17q-10 -9 -21 -18q-12 -10 -22 -22q-6 -7 -11 -16q-6 -10 -7 -22t5 -27q5 -15 22 -31l199 -183q18 -15 33 -19q14 -5 26 -3t22 9q9 6 15 12q12 11 21 24q8 12 16 22q7 10 15 16q7 6 18 5q11 -2 28 -12q16 -10 31 -22q18 -14 37 -32q26 -23 47 -43q18 -17 34 -34
q15 -18 18 -26q5 -17 -12 -45q-17 -27 -52 -59q-17 -16 -45 -25q-29 -8 -60 -8q-32 0 -63 10zM725 653v-92h107v-132h-107v-93l-159 159z" />
    <glyph glyph-name="R" unicode="R" 
d="M542 -81q-17 16 -55 51q-38 36 -86 81q-49 45 -103 94t-102 94q-49 45 -87 80q-39 34 -57 50q-24 21 -37 52q-13 30 -16 62q-2 32 5 62q6 29 21 48q29 38 56 59q26 20 43 16q8 -2 27 -17q19 -16 39 -32q23 -20 48 -44q20 -18 36 -35q14 -14 26 -29q12 -16 14 -27t-3 -19
q-6 -9 -16 -18t-22 -18q-12 -10 -22 -22q-6 -7 -11 -17q-6 -10 -6 -22q-1 -13 5 -28q5 -15 22 -32l203 -186q18 -15 33 -20t28 -3q12 2 22 9q9 6 16 13q12 11 21 24q8 12 16 23q7 10 15 16t19 5q11 -2 28 -12q16 -10 32 -23q18 -15 38 -33q27 -24 48 -44q18 -17 34 -35
t19 -26q6 -17 -12 -45t-53 -61q-18 -16 -47 -25t-61 -9t-63 10zM823 475q1 -1 1 -2t-1 -2l-40 -40h-1q0 -1 -1 -1l-1 1l-75 75l-74 -75l-2 -1l-1 1l-40 40q-1 1 -1 2t1 2l74 74l-74 75q-1 1 -1 2l1 1l40 41q1 1 3 0l74 -75l75 75q1 1 3 0l40 -41q1 0 1 -1t-1 -2l-74 -75z
" />
    <glyph glyph-name="S" unicode="S" 
d="M529 -85q-17 16 -54 51t-84 79q-48 43 -100 92q-53 48 -101 92q-48 43 -85 77q-38 34 -56 50q-23 21 -35 51q-13 29 -16 61q-3 31 4 60q6 29 21 47q29 38 55 58q25 20 42 15q8 -2 27 -16q18 -14 37 -31q22 -19 47 -43q19 -18 35 -35q14 -14 26 -29t14 -26q2 -10 -3 -18
q-6 -9 -15 -17q-10 -9 -21 -18q-12 -10 -22 -22q-6 -7 -11 -16q-6 -10 -7 -22t5 -27q5 -15 22 -31l199 -183q18 -15 33 -19q14 -5 26 -3t22 9q9 6 15 12q12 11 21 24q8 12 16 22q7 10 15 16q7 6 18 5q11 -2 28 -12q16 -10 31 -22q18 -14 37 -32q26 -23 47 -43q18 -17 34 -34
q15 -18 18 -26q5 -17 -12 -45q-17 -27 -52 -59q-17 -16 -45 -25q-29 -8 -60 -8q-32 0 -63 10zM670 332v92h-108v132h108v93l158 -159z" />
    <glyph glyph-name="T" unicode="T" 
d="M446 -123v65h-67v-65h-230q16 26 33 48q14 19 31 37q16 18 30 25q11 5 34 9q22 4 45 6q26 3 57 4v-31h67v31q27 -1 51 -4q20 -2 41 -6q20 -4 31 -9q14 -7 32 -25q17 -18 34 -37q19 -22 40 -48h-229zM446 6h-67v24l-10 6q-23 13 -42 36t-31 54q-13 30 -13 65q0 62 19 95
q19 32 42 46l62 17q34 0 61 -18q23 -15 43 -48q19 -34 19 -98q0 -24 -9 -52q-10 -29 -26 -53q-16 -25 -37 -41q-5 -5 -11 -8v-25zM287 85q3 -8 11 -18q7 -10 15 -19q10 -11 21 -21h-130h-43h-109q4 23 8 41q4 16 10 30t15 19q7 3 20 5q12 2 25 4q15 2 31 3v16q-11 6 -20 17
t-16 25q-7 13 -11 28q-4 14 -4 26q0 40 12 62q12 21 26 30q17 11 38 11t38 -11q14 -9 27 -29q12 -21 12 -59q0 -35 -18 -62t-41 -38v-16q15 -1 29 -3q12 -2 24 -3q12 -2 19 -5q1 -5 3 -10t4 -11zM731 112q8 -5 15 -19q6 -15 10 -31q4 -18 8 -41h-110h-42l-130 1q10 9 20 20
q8 8 16 19q8 10 11 18q2 7 4 13q1 5 3 10t3 10q7 3 19 5l24 4q14 2 30 3v15q-23 11 -41 38q-19 27 -19 62q0 38 12 59q12 20 26 29q17 11 39 11q21 0 38 -11q14 -9 27 -30q12 -21 12 -61q0 -13 -4 -27q-4 -15 -11 -28q-7 -14 -16 -25q-10 -11 -21 -17v-15q16 -1 31 -3l26 -4
zM239 421q-10 9 -35 33q-26 23 -54 50q-29 26 -55 50q-26 23 -36 32q-9 7 -13 19q-5 11 -6 23q-1 11 2 22q2 11 7 18q11 14 21 22q9 7 16 5q3 -1 10 -6q6 -6 13 -12l18 -16l13 -13l10 -10q4 -6 5 -10q2 -8 -6 -13q-9 -6 -17 -16q-4 -5 -6 -14q-3 -9 10 -22l74 -68
q14 -11 23 -8q8 3 13 8q9 8 14 17q4 9 12 8q4 -1 10 -4q6 -4 12 -9q7 -5 14 -12q10 -8 18 -16l13 -13q5 -7 6 -10q2 -6 -4 -16q-7 -10 -20 -22q-6 -6 -16 -9q-11 -4 -23 -4t-23 4zM657 711v-88h137v-126h-137v-89l-152 151z" />
    <glyph glyph-name="U" unicode="U" 
d="M446 -121v65h-67v-65h-230q16 26 33 48q14 19 31 37q16 18 30 25q11 5 34 9q22 4 45 6q26 3 57 4v-31h67v31q27 -1 51 -4q20 -2 41 -6q20 -4 31 -9q14 -7 32 -25q17 -18 34 -37q19 -22 40 -48h-229zM446 8h-67v24l-10 6q-23 13 -42 36t-31 54q-13 30 -13 65q0 62 19 95
q19 32 42 46l62 17q34 0 61 -18q23 -15 43 -48q19 -34 19 -98q0 -24 -9 -52q-10 -29 -26 -53q-16 -25 -37 -41q-5 -5 -11 -8v-25zM287 87q3 -8 11 -18q7 -10 15 -19q10 -11 21 -21h-130h-43h-109q4 23 8 41q4 16 10 30t15 19q7 3 20 5q12 2 25 4q15 2 31 3v16q-11 6 -20 17
t-16 25q-7 13 -11 28q-4 14 -4 26q0 40 12 62q12 21 26 30q17 11 38 11t38 -11q14 -9 27 -29q12 -21 12 -59q0 -35 -18 -62t-41 -38v-16q15 -1 29 -3q12 -2 24 -3q12 -2 19 -5q1 -5 3 -10t4 -11zM731 114q8 -5 15 -19q6 -15 10 -31q4 -18 8 -41h-110h-42l-130 1q10 9 20 20
q8 8 16 19q8 10 11 18q2 7 4 13q1 5 3 10t3 10q7 3 19 5l24 4q14 2 30 3v15q-23 11 -41 38q-19 27 -19 62q0 38 12 59q12 20 26 29q17 11 39 11q21 0 38 -11q14 -9 27 -30q12 -21 12 -61q0 -13 -4 -27q-4 -15 -11 -28q-7 -14 -16 -25q-10 -11 -21 -17v-15q16 -1 31 -3l26 -4
zM239 423q-10 9 -35 33q-26 23 -54 50q-29 26 -55 50q-26 23 -36 32q-9 7 -13 19q-5 11 -6 23q-1 11 2 22q2 11 7 18q11 14 21 22q9 7 16 5q3 -1 10 -6q6 -6 13 -12l18 -16l13 -13l10 -10q4 -6 5 -10q2 -8 -6 -13q-9 -6 -17 -16q-4 -5 -6 -14q-3 -9 10 -22l74 -68
q14 -11 23 -8q8 3 13 8q9 8 14 17q4 9 12 8q4 -1 10 -4q6 -4 12 -9q7 -5 14 -12q10 -8 18 -16l13 -13q5 -7 6 -10q2 -6 -4 -16q-7 -10 -20 -22q-6 -6 -16 -9q-11 -4 -23 -4t-23 4zM642 410v88h-137v126h137v89l152 -152z" />
    <glyph glyph-name="V" unicode="V" 
d="M780 366q-18 -16 -56 -50q-38 -35 -86 -79q-49 -45 -102 -94q-54 -50 -102 -94q-49 -45 -87 -81q-38 -35 -55 -51q-23 -22 -54 -33q-32 -10 -64 -10t-60 9q-29 9 -46 25q-35 32 -53 60q-19 28 -13 45q2 8 19 26q16 18 34 35q21 20 48 44q20 18 38 33q16 13 32 23t27 12
q11 1 19 -5t16 -16q7 -11 16 -23q8 -13 20 -24q7 -6 17 -12q9 -7 22 -9q12 -2 27 3q15 4 33 19l202 186q16 17 22 32t5 28q-1 12 -6 22q-6 10 -12 17q-10 12 -22 22q-12 9 -21 18q-10 8 -15 17q-6 8 -4 19t14 27t26 30q16 17 36 35q25 25 47 44q19 17 38 32q19 14 28 16
q17 4 44 -16q26 -20 55 -58q15 -19 22 -48q6 -29 3 -61t-15 -63z" />
    <glyph glyph-name="W" unicode="W" 
d="M577 -13q14 -7 32 -25t35 -37q19 -22 40 -48h-230v65h-68v-65h-230q16 26 33 48q14 19 31 37q16 18 30 25q11 5 34 9q22 4 45 6q26 3 57 5v-32h68v32q27 -2 51 -5q20 -2 41 -6zM454 7h-68v24q-18 8 -35 24q-18 16 -31 37q-14 21 -22 47q-8 25 -8 53q0 62 20 95
q19 33 42 47q27 17 62 17q34 0 61 -18q23 -15 43 -48q19 -34 19 -98q0 -20 -6 -43q-7 -24 -18 -45q-11 -22 -26 -40t-33 -28v-24zM168 27h-111q3 23 8 41q5 16 11 31q6 14 15 19q7 3 20 5q12 2 25 4q15 2 32 3v16q-11 6 -20 17q-10 11 -17 25q-7 13 -11 28q-4 14 -4 27
q0 41 12 62t26 30q17 11 39 11q21 0 38 -11q14 -9 27 -29q12 -21 12 -60q0 -35 -18 -62q-19 -27 -42 -38v-16q16 0 30 -2l24 -4q12 -2 19 -5q1 -5 3 -10t4 -11q1 -6 4 -12q3 -8 11 -18q7 -11 15 -20q10 -11 21 -21h-131h-42zM621 140q-23 11 -41 39q-19 27 -19 62
q0 39 12 59t26 29q17 11 39 11q21 0 38 -11q14 -9 27 -30q12 -21 12 -62q0 -12 -4 -26q-4 -15 -11 -28q-7 -14 -16 -25q-10 -11 -21 -17v-16q17 -1 32 -3l26 -4q12 -2 19 -5q8 -5 15 -19q6 -15 11 -31q5 -18 8 -41h-111h-42h-131q10 10 20 21q8 9 16 19t11 18q2 7 4 13l4 10
t3 10q7 3 19 5l24 4q14 2 30 3v15zM296 411q-14 11 -22 21q-8 9 -6 15q1 3 7 10q5 7 11 14l16 18l13 13q5 5 11 10q5 4 10 5q8 2 14 -6q5 -9 14 -17q5 -5 15 -7q9 -2 22 11l68 74q11 14 9 23q-3 9 -8 14q-8 8 -17 13q-10 5 -9 13q1 4 5 10q3 6 8 12q5 7 12 14q8 10 16 18
q7 7 14 13q6 5 9 6q6 2 17 -4q10 -7 22 -20q6 -6 10 -16q3 -11 3 -23t-4 -23q-4 -12 -12 -21q-9 -9 -32 -35q-24 -26 -51 -55t-50 -54q-24 -26 -33 -36q-8 -9 -19 -14t-23 -6t-22 2z" />
    <glyph glyph-name="X" unicode="X" horiz-adv-x="845" 
d="M32 667q3 2 9 2h318q6 0 9 -2l-168 -166zM395 411v-2q-1 -1 -1 -2l-128 127l127 126q2 -6 2 -10v-239zM383 384q-7 -5 -13 -5h-340q-6 0 -13 5l134 133l49 -48l49 48zM132 536l-126 -125v2q-1 1 -1 2v236q0 3 2 9zM303 -81q-23 -22 -54 -32t-63 -11q-32 0 -60 9
q-29 9 -47 25q-35 33 -53 60q-18 28 -12 45q2 8 19 26q16 18 34 35q21 20 48 44q20 18 38 32q16 12 32 23q16 10 27 12q10 1 19 -5q8 -6 16 -16q7 -11 16 -23q8 -13 20 -24q6 -6 16 -12q9 -7 22 -9q12 -2 27 3t33 20l201 185q17 16 23 31q5 15 5 28q-1 12 -6 22q-6 9 -12 16
q-11 12 -22 22q-12 10 -21 19q-10 8 -15 17q-6 8 -4 19t14 27q12 15 26 29q16 17 35 35q26 25 48 44q19 17 38 31q18 14 27 16q17 5 44 -15q26 -21 55 -59q15 -19 22 -48q6 -29 3 -60q-3 -32 -15 -62q-13 -31 -37 -52q-18 -16 -56 -50q-38 -35 -86 -79q-49 -45 -102 -94
q-54 -49 -102 -93q-48 -45 -86 -80z" />
    <glyph glyph-name="Y" unicode="Y" 
d="M741 552q19 0 36 -7q16 -7 29 -19q12 -13 19 -30t7 -36v-368q0 -19 -7 -35q-7 -17 -19 -29q-13 -13 -29 -20q-17 -7 -36 -7h-649q-38 0 -64 27q-27 26 -27 64v368q0 19 7 36t20 30q12 12 29 19q16 7 35 7h649zM787 460q0 20 -13 33q-14 13 -33 13h-649q-19 0 -32 -13
q-14 -13 -14 -33v-368q0 -19 14 -32q13 -13 32 -13h649q19 0 33 13q13 13 13 32v368zM599 397q25 0 47 -9q22 -10 39 -26q16 -17 26 -39q9 -22 9 -47t-9 -47q-10 -22 -26 -38q-17 -17 -39 -26q-22 -10 -47 -10t-47 10q-22 9 -38 26q-17 16 -26 38q-10 22 -10 47q0 43 27 76
h-175q27 -33 27 -76q0 -25 -9 -47q-10 -22 -26 -38q-17 -17 -39 -26q-22 -10 -47 -10t-47 10q-22 9 -38 26q-17 16 -26 38q-10 22 -10 47t10 47q9 22 26 39q16 16 38 26q22 9 47 9h363zM236 201q32 0 54 22t22 53q0 32 -22 54t-54 22t-54 -22t-22 -54q0 -31 22 -53zM599 201
q32 0 54 22t22 53q0 32 -22 54t-54 22t-54 -22t-22 -54q0 -31 22 -53z" />
    <glyph glyph-name="Z" unicode="Z" 
d="M499 682l204 -221h-204v221zM454 415h272v-537h-619v829h347v-292zM496 113h110l-189 189l-189 -189h111v-157h157v157z" />
    <glyph glyph-name="bracketleft" unicode="[" 
d="M559 467q57 -2 107 -25q50 -24 88 -62q37 -39 59 -90q21 -51 21 -109q0 -59 -22 -111q-23 -52 -62 -91t-91 -62q-52 -22 -111 -22q-48 0 -91 15q-44 15 -80 42t-62 64q-27 36 -40 80q-57 2 -107 26q-51 23 -88 62q-37 38 -58 89q-22 51 -22 109q0 59 23 111q22 52 61 91
q38 39 90 62q52 22 111 22q48 0 92 -15t80 -42q35 -27 62 -64zM264 144q-1 9 -1 18q-1 9 -1 19q0 54 19 103q19 48 53 86q33 38 78 63q45 24 98 31q-13 34 -35 63t-51 50q-30 21 -65 33q-35 11 -74 11q-49 0 -92 -19q-44 -19 -76 -51q-33 -32 -52 -76t-19 -93q0 -47 17 -88
q17 -42 47 -74q29 -32 69 -52zM309 181q0 -19 3 -37q45 5 84 26q38 20 67 52t46 73q16 41 16 87q0 19 -3 36q-45 -5 -84 -25q-39 -21 -67 -52q-29 -32 -45 -73zM548 -58q49 0 93 19t76 51t51 76q19 43 19 93q0 47 -17 89q-17 41 -46 73q-30 32 -69 52q-40 20 -86 24
q2 -9 2 -18v-19q0 -54 -19 -102q-19 -49 -52 -87q-34 -38 -79 -62q-46 -25 -98 -32q13 -35 35 -63q22 -29 52 -50q29 -21 64 -33z" />
    <glyph glyph-name="backslash" unicode="\" 
d="M420 709l414 -364q-5 -2 -10 -3q-6 -1 -12 -1h-783q-6 0 -11 1q-6 1 -11 3zM573 107l256 227l2 -4q1 -3 1 -5v-407q0 -2 -1 -4t-1 -4zM287 85l128 -117l132 117l262 -202q-14 -7 -28 -7h-728q-15 0 -29 7zM4 341l19 -17l237 -215l-259 -199q0 2 -1 4t-1 4v407q0 8 5 16z
" />
    <glyph glyph-name="bracketright" unicode="]" 
d="M320 -49l-321 372l119 103l205 -237l395 435l116 -106z" />
    <glyph glyph-name="asciicircum" unicode="^" 
d="M419 -125q-86 0 -162 32q-76 33 -132 89q-57 57 -89 133q-33 75 -33 161t33 162q32 76 89 133q56 56 132 89q76 32 162 32t162 -32q75 -33 132 -89q56 -57 89 -133q32 -76 32 -162t-32 -161q-33 -76 -89 -133q-57 -56 -132 -89zM419 662q-77 0 -144 -29q-68 -30 -118 -80
q-51 -51 -80 -118q-30 -68 -30 -145t30 -144q29 -68 80 -118q50 -50 118 -80q67 -29 144 -29q76 0 144 29q68 30 118 80t80 118q29 67 29 144t-29 145q-30 67 -80 118q-50 50 -118 80zM419 229l-106 -106q-1 -1 -3 -1t-2 1l-57 57q-1 1 -1 3l1 2l106 105l-106 106q-1 1 -1 2
q0 2 1 3l57 57q0 1 2 1t3 -1l106 -106l106 106q0 1 2 1t3 -1l57 -57q2 -3 0 -5l-106 -106l106 -105q2 -3 0 -5l-57 -57q-1 -1 -3 -1t-2 1z" />
    <glyph glyph-name="underscore" unicode="_" 
d="M789 -6l-75 -74q-20 -21 -47 -32q-27 -10 -56 -10t-56 11q-28 11 -48 32l-105 105q-21 21 -31 48q-11 27 -11 56q0 30 12 58q11 27 32 48l-44 45q-21 -21 -48 -33q-28 -12 -58 -12q-29 0 -56 12q-28 11 -48 31l-106 106q-43 43 -43 104q0 29 12 56q11 27 31 47l75 75
q44 42 104 42q29 0 56 -11t47 -32l105 -106q21 -20 32 -47t11 -56q0 -30 -12 -58t-33 -49l45 -44q44 44 106 44q29 0 56 -11t48 -31l106 -106q21 -21 32 -48q10 -27 10 -56t-11 -56zM362 492l-105 105q-14 14 -34 14t-35 -13l-75 -75q-14 -14 -14 -34q0 -21 14 -35l106 -106
q13 -13 35 -13q21 0 36 15q-13 13 -24 25q-12 12 -12 32q0 21 14 35t35 14q19 0 32 -11l25 -25q16 16 16 37zM720 132l-106 106q-14 15 -34 15q-22 0 -37 -17l25 -25q12 -12 12 -32t-14 -34q-15 -15 -35 -15t-32 12l-25 25q-17 -15 -17 -37q0 -21 14 -35l105 -105
q13 -14 35 -14q9 0 18 3t16 10l75 75q15 13 15 34z" />
    <glyph glyph-name="a" unicode="a" 
d="M390 498h443v-624h-833v713h390v-89zM789 -82v536h-443v88h-302v-624h745zM212 201l74 64l80 -100l183 208l72 -66l-257 -289z" />
    <glyph glyph-name="b" unicode="b" 
d="M704 462h-205v222zM728 416v-540h-622v833h348v-293h274zM591 128l-190 190v-112h-158v-157h158v-111z" />
    <glyph glyph-name="c" unicode="c" 
d="M708 462h-208v222zM731 416v-541h-631v834h353v-293h278zM627 239l-59 53l-200 -220l-103 120l-61 -52l163 -188z" />
    <glyph glyph-name="d" unicode="d" 
d="M691 458l-448 -452l-118 118l448 451zM827 593l-101 -101l-118 117l101 101zM85 84l118 -118l-206 -89z" />
    <glyph glyph-name="e" unicode="e" 
d="M612 529h-150v160zM629 106h-455v601h254v-211h201v-390zM558 261h-314v-39h314v39zM558 354h-314v-39h314v39zM832 96l-198 -223l-117 141l57 49l61 -77l141 160z" />
    <glyph glyph-name="f" unicode="f" 
d="M712 459h-207v221zM735 413v-537h-627v829h351v-292h276zM428 49l184 1v144l-185 -1v114l-195 -197l197 -184z" />
    <glyph glyph-name="g" unicode="g" 
d="M474 -125v103h-107v-103h-365q27 41 53 76q23 30 49 59q26 28 48 39q17 8 53 14t72 10q42 4 90 7v-50h107v50q42 -3 80 -7q32 -4 65 -10t50 -14q11 -5 24 -15q13 -11 27 -24l29 -29q14 -15 27 -30q31 -35 63 -76h-365zM474 80h-107v38q-29 13 -56 38q-28 25 -49 59
q-21 33 -34 74q-13 40 -13 85q0 49 9 86q8 37 22 64q13 27 31 45t36 29q43 26 98 27q54 -1 97 -28q18 -12 36 -30q18 -19 32 -46q13 -28 22 -66q8 -39 8 -90q0 -32 -10 -68q-10 -37 -28 -71q-18 -35 -42 -63q-24 -29 -52 -44v-39z" />
    <glyph glyph-name="h" unicode="h" 
d="M59 -120l42 173q-49 45 -75 101q-26 55 -26 115q0 69 33 129t90 105q56 45 132 71t162 26t162 -26q75 -26 132 -71q56 -45 89 -105t33 -129t-33 -129q-33 -61 -89 -106q-57 -45 -132 -71q-76 -26 -162 -26q-87 0 -168 29zM417 557q-77 0 -145 -22q-68 -23 -118 -62
q-51 -39 -80 -91q-30 -53 -30 -113q0 -54 25 -103q24 -49 71 -89l10 -9l-27 -111l124 56l8 -3q79 -29 162 -29q77 0 145 23q67 22 118 61q50 39 80 92q29 52 29 112t-29 113q-30 52 -80 91q-51 39 -118 62z" />
    <glyph glyph-name="i" unicode="i" 
d="M815 311q8 0 13 -5t5 -13q0 -86 -33 -161q-33 -76 -89 -133q-57 -56 -132 -89q-76 -33 -162 -33t-162 33t-132 89q-57 57 -89 133q-33 75 -33 161t33 162q32 76 89 133q56 56 132 89q76 32 162 32q69 0 133 -21q64 -22 119 -64l79 80q9 9 18 4q12 -3 12 -15l14 -277
q0 -8 -5 -13t-12 -5l-289 2q-11 0 -16 11q-5 10 4 19l89 86q-67 44 -146 44q-55 0 -103 -21q-49 -21 -85 -57q-37 -37 -58 -85q-21 -49 -21 -104t21 -103q21 -49 58 -85q36 -36 85 -57q48 -21 103 -21t104 21q48 21 84 57t57 85q21 48 21 103q0 8 5 13t13 5h114z" />
    <glyph glyph-name="j" unicode="j" 
d="M833 303l-430 -426v249h-403v311h403v268z" />
    <glyph glyph-name="k" unicode="k" 
d="M0 280l430 425v-249h403v-311h-403v-268z" />
    <glyph glyph-name="l" unicode="l" 
d="M60 -120h-60v833h60v-833zM500 498h333l-233 -260h-100v260zM458 288h-342v367h342v-367z" />
    <glyph glyph-name="m" unicode="m" 
d="M462 711l275 -290v-542h-641v832h366zM474 634v-200h190zM693 -77v467h-263v277h-289v-744h552zM213 152v53h408v-53h-408zM213 32v53h408v-53h-408z" />
    <glyph glyph-name="n" unicode="n" 
d="M466 -123v91h-95v-91h-323q23 37 47 68q20 26 43 51t43 35q15 8 47 13q31 5 63 8q37 4 80 6v-44h95v44q38 -2 71 -6q29 -3 58 -8q28 -5 43 -13q20 -10 46 -35q25 -25 48 -51q27 -31 56 -68h-322zM466 58h-95v34q-26 12 -50 34t-43 52q-19 29 -30 65t-11 75q0 43 8 76
q7 33 19 57t28 40q15 15 31 25q38 23 86 24q48 -1 86 -25q16 -10 32 -26q15 -17 28 -41q12 -25 20 -59q7 -34 7 -79q0 -28 -9 -60q-9 -33 -24 -63q-16 -31 -37 -56q-22 -26 -46 -39v-34zM659 463l-105 127l51 44l55 -69l126 143l50 -45z" />
    <glyph glyph-name="o" unicode="o" 
d="M759 670l34 -33l-128 -129l-34 33zM832 675l-29 -29l-34 34l29 29zM654 496l-59 -25l25 59zM635 30q20 -10 46 -35q25 -25 48 -51q27 -31 56 -68h-322v91h-95v-91h-323q23 37 47 68q20 26 43 51t43 35q15 8 47 13q31 5 63 8q37 4 80 6v-44h95v44q38 -2 71 -6q29 -3 58 -8
zM463 57h-95v34q-26 12 -50 34t-43 52q-19 29 -30 65t-11 75q0 43 8 76q7 33 19 57t28 40q15 15 31 25q38 23 86 24q48 -1 86 -25q16 -10 32 -26q15 -17 28 -41q12 -25 20 -59q7 -34 7 -79q0 -28 -9 -60q-9 -33 -24 -63q-16 -31 -37 -56q-22 -26 -46 -39v-34z" />
    <glyph glyph-name="p" unicode="p" 
d="M635 31q20 -10 46 -35q25 -25 48 -51q27 -31 56 -68h-322v91h-95v-91h-323q23 37 47 68q20 26 43 51t43 35q15 8 47 13q31 5 63 8q37 4 80 6v-44h95v44q38 -2 71 -6q29 -3 58 -8zM463 58h-95v34q-26 12 -50 34t-43 52q-19 29 -30 65t-11 75q0 43 8 76q7 33 19 57t28 40
q15 15 31 25q38 23 86 24q48 -1 86 -25q16 -10 32 -26q15 -17 28 -41q12 -25 20 -59q7 -34 7 -79q0 -28 -9 -60q-9 -33 -24 -63q-16 -31 -37 -56q-22 -26 -46 -39v-34zM814 547q6 -4 13 -9q6 -5 6 -12q0 -8 -6 -14q-7 -6 -17 -6q-8 0 -14 4q-7 4 -12 8l-44 31v-56
q0 -20 -23 -20q-24 0 -24 20v56l-44 -31q-5 -4 -11 -8t-14 -4q-11 0 -17 6q-7 6 -7 14q0 7 7 12q6 5 12 9l62 44l-68 47q-5 4 -9 8t-4 9q0 8 7 15q6 6 17 6q5 0 10 -2q5 -3 9 -6l50 -35v56q0 20 24 20q23 0 23 -20v-56l51 35q4 3 9 6q4 2 10 2q10 0 17 -6q6 -7 6 -15
q0 -5 -3 -9q-4 -4 -9 -8l-68 -47z" />
    <glyph glyph-name="q" unicode="q" 
d="M79 -124l177 178q21 2 41 4q20 1 36 3q18 2 36 3v-45h106v45q42 -2 79 -6q32 -3 64 -8q32 -6 49 -14q21 -10 50 -36q28 -26 54 -54q30 -33 62 -70h-358v94h-106v-94h-290zM598 400q6 -33 6 -75q0 -29 -10 -62q-10 -34 -27 -65q-18 -32 -41 -58q-24 -26 -51 -40v-36h-106
v35q-24 11 -43 26zM548 505l-294 -297q-16 28 -24 60q-9 31 -9 65q0 45 8 79t22 59q13 24 31 41q17 16 35 27q42 25 96 25q22 0 46 -6q20 -5 44 -17q24 -13 45 -36zM23 -123q-9 0 -16 7q-7 6 -7 15q0 10 7 16l789 788q7 7 16 7t16 -7t7 -16t-7 -16l-789 -787z" />
    <glyph glyph-name="r" unicode="r" 
d="M833 447v-297h-155q-62 77 -114 139l-44 52q-23 25 -42 45t-34 33t-22 14q-15 3 -31 -3q-17 -7 -36 -17q-19 -11 -41 -24q-23 -13 -50 -24t-45 -6q-19 4 -30 14q-13 11 -21 30q63 50 118 90q23 17 47 33t45 29t38 21q17 7 26 7t25 -6t37 -15q20 -10 43 -22q22 -12 45 -25
q53 -30 114 -68h127zM417 401q4 -1 17 -13q13 -13 31 -32q18 -20 40 -44q21 -25 43 -50q51 -60 112 -134q12 -17 19 -32q6 -13 8 -26q2 -14 -9 -21t-17 -8t-10 0l-10 2t-14 -2t-11 -10q-3 -7 -4 -15t-4 -15q-4 -8 -16 -12t-21 -4q-9 1 -16 3l-14 6t-15 3t-10 -5
q-3 -5 -5 -12t-6 -15q-5 -7 -18 -11q-16 -6 -27 -3q-11 4 -20 10t-16 11q-8 6 -18 3q-6 -2 -8 -6t-6 -9q-5 -4 -15 -7t-31 -2q-11 0 -26 9t-32 23q-18 14 -37 32q-19 17 -37 36q-42 43 -90 99h-124l1 297h91q12 8 25 17q11 8 26 17q15 8 31 16q20 9 43 17q22 8 40 14
q21 7 41 12l-161 -116q-5 -15 3 -33t23 -33q14 -16 33 -26t38 -9q20 1 48 14t55 28t49 27z" />
    <glyph glyph-name="s" unicode="s" 
d="M653 478q11 -7 21 -12q10 -6 17 -11q8 -5 14 -9h128v-296h-157q-26 32 -52 65q-23 29 -51 63q-28 33 -55 65zM268 367q-27 -11 -46 -7t-31 14q-14 11 -23 29q63 49 118 89q23 17 47 33q23 16 44 29t38 21q17 7 26 7q17 0 53 -16q36 -17 76 -40l-115 -116q-11 11 -20 14
t-14 2q-33 -2 -66 -19zM659 128q12 -17 19 -32q6 -13 8 -26q1 -14 -10 -21t-16 -8q-6 -1 -10 0l-10 2t-14 -2t-11 -10q-3 -7 -4 -15t-4 -15q-4 -7 -16 -11t-21 -4q-9 1 -16 3l-14 6t-15 3t-10 -5q-3 -5 -5 -12t-6 -15q-5 -7 -17 -11q-16 -6 -27 -3q-11 4 -20 10t-17 11
q-8 6 -17 3q-6 -2 -8 -6t-6 -9q-5 -4 -15 -8q-10 -3 -31 -2q-11 1 -25 8q-15 8 -31 20q-17 13 -35 29q-19 16 -37 33l277 277zM151 108q-7 7 -11 15q-5 7 -9 13l-8 14h-123v296h95q11 8 24 17q11 8 25 17q14 8 30 16q20 9 43 17q22 8 40 14q21 7 41 12l-161 -115
q-9 -16 -1 -34q8 -19 25 -35q16 -16 35 -26t33 -10q20 0 48 11q28 10 55 23q26 13 47 24t27 12q12 1 19 0q4 -1 7 -3zM827 718q7 -7 7 -16t-7 -16l-788 -791q-7 -7 -16 -7q-10 0 -16 6q-7 7 -7 16t7 16l788 792q7 7 16 7z" />
    <glyph glyph-name="t" unicode="t" 
d="M616 36q20 -10 47 -36q26 -26 50 -53q28 -32 57 -69h-332v93h-98v-93h-331q24 37 48 69q20 27 44 53t44 36q16 8 48 14q32 5 65 8q38 4 82 6v-45h98v45q39 -2 73 -6q29 -3 59 -8zM438 64h-98v36q-26 12 -51 35t-44 53t-30 67q-12 36 -12 77q0 45 8 79q7 33 20 58
q12 24 28 41q15 16 32 26q39 24 89 25q49 -1 89 -26q16 -11 32 -27q16 -17 29 -42q13 -26 21 -61q7 -35 7 -81q0 -29 -9 -62q-10 -34 -26 -65q-16 -32 -38 -57q-22 -26 -47 -40v-36zM832 665v-109h-49q-25 28 -46 51q-18 20 -34 36q-17 16 -22 17q-11 2 -21 -6
q-11 -8 -31 -16q-10 -5 -16 -2q-7 2 -11 6q-5 4 -8 12q24 16 45 29q18 11 35 21q17 9 24 9t21 -7q14 -8 29 -17q17 -11 37 -24h47zM678 634q3 -1 18 -14l30 -30l42 -42q4 -7 7 -12q2 -5 3 -10q0 -5 -4 -7q-8 -5 -9 -3q-2 2 -9 0q-3 -1 -4 -3q-1 -3 -1 -6l-2 -6q-2 -3 -6 -4
q-9 -3 -13 0q-5 3 -11 3t-5 -6q0 -7 -10 -10q-6 -2 -10 -1t-7 4l-6 4t-6 1q-2 -1 -3 -2q-1 -2 -2 -3q-2 -2 -5 -3q-4 -1 -12 -1t-22 11t-28 24q-16 15 -33 34h-45v114h35q5 3 9 6q4 2 9 5t11 6q17 8 26 11q6 2 12 3l-61 -39q0 -3 5 -10q4 -8 11 -15t17 -12q9 -5 20 -5
q7 0 16 3t18 7q8 3 15 6z" />
    <glyph glyph-name="u" unicode="u" 
d="M616 31q9 -5 21 -14q11 -9 24 -21q12 -11 25 -25l24 -26q27 -31 56 -68h-323v91h-95v-91h-284l168 170q20 2 41 4q20 2 37 4q19 2 38 3v-44h95v44q38 -2 71 -6q29 -3 58 -8zM443 58h-95v35q-10 5 -21 13q-12 7 -22 15l251 247q2 -12 3 -28t1 -30q0 -28 -9 -60
q-9 -33 -25 -63q-16 -31 -37 -56q-22 -26 -46 -39v-34zM248 191q-14 26 -23 60q-10 34 -10 67q0 43 8 76q7 33 19 57q12 23 28 39q15 16 31 26q38 23 86 24q23 0 47 -7q20 -7 44 -22t44 -45zM832 643v-106h-48l-8 10q-4 5 -9 11q-6 5 -12 12l72 73h5zM635 617q-10 -5 -16 -3
t-10 6t-8 12q24 16 44 29q17 11 34 20q16 9 23 9q5 0 13 -4l18 -9l-41 -42q-3 2 -7 4q-11 2 -20 -6zM744 556q5 -6 10 -10l8 -9l8 -8q4 -6 7 -11q2 -5 3 -10q0 -5 -4 -7q-8 -5 -9 -3q-2 2 -9 0q-3 -1 -4 -3q-1 -3 -1 -5l-2 -6q-2 -3 -6 -4q-8 -3 -12 0q-5 3 -11 3t-5 -6
q0 -6 -9 -10q-6 -2 -10 0q-4 1 -7 3l-6 4q-3 2 -6 1q-4 -2 -5 -6t-16 -3q-2 0 -2 1h-3zM579 531q-1 1 -1 2h-44v111h34l8 6l10 5q5 3 11 6l14 6q6 2 11 4q6 2 11 3l-59 -37q0 -3 5 -10q4 -7 11 -14q6 -7 16 -12q9 -6 20 -6q9 0 21 5q11 5 20 9l-83 -83zM822 702q7 -7 7 -16
t-7 -16l-783 -787q-6 -6 -16 -6q-9 0 -16 6q-7 7 -7 16t7 16l784 787q6 6 16 6z" />
    <glyph glyph-name="v" unicode="v" 
d="M834 629v-753h-834v753h247v35q0 17 13 29t30 12q18 0 31 -12q12 -12 12 -29v-35h170v35q0 17 13 29q12 12 30 12q17 0 30 -12t13 -29v-35h245zM801 598h-212v-28q0 -17 -13 -29t-30 -12q-18 0 -30 12q-13 12 -13 29v28h-170v-28q0 -17 -12 -29q-13 -12 -31 -12
q-17 0 -30 12t-13 29v28h-215v-691h769v691zM141 462h107v-111h-107v111zM290 462h107v-111h-107v111zM439 462h107v-111h-107v111zM588 462h107v-111h-107v111zM141 305h107v-111h-107v111zM290 305h107v-111h-107v111zM439 305h107v-111h-107v111zM588 305h107v-111h-107
v111zM141 148h107v-111h-107v111zM290 148h107v-111h-107v111zM439 148h107v-111h-107v111zM588 148h107v-111h-107v111z" />
    <glyph glyph-name="w" unicode="w" 
d="M415 607q76 0 143 -29q66 -29 116 -78q49 -50 78 -116q29 -67 29 -142q0 -76 -28 -141q-29 -66 -78 -117l49 -74q5 -8 3 -17q-2 -8 -10 -13q-4 -4 -12 -4q-11 0 -18 10l-46 69q-47 -37 -104 -58q-58 -21 -122 -21q-68 0 -128 23q-61 23 -109 64l-51 -77q-7 -10 -18 -10
q-8 0 -13 4q-8 5 -9 13q-2 9 3 17l56 85q-45 49 -70 112q-26 63 -26 135q0 75 29 142q28 66 78 116q49 49 116 78zM94 242q0 -66 26 -125q25 -59 69 -102q43 -44 102 -70q58 -25 124 -25q61 0 115 21q53 21 96 59q2 5 7 8q2 0 3 1q47 45 74 105q26 59 26 128q0 66 -25 125
q-26 58 -69 102q-44 43 -102 69q-59 25 -125 25t-124 -25q-59 -26 -102 -69q-44 -44 -69 -102zM634 219h-241v234h44v-189h197v-45zM678 678q57 -26 83 -56t34 -57q10 -32 3 -63l-330 147q15 27 43 42q24 12 65 14zM155 678q61 28 102 27q41 -2 65 -14q28 -15 44 -42
l-331 -147q-7 31 3 63q8 27 34 57z" />
    <glyph glyph-name="x" unicode="x" 
d="M829 33q3 -2 3 -6q0 -3 -3 -6l-141 -140q-3 -3 -6 -3t-6 3l-259 261l-260 -261q-2 -3 -6 -3q-3 0 -6 3l-141 140q-2 4 -2 6q0 4 2 6l261 262l-261 261q-2 2 -2 6q0 3 2 5l141 141q6 6 12 0l260 -261l259 261q7 5 12 0l141 -141q3 -2 3 -5q0 -5 -3 -6l-260 -261z" />
    <glyph glyph-name="y" unicode="y" 
d="M133 706l609 -393l-615 -436v832z" />
    <glyph glyph-name="z" unicode="z" 
d="M834 137h-161q8 -12 16 -29q7 -17 4 -34q-3 -19 -18 -28q-14 -11 -24 -12q-11 -1 -21 2q-2 0 -3 1q-2 0 -4 -1v-5q-1 -4 -2 -10t-4 -12q-4 -7 -10 -13q-7 -6 -18 -10q-20 -7 -34 -4t-23 7l-6 3q-3 -11 -10 -22q-8 -10 -26 -16q-26 -9 -42 -2q-17 7 -27 15q-2 1 -8 5
q-8 -11 -20 -17t-36 -6h-9q-21 1 -51 22q-31 21 -63 50q-32 28 -60 58q-29 30 -46 48h-129v338h179l115 82q32 18 59 28q27 9 47 13q19 3 30 3h12q17 0 52 -15q34 -15 73 -36q38 -21 74 -43t56 -35h138v-325zM651 82q1 4 -6 18q-7 13 -16 25q-33 41 -68 83q-35 41 -65 76
q-30 34 -52 59q-23 24 -33 32q-8 -2 -23 -10t-28 -16q-29 -16 -60 -30q-31 -15 -56 -17q-24 -2 -49 12q-25 13 -44 37q-28 36 -22 71h-86v-251h104l7 -8q27 -30 57 -60q30 -31 58 -55q27 -24 49 -39q21 -16 32 -17q19 -1 23 1q4 3 6 5q2 4 7 9q4 5 14 8q16 4 27 -1
q11 -6 19 -12q9 -6 15 -9q6 -2 15 2q7 2 9 12q1 3 3 8t6 10q4 4 10 8q6 3 16 3q16 0 28 -7q8 -2 13 -3q5 -2 14 1q3 2 4 3q0 1 1 8q2 8 7 21q4 12 21 17q11 4 19 4t14 -2zM790 419h-106l-6 3q-36 23 -74 46q-38 22 -71 40q-34 18 -59 29t-34 11h-10q-9 0 -25 -3
q-17 -4 -39 -12q-23 -8 -51 -23l-143 -103q0 -13 13 -29q12 -15 28 -24q15 -9 29 -9q17 2 45 15q27 13 52 27q32 18 50 26t32 5q3 -1 11 -5q8 -5 31 -28q22 -23 64 -70q42 -48 113 -134h150v238z" />
    <glyph glyph-name="braceleft" unicode="{" 
d="M320 -72l-321 372l119 103l205 -237l395 435l116 -106z" />
    <glyph glyph-name="bar" unicode="|" 
d="M296 -124h-226v829h226v-829zM763 -124h-226v829h226v-829z" />
    <glyph glyph-name="braceright" unicode="}" 
d="M380 78l-34 633h142l-26 -633h-82zM417 20q29 0 50 -21t21 -50t-21 -50t-50 -21q-30 0 -50 21q-21 21 -21 50t21 50z" />
    <glyph glyph-name="asciitilde" unicode="~" 
d="M833 362q2 -5 1 -7l-163 -347q-2 -5 -8 -5h-656q-3 0 -7 4q-2 3 0 7l173 348q2 4 7 4h646zM5 219q-6 2 -6 8v329q0 8 8 8h99q5 15 22 32q16 17 48 17h154q30 0 47 -17q16 -17 22 -32h254q8 0 8 -8v-119q0 -8 -8 -8h-536l-103 -206q-1 -4 -7 -4h-2z" />
    <glyph glyph-name="degree" unicode="&#xb0;" 
d="M421 370q112 -2 190 -20t127 -43q48 -25 71 -53t25 -51q4 -40 -3 -68q-8 -28 -22 -36q-7 -4 -27 -4q-20 -1 -41 -1q-26 0 -55 1q-22 -1 -41 1q-17 1 -32 4q-16 3 -23 8t-7 14q-1 8 1 19q2 10 5 23q3 12 3 26q0 7 -1 17q-1 9 -7 17t-17 14q-12 5 -31 6l-226 1
q-20 -1 -32 -6q-13 -6 -20 -14t-10 -17q-3 -10 -4 -17q-2 -14 -1 -26q1 -13 1 -23q0 -11 -2 -19q-2 -9 -10 -14t-24 -7q-16 -3 -33 -4q-19 -1 -41 -1q-29 -1 -54 0q-21 1 -40 2t-25 5q-12 8 -14 35q-3 27 4 66q3 20 30 49t79 56q52 26 129 44z" />
    <glyph glyph-name="Agrave" unicode="&#xc0;" 
d="M418 705q86 0 161.5 -33t132 -89.5t89 -132t32.5 -161.5t-32.5 -161.5t-89 -132t-132 -89t-161.5 -32.5t-161.5 32.5t-132 89t-89.5 132t-33 161.5t33 161.5t89.5 132t132 89.5t161.5 33zM418 -88q78 0 147 29.5t120 81t81 120t30 146.5t-30 147t-81 120.5t-120 81
t-147 29.5t-147 -29.5t-120.5 -81t-81 -120.5t-29.5 -147t29.5 -146.5t81 -120t120.5 -81t147 -29.5zM472 444l151 -186q18 -23 15.5 -51.5t-25.5 -46.5q-23 -19 -51.5 -16t-46.5 26l-97 119l-97 -119q-18 -23 -46.5 -26t-51.5 16q-23 18 -26 46.5t15 51.5l152 186
q4 6 10 10v1q1 0 3 2q6 4 9 5q2 1 2.5 1t2.5 1l9 3q2 1 4 1q4 1 7 1.5t7 0.5q5 0 13 -2q3 0 4 -1q4 -1 10 -3q1 -1 2 -1t2 -1q3 -1 9 -5q2 -2 3 -2l1 -1q6 -4 10 -10z" />
    <glyph glyph-name="Aacute" unicode="&#xc1;" 
d="M418 -122q-86 0 -161.5 32.5t-132 89t-89.5 132t-33 161.5t33 161.5t89.5 132t132 89.5t161.5 33t161.5 -33t132 -89.5t89 -132t32.5 -161.5t-32.5 -161.5t-89 -132t-132 -89t-161.5 -32.5zM418 671q-78 0 -147 -29.5t-120.5 -81t-81 -120.5t-29.5 -147t29.5 -146.5
t81 -120t120.5 -81t147 -29.5t147 29.5t120 81t81 120t30 146.5t-30 147t-81 120.5t-120 81t-147 29.5zM363 139l-151 186q-18 23 -15 51.5t26 46.5t51.5 15.5t46.5 -25.5l97 -119l97 119q18 23 46.5 25.5t51.5 -15.5t25.5 -46.5t-15.5 -51.5l-151 -186q-4 -6 -10 -10l-1 -1
q-1 -1 -1.5 -1t-1.5 -1l-9 -6q-1 0 -2 -0.5t-2 -0.5q-4 -2 -10 -4q-2 0 -4 -1q-3 0 -6.5 -0.5t-6.5 -0.5q-4 0 -7 0.5t-7 0.5q-1 1 -4 1q-6 2 -9 4q-2 0 -2.5 0.5t-2.5 0.5l-9 6q-1 1 -1.5 1t-1.5 1v1q-8 6 -11 10z" />
    <glyph glyph-name="Egrave" unicode="&#xc8;" 
d="M417 404q5 0 12 -1.5t32 -11t76 -29.5t144 -58q20 -8 28.5 -28.5t0.5 -40.5t-28 -28.5t-40 -0.5q-33 14 -67.5 27.5t-64.5 25.5t-54.5 22t-38.5 15q-14 -5 -38.5 -15t-55 -22t-64.5 -25.5t-67 -27.5q-20 -8 -40.5 0.5t-28.5 28.5t0.5 40.5t28.5 28.5q93 38 144 58
t76.5 29.5t32.5 11t12 1.5z" />
    <glyph glyph-name="Eacute" unicode="&#xc9;" 
d="M417 199q-5 0 -12 1.5t-32.5 11t-76.5 30t-144 58.5q-20 8 -28.5 28.5t-0.5 40.5t28.5 28t40.5 0q33 -13 67 -27t64.5 -26t55 -21.5t38.5 -14.5q14 5 38.5 14.5t54.5 21.5t64.5 26t67.5 27q20 8 40 0t28 -28t-0.5 -40.5t-28.5 -28.5q-93 -38 -144 -58.5t-76 -30t-32 -11
t-12 -1.5z" />
    <glyph glyph-name="agrave" unicode="&#xe0;" 
d="M613 32q20 -10 47 -36t51 -54q28 -33 57 -70h-334v94h-99v-94h-335q24 37 49 70q21 28 45 54t44 36q16 8 49 14q32 5 65 8q39 4 83 6v-46h99v46q39 -2 74 -6q29 -3 59 -8zM434 60h-99v35q-27 12 -52 35t-44 54q-20 31 -31 68q-12 37 -12 78q0 45 8 79q7 34 20 59
q12 25 28 41t33 27q40 24 90 25q50 -1 90 -26q17 -11 33 -28t29 -42q13 -26 21 -61q7 -35 7 -82q0 -29 -9 -63q-10 -34 -26 -65q-17 -32 -39 -58t-47 -40v-36zM832 524v-1q-1 0 -1 -1h-1h-84v-84l-1 -1q0 -1 -1 -1h-45l-1 1q-1 0 -1 1v84l-83 -1l-1 1q-1 0 -1 1v45q0 1 1 2
h1h83l1 84v1q1 1 2 1h45q1 0 1 -2v-84l84 1q1 0 1 -2z" />
    <glyph glyph-name="aacute" unicode="&#xe1;" 
d="M637 -123h-7q-24 1 -44 9.5t-34 18.5t-22 18l-9 9l-440 440q0 1 -5.5 7t-13 16.5t-15.5 25.5t-13 33q-5 17 -7 38.5t3 45.5t18.5 49.5t40.5 52.5q34 34 67.5 48t63.5 15t55 -7.5t44 -19.5t29.5 -20l10.5 -9l326 -326q13 -12 0 -25q-5 -5 -12 -5t-12 5l-326 326
q-2 2 -21 16.5t-49.5 23.5t-69.5 2t-81 -49q-71 -71 -47 -151q9 -30 23.5 -48.5t15.5 -18.5l441 -441q0 -1 6.5 -7.5t18 -14.5t27 -14.5t33.5 -7.5q48 -3 97 44q38 37 37 79q0 21 -8.5 39.5t-18 32t-18 21.5l-8.5 8l-310 311l-6 5.5t-15 12t-21 12t-26 5.5q-26 0 -49 -21
q-27 -25 -25 -54q0 -15 6.5 -28t13.5 -23q8 -12 19 -22l220 -220q5 -5 5 -12t-5 -12t-12.5 -5t-12.5 5l-218 218l-8 8t-17.5 21t-17.5 30.5t-8 38.5q-2 44 36 80q34 32 74 31q19 -1 35.5 -8t29 -15t19.5 -15l8 -8l309 -309q1 0 10.5 -10t21.5 -27t21.5 -39.5t10.5 -49.5
q1 -57 -47 -105q-57 -54 -117 -54z" />
    <glyph glyph-name="acircumflex" unicode="&#xe2;" 
d="M417 710l158 -158h-92v-107h-132v107h-93zM605.5 305.5q77.5 -77.5 77.5 -186.5q0 -110 -77.5 -187.5t-186.5 -77.5q-110 0 -187.5 77.5t-77.5 187.5q0 109 77.5 186.5t187.5 77.5q109 0 186.5 -77.5z" />
    <glyph glyph-name="atilde" unicode="&#xe3;" 
d="M417 445l-159 158h93v107h131v-107h93zM605.5 305.5q77.5 -77.5 77.5 -186.5q0 -110 -77.5 -187.5t-186.5 -77.5q-110 0 -187.5 77.5t-77.5 187.5q0 109 77.5 186.5t187.5 77.5q109 0 186.5 -77.5z" />
    <glyph glyph-name="adieresis" unicode="&#xe4;" 
d="M298 180l341 344l89 -90l-341 -343zM742 626l89 -89l-77 -77l-89 89zM268 150l89 -90l-156 -67zM652 -19v241l36 38v-279q0 -32 -23 -55.5t-56 -23.5h-524q-33 0 -56 23.5t-23 55.5v525q0 32 23 55t56 23h487l-33 -36h-454q-18 0 -30.5 -12.5t-12.5 -29.5v-525
q0 -17 12.5 -30t30.5 -13h524q18 0 30.5 13t12.5 30z" />
    <glyph glyph-name="aring" unicode="&#xe5;" 
d="M788 699q17 0 29.5 -12.5t12.5 -29.5v-745q0 -17 -12.5 -29t-29.5 -12h-745q-17 0 -29 12t-12 29v745q0 17 12 29.5t29 12.5h745zM43 671q-10 0 -13 -10l386 -514l386 514q-3 10 -14 10h-745zM30 -74l262 340l-262 350v-690zM788 -102q2 0 6 2l-268 348l-110 -147
l-107 142l-265 -345h744zM802 -65v681l-259 -345zM484 352h-135v110h-96l163 163l163 -163h-95v-110z" />
    <glyph glyph-name="ae" unicode="&#xe6;" horiz-adv-x="830" 
d="M786 700q17 0 29.5 -12.5t12.5 -29.5v-745q0 -17 -12.5 -29t-29.5 -12h-745q-17 0 -29 12t-12 29v745q0 17 12 29.5t29 12.5h745zM41 672q-10 0 -13 -10l386 -514l386 514q-3 10 -14 10h-745zM28 -73l262 340l-262 350v-690zM786 -101q2 0 6 2l-268 348l-110 -147
l-107 142l-265 -345h744zM800 -64v681l-259 -345zM346 626h135v-110h96l-163 -163l-163 163h95v110z" />
    <glyph glyph-name="ccedilla" unicode="&#xe7;" 
d="M758 499q23 17 40.5 17t27 -10.5t8.5 -28t-16 -36.5q-2 -3 -13 -15.5t-26.5 -30.5t-35 -40t-39.5 -44q-46 -52 -104 -116q-14 -13 -30 -20q-14 -6 -29.5 -5t-31.5 17q-13 14 -15 28t2 27t11.5 23t13.5 16q23 23 59.5 57t73 67.5t66 60t38.5 33.5zM409 209q13 6 23.5 8.5
t17.5 2.5q9 0 15 -1q0 -7 3 -15q2 -8 6 -16.5t12 -17.5t17.5 -14.5t17.5 -8.5q9 -4 19 -6q-6 -19 -16 -36q-10 -15 -24.5 -28t-37.5 -19q-30 -8 -62.5 -5t-59.5 10q-32 7 -62 20q15 -1 30 3q13 3 26 10t22 21q9 15 14 29t10 26t11 21.5t18 15.5zM611 177q25 -23 40 -50
q13 -25 15.5 -54.5t-18.5 -62.5t-53 -55t-67.5 -35t-69.5 -18.5t-59 -4.5t-68.5 6t-92.5 20.5t-96.5 45.5t-80.5 81t-49 117t-10 136t37 139t93 127q39 37 73.5 58.5t64 33t53.5 14.5t43 3q12 0 33 -2.5t44 -11t45 -25t36 -45.5q14 -28 11 -57.5t-13.5 -57.5t-24.5 -53
t-21 -46q-7 -20 -9 -43t-2 -43q1 -23 4 -45q-18 0 -35 -3q-16 -3 -32 -9.5t-28 -18.5q-12 -13 -18.5 -27.5t-12 -28.5t-12.5 -25.5t-19 -18.5q-10 -6 -22.5 -9t-24 -5t-19.5 -4.5t-11 -8.5q-5 -8 11.5 -24.5t57.5 -27.5q19 -5 35 -8t27 -5q14 -2 25 -2q9 -18 23 -30
q13 -12 31.5 -16.5t45.5 4.5q27 10 37 26t12 31q2 18 -5 38q5 5 9 11t7.5 12t6.5 13q3 6 5.5 12t4.5 11l4 10zM345 551q-23 0 -38.5 -16t-15.5 -38q0 -23 15.5 -39t38.5 -16t38.5 16t15.5 39q0 22 -15.5 38t-38.5 16zM202 442q-26 0 -44.5 -18.5t-18.5 -44.5t18.5 -44.5
t44.5 -18.5t45 18.5t19 44.5t-19 44.5t-45 18.5zM139 184q0 -29 20.5 -49.5t49.5 -20.5t50 20.5t21 49.5t-21 50t-50 21t-49.5 -21t-20.5 -50z" />
    <glyph glyph-name="egrave" unicode="&#xe8;" 
d="M834 588h-834v119h834v-119zM834 351h-537v118h537v-118zM834 114h-537v118h537v-118zM834 -124h-834v119h834v-119zM183 469v-355l-183 177z" />
    <glyph glyph-name="eacute" unicode="&#xe9;" 
d="M834 587h-834v119h834v-119zM834 350h-537v118h537v-118zM834 113h-537v118h537v-118zM834 -125h-834v119h834v-119zM0 113v355l183 -178z" />
    <glyph glyph-name="ecircumflex" unicode="&#xea;" horiz-adv-x="846" 
d="M834 -66h-361v102h-107v-102h-361q26 41 52 76q15 21 26 34t23 25.5t24 22.5t23 15q17 9 52.5 14.5t71.5 9.5q42 4 89 7v-50h107v50q42 -3 80 -7q34 -4 65 -9.5t48 -14.5q22 -11 51 -39t55 -58q30 -35 62 -76zM473 176v-38h-107v38q-29 13 -56 38t-48 58t-33.5 73
t-12.5 84q0 49 8.5 85.5t22 63.5t31 45t35.5 29q43 26 97 27q54 -1 97 -28q26 -14 41 -32t27.5 -45t20.5 -65t8 -89q0 -31 -10 -67.5t-28 -71t-42 -62.5t-51 -43zM446 308v91h90h1q1 1 1 2v49q0 2 -2 2l-90 -1v90q0 2 -2 2h-49h-1q-1 -1 -1 -2v-90h-90q-1 0 -1 -1
q-1 0 -1 -1v-49q0 -1 1 -1l1 -1l90 1v-90v-2h2l49 -1l1 1z" />
    <glyph glyph-name="edieresis" unicode="&#xeb;" 
d="M830 -68h-362v102h-106v-102h-362q26 41 53 76q15 21 26 34t22.5 25.5t23.5 22.5t23 15q17 9 52.5 14.5t71.5 9.5q42 4 90 7v-50h106v50q42 -3 80 -7q34 -4 65.5 -9.5t48.5 -14.5q22 -11 51 -39t55 -58q30 -35 62 -76zM468 174v-38h-106v38q-29 13 -56 38t-48 58t-34 73
t-13 84q0 49 8.5 85.5t22 63.5t31 45t35.5 29q43 26 97 27q54 -1 97 -28q26 -14 41 -32t27.5 -45t20.5 -65t8 -89q0 -31 -10 -67.5t-28 -71t-42 -62.5t-51 -43zM296 397h229q4 0 4 3v45q0 3 -4 3h-229q-3 0 -3 -3v-45q0 -3 3 -3z" />
    <glyph glyph-name="igrave" unicode="&#xec;" 
d="M499 680l204 -221h-204v221zM453 413h273v-538h-619v830h346v-292zM416 -47l190 189h-112v157h-156v-157h-111z" />
    <glyph glyph-name="iacute" unicode="&#xed;" 
d="M833 592h-833v105h833v-105zM833 228h-833v105h833v-105zM833 -136h-833v105h833v-105z" />
    <glyph glyph-name="icircumflex" unicode="&#xee;" 
d="M417 624q86 0 161 -32.5t131 -88.5t88.5 -131t32.5 -161q0 -71 -22 -134t-62 -115l-657 -2q-41 52 -63 115.5t-22 135.5q0 86 32.5 161t88.5 131t131.5 88.5t160.5 32.5zM412 569q-28 0 -48 -19.5t-20 -47.5t20 -47.5t48 -19.5t47.5 19.5t19.5 47.5t-19.5 47.5
t-47.5 19.5zM126 144q28 0 47.5 19.5t19.5 47.5t-19.5 47.5t-47.5 19.5q-29 0 -48.5 -19.5t-19.5 -47.5t19.5 -47.5t48.5 -19.5zM210 343q28 0 47.5 19.5t19.5 47.5t-19.5 47.5t-47.5 19.5t-47.5 -19.5t-19.5 -47.5t19.5 -47.5t47.5 -19.5zM414 17q41 0 69 28t28 69
q0 29 -15.5 53t-41.5 35l57 189l-29 8l-57 -189q-3 0 -5.5 0.5t-5.5 0.5q-20 0 -37.5 -7.5t-31 -21t-21 -31t-7.5 -37.5q0 -41 28.5 -69t68.5 -28zM556 410q0 -28 19.5 -47.5t47.5 -19.5t47.5 19.5t19.5 47.5t-19.5 47.5t-47.5 19.5t-47.5 -19.5t-19.5 -47.5zM708 144
q28 0 47.5 19.5t19.5 47.5t-19.5 47.5t-47.5 19.5t-47.5 -19.5t-19.5 -47.5t19.5 -47.5t47.5 -19.5z" />
    <glyph glyph-name="idieresis" unicode="&#xef;" 
d="M422 305q-40 0 -76 15.5t-62 41.5t-41.5 61.5t-15.5 75.5q0 41 15.5 76.5t41.5 61.5t62 41.5t76 15.5t75.5 -15.5t61.5 -41.5t41.5 -61.5t15.5 -76.5q0 -40 -15.5 -75.5t-41.5 -61.5t-61.5 -41.5t-75.5 -15.5zM771 213q11 -24 24.5 -59t21 -74t5 -78t-22.5 -70t-62 -50.5
t-114 -19.5h-200h-3h-200q-72 0 -114 19.5t-62 50.5t-22 70t5.5 78t20.5 74t24 59q19 41 44.5 63t51 30.5t48 4.5t37.5 -16q11 -9 25.5 -20t34 -21t46 -17t61.5 -7h3q35 0 61.5 7t46.5 17t34.5 21t25.5 20q15 12 37.5 16t48 -4.5t50.5 -30.5t44 -63z" />
    <glyph glyph-name="ntilde" unicode="&#xf1;" 
d="M418 -126q-86 0 -161.5 32.5t-132 89t-89 132t-32.5 161.5t32.5 161.5t89 132t132 89t161.5 32.5t161.5 -32.5t132 -89t89 -132t32.5 -161.5t-32.5 -161.5t-89 -132t-132 -89t-161.5 -32.5zM418 670q-79 0 -148 -30t-120.5 -81.5t-81.5 -121t-30 -148.5t30 -148
t81.5 -120.5t120.5 -81.5t148 -30t148.5 30t121 81.5t81.5 120.5t30 148t-30 148.5t-81.5 121t-121 81.5t-148.5 30zM435 272h-238v35h204v292h34v-327z" />
    <glyph glyph-name="ograve" unicode="&#xf2;" 
d="M231 480q0 -8 -5 -13.5t-13 -5.5h-187q-8 0 -13.5 5.5t-5.5 13.5v187q0 8 5.5 13t13.5 5h187q8 0 13 -5t5 -13v-187zM231 185q0 -8 -5 -13t-13 -5h-187q-8 0 -13.5 5t-5.5 13v187q0 8 5.5 13t13.5 5h187q8 0 13 -5t5 -13v-187zM231 -110q0 -8 -5 -13t-13 -5h-187
q-8 0 -13.5 5t-5.5 13v187q0 8 5.5 13.5t13.5 5.5h187q8 0 13 -5.5t5 -13.5v-187zM529 480q0 -8 -5.5 -13.5t-13.5 -5.5h-187q-8 0 -13 5.5t-5 13.5v187q0 8 5 13t13 5h187q8 0 13.5 -5t5.5 -13v-187zM529 185q0 -8 -5.5 -13t-13.5 -5h-187q-8 0 -13 5t-5 13v187q0 8 5 13
t13 5h187q8 0 13.5 -5t5.5 -13v-187zM529 -110q0 -8 -5.5 -13t-13.5 -5h-187q-8 0 -13 5t-5 13v187q0 8 5 13.5t13 5.5h187q8 0 13.5 -5.5t5.5 -13.5v-187zM826 480q0 -8 -5 -13.5t-13 -5.5h-187q-8 0 -13.5 5.5t-5.5 13.5v187q0 8 5.5 13t13.5 5h187q8 0 13 -5t5 -13v-187z
M826 185q0 -8 -5 -13t-13 -5h-187q-8 0 -13.5 5t-5.5 13v187q0 8 5.5 13t13.5 5h187q8 0 13 -5t5 -13v-187zM826 -110q0 -8 -5 -13t-13 -5h-187q-8 0 -13.5 5t-5.5 13v187q0 8 5.5 13.5t13.5 5.5h187q8 0 13 -5.5t5 -13.5v-187z" />
    <glyph glyph-name="ugrave" unicode="&#xf9;" 
d="M50 391q-20 20 -30 46q-11 26 -11 55q0 28 11 54q11 25 31 45l72 72q20 20 46 30q25 10 53 10q29 0 55 -10q25 -11 45 -31l102 -102q20 -20 30 -45q10 -26 10 -54q0 -29 -11 -56t-32 -47l-67 -67q-20 -20 -46 -31q-27 -12 -56 -12q-28 0 -54 11q-26 10 -46 30zM117 521
q-14 -14 -14 -33q0 -20 14 -34l102 -102q13 -13 33 -13q21 0 36 15q-13 12 -24 24q-12 12 -12 31q0 20 14 34q13 13 33 13q19 0 31 -11l24 -24q17 15 17 36q0 19 -14 33l-101 102q-13 13 -34 13q-20 0 -33 -13zM786 197q42 -42 42 -100q0 -28 -11 -54t-31 -46l-72 -71
q-20 -20 -46 -31q-26 -10 -54 -10q-58 0 -100 42l-101 101q-20 20 -30 46q-11 26 -11 54q0 29 12 56q11 26 32 46l66 67q20 21 47 32q26 11 55 11t55 -10q25 -11 45 -31zM720 64q14 14 14 33q0 20 -14 34l-102 101q-14 14 -34 14t-35 -16l24 -23q11 -12 11 -31
q0 -20 -13 -33q-14 -14 -34 -14q-19 0 -31 12q-12 11 -24 23q-16 -16 -16 -36q0 -19 14 -33l101 -102q13 -13 33 -13q9 0 18 3t16 10zM804 681q7 -7 7 -16t-7 -15l-761 -765q-8 -6 -16 -6q-9 0 -15 6q-7 6 -7 15t7 16l761 764q7 7 16 7z" />
  </font>
</defs>
</svg>
