<?xml version="1.0" encoding="UTF-8"?>
<svg xmlns="http://www.w3.org/2000/svg" xmlns:xlink="http://www.w3.org/1999/xlink" version="1.2" >
<font id="UntitledRegular">
<font-face  font-family="Untitled" units-per-em="1000" ascent="750" descent="-250" font-style="normal" font-weight="400" font-stretch="normal" cap-height="700" x-height="500" underline-position="-75" underline-thickness="50" />
<missing-glyph  horiz-adv-x="500" d="" />
<glyph glyph-name="&amp;#x20;" unicode="&#x20;" horiz-adv-x="500" d="" />
<glyph glyph-name="&amp;#xa0;" unicode="&#xa0;" horiz-adv-x="500" d="" />
<glyph glyph-name="F" unicode="F" horiz-adv-x="833" d="M835 35 L470 35 L470 -74 L629 -74 L629 -124 L212 -124 L212 -74 L365 -74 L365 35 L1 35 L1 603 L835 603 L835 35 Z M40 564 L40 75 L795 75 L795 564 L40 564 Z " />
<glyph glyph-name="G" unicode="G" horiz-adv-x="833" d="M58 -123 L100 49 Q51 95 25 150.5 Q-1 206 -1 266 Q-1 335 32 395 Q65 455 121.5 500 Q178 545 254 571 Q330 597 416 597 Q502 597 578 571 Q654 545 710.5 500 Q767 455 800 395 Q833 335 833 266 Q833 197 800 136.5 Q767 76 710.5 31 Q654 -14 578 -40 Q502 -66 416 -66 Q372 -66 330 -59 Q288 -52 248 -38 L58 -123 Z " />
<glyph glyph-name="H" unicode="H" horiz-adv-x="833" d="M205 304 L496 711 L818 125 L319 129 L252 92 Q247 74 248 58 Q249 44 254.5 30 Q260 16 277 7 Q293 -2 309 -19 Q325 -36 332.5 -55 Q340 -74 334 -92 Q328 -110 301 -121 Q287 -127 273.5 -123 Q260 -119 247 -108.5 Q234 -98 221.5 -82.5 Q209 -67 199 -50 Q174 -10 151 44 Q141 38 131 34 Q123 31 114 29.5 Q105 28 100 33 Q88 43 70.5 67 Q53 91 38 117 Q23 143 15 165.5 Q7 188 14 196 Q23 205 53.5 223 Q84 241 118 259 Q158 280 205 304 Z " />
<glyph glyph-name="I" unicode="I" horiz-adv-x="833" d="M833 507 L-1 507 L-1 612 L833 612 L833 507 L833 507 Z M833 297 L-1 297 L-1 402 L833 402 L833 297 L833 297 Z M833 87 L-1 87 L-1 192 L833 192 L833 87 L833 87 Z M833 -124 L-1 -124 L-1 -19 L833 -19 L833 -124 L833 -124 Z " />
<glyph glyph-name="J" unicode="J" horiz-adv-x="833" d="M832 232 Q832 226 827.5 220.5 Q823 215 816 213 L716 198 Q708 171 695 149 Q709 129 723.5 110.5 Q738 92 753 74 Q759 66 759 61 Q759 55 754 48 Q749 42 734.5 26 Q720 10 703.5 -6.5 Q687 -23 671.5 -36 Q656 -49 649 -49 Q646 -49 642.5 -47.5 Q639 -46 635 -44 L561 15 Q549 8 536.5 3.5 Q524 -1 512 -6 Q509 -31 506 -56.5 Q503 -82 496 -106 Q492 -122 477 -122 L357 -122 Q349 -122 343.5 -117 Q338 -112 337 -105 L322 -6 Q309 -1 297 3.5 Q285 8 273 14 L197 -44 Q192 -49 184 -49 Q178 -49 170 -43 Q149 -23 123.5 1 Q98 25 81 48 Q77 56 77 61 Q77 66 82 73 Q96 92 110.5 110 Q125 128 139 147 Q131 160 126 173 Q121 186 116 200 L17 215 Q2 218 2 235 L2 354 Q2 370 16 374 L117 389 Q125 416 138 439 Q124 459 109.5 477 Q95 495 80 513 Q75 520 75 526 Q75 532 80 539 Q85 545 99 561 Q113 577 129.5 593.5 Q146 610 161.5 622.5 Q177 635 184 635 Q191 635 198 630 L272 572 Q295 583 322 593 Q324 618 327.5 643.5 Q331 669 337 693 Q340 708 357 708 L477 708 Q484 708 489.5 703.5 Q495 699 496 692 L511 593 Q524 588 536 583.5 Q548 579 560 573 L636 630 Q641 635 649 635 Q656 635 663 630 Q685 610 710 586 Q735 562 752 538 Q756 534 756 526 Q756 522 755 519.5 Q754 517 752 514 Q738 495 723.5 477 Q709 459 695 440 Q702 427 707.5 414 Q713 401 717 387 L816 372 Q832 368 832 352 L832 232 Z M417 432 Q388 432 363 421 Q338 410 319 391 Q300 372 289 346.5 Q278 321 278 293 Q278 264 289 239 Q300 214 319 195.5 Q338 177 363 166 Q388 155 417 155 Q445 155 470.5 166 Q496 177 514.5 195.5 Q533 214 544 239 Q555 264 555 293 Q555 321 544 346.5 Q533 372 514.5 391 Q496 410 470.5 421 Q445 432 417 432 Z " />
<glyph glyph-name="K" unicode="K" horiz-adv-x="833" d="M834 -124 L0 -124 L0 583 L366 583 L366 489 L834 489 L834 -124 L834 -124 Z " />
<glyph glyph-name="L" unicode="L" horiz-adv-x="833" d="M248 398 L142 398 L142 519 L248 519 L248 398 L248 398 Z M397 398 L291 398 L291 519 L397 519 L397 398 L397 398 Z M545 398 L439 398 L439 519 L545 519 L545 398 L545 398 Z M694 398 L588 398 L588 519 L694 519 L694 398 L694 398 Z M248 225 L142 225 L142 347 L248 347 L248 225 L248 225 Z M397 225 L291 225 L291 347 L397 347 L397 225 L397 225 Z M545 225 L439 225 L439 347 L545 347 L545 225 L545 225 Z M694 225 L588 225 L588 347 L694 347 L694 225 L694 225 Z M248 53 L142 53 L142 175 L248 175 L248 53 L248 53 Z M397 53 L291 53 L291 175 L397 175 L397 53 L397 53 Z M545 53 L439 53 L439 175 L545 175 L545 53 L545 53 Z M694 53 L588 53 L588 175 L694 175 L694 53 L694 53 Z M833 -124 L0 -124 L0 703 L833 703 L833 -124 L833 -124 Z M33 -91 L800 -91 L800 670 L33 670 L33 -91 L33 -91 Z " />
<glyph glyph-name="M" unicode="M" horiz-adv-x="833" d="M33 400 Q41 404 53 404 L782 404 Q794 404 803 400 L418 84 L33 400 Z M835 -78 Q835 -80 833 -86 L551 146 L831 377 Q835 370 835 360 L835 -78 Z M811 -114 Q797 -122 782 -122 L53 -122 Q38 -122 25 -114 L313 123 L418 37 L522 123 L811 -114 Z M285 146 L2 -86 Q0 -80 0 -78 L0 360 Q0 367 4 377 L285 146 Z M575 553 L483 553 L483 447 L353 447 L353 553 L260 553 L418 711 L575 553 Z " />
<glyph glyph-name="N" unicode="N" horiz-adv-x="833" d="M33 398 Q41 402 53 402 L782 402 Q794 402 803 398 L418 82 L33 398 Z M835 -80 Q835 -82 833 -88 L551 144 L831 375 Q835 368 835 358 L835 -80 Z M811 -116 Q797 -124 782 -124 L53 -124 Q38 -124 25 -116 L313 121 L418 35 L522 121 L811 -116 Z M285 144 L2 -88 Q0 -82 0 -80 L0 358 Q0 365 4 375 L285 144 Z M260 602 L352 602 L352 709 L483 709 L483 602 L575 602 L417 445 L260 602 Z " />
<glyph glyph-name="O" unicode="O" horiz-adv-x="833" d="M492 354 L679 178 L492 178 L492 354 Z M450 141 L700 141 L700 -123 L134 -123 L134 374 L450 374 L450 141 Z M417 710 L575 552 L483 552 L483 445 L351 445 L351 552 L258 552 L417 710 Z " />
<glyph glyph-name="P" unicode="P" horiz-adv-x="833" d="M492 354 L679 178 L492 178 L492 354 Z M450 141 L700 141 L700 -123 L134 -123 L134 374 L450 374 L450 141 Z M417 445 L258 603 L351 603 L351 710 L482 710 L482 603 L575 603 L417 445 Z " />
<glyph glyph-name="Q" unicode="Q" horiz-adv-x="833" d="M533 -81 Q516 -65 479 -30 Q442 5 394.5 48.5 Q347 92 294.5 140.5 Q242 189 194 232.5 Q146 276 108.5 310 Q71 344 53 360 Q30 381 17.5 410.5 Q5 440 2 471.5 Q-1 503 5.5 532 Q12 561 27 579 Q56 617 81.5 637 Q107 657 124 652 Q132 650 150.5 636 Q169 622 188 605 Q210 586 235 562 Q254 544 270 527 Q284 513 296 498 Q308 483 310 472 Q312 462 306.5 453.5 Q301 445 291.5 436.5 Q282 428 270.5 418.5 Q259 409 249 397 Q243 390 237.5 380.5 Q232 371 231 359 Q230 347 235.5 332 Q241 317 258 301 L457 118 Q475 103 489.5 98.5 Q504 94 516 96 Q528 98 537.5 104.5 Q547 111 553 117 Q565 128 573.5 140.5 Q582 153 589.5 163 Q597 173 604.5 179 Q612 185 623 184 Q634 182 650.5 172 Q667 162 682 150 Q700 136 719 118 Q745 95 766 75 Q784 58 799.5 40.5 Q815 23 818 15 Q823 -2 806 -29.5 Q789 -57 754 -89 Q737 -105 708.5 -113.5 Q680 -122 648.5 -122 Q617 -122 586 -112 Q555 -102 533 -81 Z M725 653 L725 561 L832 561 L832 429 L725 429 L725 336 L566 495 L725 653 Z " />
<glyph glyph-name="A" unicode="A" horiz-adv-x="833" d="M35 630 Q43 634 55 634 L782 634 Q794 634 803 630 L419 249 L35 630 Z M835 54 Q835 51 833 45 L551 325 L831 602 Q835 594 835 581 L835 54 Z M811 11 Q796 1 782 1 L55 1 Q40 1 27 11 L314 296 L419 193 L523 296 L811 11 Z M286 325 L4 45 Q2 51 2 54 L2 581 Q2 587 3 592 Q4 597 6 602 L286 325 Z " />
<glyph glyph-name="B" unicode="B" horiz-adv-x="833" d="M501 681 L709 460 L501 460 L501 681 Z M455 413 L455 706 L103 706 L103 -125 L732 -125 L732 413 L455 413 L455 413 Z " />
<glyph glyph-name="C" unicode="C" horiz-adv-x="833" d="M417 -122 Q331 -122 255 -89.5 Q179 -57 122.5 -0.5 Q66 56 33 132 Q0 208 0 294 Q0 380 33 456 Q66 532 122.5 588.5 Q179 645 255 678 Q331 711 417 711 Q503 711 578.5 678 Q654 645 710.5 588.5 Q767 532 800 456 Q833 380 833 294 Q833 208 800 132 Q767 56 710.5 -0.5 Q654 -57 578.5 -89.5 Q503 -122 417 -122 Z " />
<glyph glyph-name="D" unicode="D" horiz-adv-x="833" d="M604 128 Q620 120 641.5 99 Q663 78 683 56 Q706 30 729 0 L461 0 L461 76 L381 76 L381 0 L113 0 Q133 30 152 56 Q169 78 187.5 99 Q206 120 223 128 Q236 134 262.5 138.5 Q289 143 315 146 Q346 150 381 151 L381 114 L461 114 L461 151 Q492 150 520 146 Q543 143 567 138.5 Q591 134 604 128 Z M461 151 L381 151 L381 179 Q360 189 340 207 Q320 225 304.5 250 Q289 275 279.5 304.5 Q270 334 270 367 Q270 403 276 430.5 Q282 458 292.5 478 Q303 498 315.5 511.5 Q328 525 342 533 Q374 552 414 553 Q454 552 486 532 Q499 523 512 509.5 Q525 496 535.5 475.5 Q546 455 552 426.5 Q558 398 558 361 Q558 337 550.5 310 Q543 283 530 257.5 Q517 232 499 211 Q481 190 461 179 L461 151 Z M127 175 L-2 175 Q2 201 7 223 Q12 242 19 259 Q26 276 37 281 Q45 285 60 287.5 Q75 290 90 292 Q108 294 127 295 L127 314 Q114 321 103 334 Q92 347 83.5 362.5 Q75 378 70.5 395 Q66 412 66 427 Q66 474 80 498.5 Q94 523 111 534 Q130 546 156 547 Q181 546 201 534 Q218 523 232 499.5 Q246 476 246 431 Q246 390 224.5 358 Q203 326 177 314 L177 295 Q194 294 211 292 Q225 290 239.5 288 Q254 286 262 282 Q263 276 265 270 Q267 265 269 258 Q271 251 274 243 Q277 233 286 221.5 Q295 210 305 199 Q316 187 329 175 L177 175 L127 175 Z M570 275 Q578 279 592 281.5 Q606 284 620 286 Q637 288 655 289 L655 307 Q628 319 606.5 350.5 Q585 382 585 424 Q585 469 599 492.5 Q613 516 630 527 Q649 539 675 540 Q700 539 720 527 Q737 516 751 491.5 Q765 467 765 420 Q765 405 760 388.5 Q755 372 747 356 Q739 340 728 327 Q717 314 704 307 L704 289 Q723 288 741 286 Q756 284 771 281.5 Q786 279 794 275 Q804 270 811.5 253 Q819 236 824 217 Q829 195 833 169 L704 169 L655 169 L502 169 Q515 181 526 193 Q536 204 544.5 215.5 Q553 227 557 237 Q562 251 566 263 Q568 269 570 275 Z " />
<glyph glyph-name="R" unicode="R" horiz-adv-x="833" d="M542 -81 Q525 -65 487 -29.5 Q449 6 400.5 51 Q352 96 298 145 Q244 194 195.5 239 Q147 284 108.5 318.5 Q70 353 52 369 Q28 390 15 420.5 Q2 451 -0.5 483 Q-3 515 3.5 544.5 Q10 574 25 593 Q54 631 80.5 651.5 Q107 672 124 668 Q132 666 151 650.5 Q170 635 190 619 Q213 599 238 575 Q258 557 274 540 Q288 526 300 510.5 Q312 495 314 484 Q316 473 310.5 464.5 Q305 456 295 447 Q285 438 273 428.5 Q261 419 251 407 Q245 400 239.5 390 Q234 380 233.5 367.5 Q233 355 238.5 340 Q244 325 261 308 L464 122 Q482 107 497 102 Q512 97 524.5 99 Q537 101 546.5 107.5 Q556 114 563 121 Q575 132 583.5 144.5 Q592 157 599.5 167.5 Q607 178 615 184 Q623 190 634 189 Q645 187 661.5 177 Q678 167 694 154 Q712 139 732 121 Q759 97 780 77 Q798 60 814 42 Q830 24 833 16 Q839 -1 821 -29 Q803 -57 768 -90 Q750 -106 721 -115 Q692 -124 660 -124 Q628 -124 596.5 -113.5 Q565 -103 542 -81 Z M823 475 Q824 474 824 473 Q824 472 823 471 L783 431 Q782 431 782 430.5 Q782 430 781 430 L780 431 L705 506 L631 431 Q631 431 629 430 L628 431 L588 471 Q587 472 587 473 Q587 474 588 475 L662 549 L588 624 Q587 625 587 626 Q587 626 588 627 L628 668 Q629 669 631 668 L705 593 L780 668 Q781 669 783 668 L823 627 Q824 627 824 626 Q824 625 823 624 L749 549 L823 475 Z " />
<glyph glyph-name="S" unicode="S" horiz-adv-x="833" d="M529 -85 Q512 -69 475 -34 Q438 1 390.5 44.5 Q343 88 290.5 136.5 Q238 185 190 228.5 Q142 272 104.5 306 Q67 340 49 356 Q26 377 13.5 406.5 Q1 436 -2 467.5 Q-5 499 1.5 528 Q8 557 23 575 Q52 613 77.5 633 Q103 653 120 648 Q128 646 146.5 632 Q165 618 184 601 Q206 582 231 558 Q250 540 266 523 Q280 509 292 494 Q304 479 306 468 Q308 458 302.5 449.5 Q297 441 287.5 432.5 Q278 424 266.5 414.5 Q255 405 245 393 Q239 386 233.5 376.5 Q228 367 227 355 Q226 343 231.5 328 Q237 313 254 297 L453 114 Q471 99 485.5 94.5 Q500 90 512 92 Q524 94 533.5 100.5 Q543 107 549 113 Q561 124 569.5 136.5 Q578 149 585.5 159 Q593 169 600.5 175 Q608 181 619 180 Q630 178 646.5 168 Q663 158 678 146 Q696 132 715 114 Q741 91 762 71 Q780 54 795.5 36.5 Q811 19 814 11 Q819 -6 802 -33.5 Q785 -61 750 -93 Q733 -109 704.5 -117.5 Q676 -126 644.5 -126 Q613 -126 582 -116 Q551 -106 529 -85 Z M670 332 L670 424 L562 424 L562 556 L670 556 L670 649 L828 490 L670 332 Z " />
<glyph glyph-name="T" unicode="T" horiz-adv-x="833" d="M406 349 Q440 349 467 331 Q490 316 509.5 282.5 Q529 249 529 185 Q529 161 519.5 132.5 Q510 104 494 79.5 Q478 55 457 38.5 Q436 22 414 22 Q392 22 369 35.5 Q346 49 327 72 Q308 95 295.5 125.5 Q283 156 283 191 Q283 253 302 285.5 Q321 318 344 332 Q371 349 406 349 Z M446 -123 L446 -58 L379 -58 L379 -123 L149 -123 Q165 -97 182 -75 Q196 -56 212.5 -38 Q229 -20 243 -13 Q254 -8 276.5 -4 Q299 0 322 2 Q348 5 379 6 L379 -25 L446 -25 L446 6 Q473 5 497 2 Q517 0 537.5 -4 Q558 -8 569 -13 Q583 -20 600.5 -38 Q618 -56 635 -75 Q654 -97 675 -123 L446 -123 Z M446 6 L379 6 L379 58 L446 58 L446 6 Z M287 85 Q290 77 297.5 67 Q305 57 313 48 Q323 37 334 27 L204 27 L161 27 L52 27 Q56 50 60 68 Q64 84 70 98 Q76 112 85 117 Q92 120 104.5 122 Q117 124 130 126 Q145 128 161 129 L161 145 Q150 151 141 162 Q132 173 125 186.5 Q118 200 114 214.5 Q110 229 110 241 Q110 281 122 302.5 Q134 324 148 333 Q165 344 186 344 Q207 344 224 333 Q238 324 250.5 303.5 Q263 283 263 245 Q263 210 245 183 Q227 156 204 145 L204 129 Q219 128 233 126 Q245 124 257 122.5 Q269 121 276 118 Q277 113 279 108 Q281 103 282.5 97 Q284 91 287 85 Z M731 112 Q739 107 745.5 92.5 Q752 78 756 62 Q760 44 764 21 L654 21 L612 21 L482 22 Q492 31 502 42 Q510 50 518 60.5 Q526 71 529 79 Q531 86 532.5 91.5 Q534 97 536 102 Q538 107 539 112 Q546 115 558 117 Q570 119 582 121 Q596 123 612 124 L612 139 Q589 150 570.5 177 Q552 204 552 239 Q552 277 564 297.5 Q576 318 590 327 Q607 338 629 338 Q650 338 667 327 Q681 318 693.5 297 Q706 276 706 236 Q706 223 702 208.5 Q698 194 691 180.5 Q684 167 674.5 156 Q665 145 654 139 L654 124 Q670 123 685 121 Q698 119 710.5 117 Q723 115 731 112 Z M239 421 Q229 430 203.5 453.5 Q178 477 149.5 503.5 Q121 530 95 553.5 Q69 577 59 586 Q50 593 45.5 604.5 Q41 616 40 627.5 Q39 639 41.5 650 Q44 661 49 668 Q60 682 69.5 689.5 Q79 697 86 695 Q89 694 95.5 688.5 Q102 683 109 677 L127 661 L140 648 Q145 643 149.5 637.5 Q154 632 155 628 Q157 620 148.5 614.5 Q140 609 132 599 Q128 594 125.5 585 Q123 576 136 563 L210 495 Q224 484 232.5 487 Q241 490 246 495 Q255 503 259.5 512 Q264 521 272 520 Q276 519 282 515.5 Q288 512 294 507 Q301 502 308 495 Q318 487 326 479 Q333 472 338.5 465.5 Q344 459 345 456 Q347 450 340.5 440 Q334 430 321 418 Q315 412 304.5 408.5 Q294 405 282 405 Q270 405 258.5 409 Q247 413 239 421 Z M657 711 L657 623 L794 623 L794 497 L657 497 L657 408 L505 559 L657 711 Z " />
<glyph glyph-name="U" unicode="U" horiz-adv-x="833" d="M406 351 Q440 351 467 333 Q490 318 509.5 284.5 Q529 251 529 187 Q529 163 519.5 134.5 Q510 106 494 81.5 Q478 57 457 40.5 Q436 24 414 24 Q392 24 369 37.5 Q346 51 327 74 Q308 97 295.5 127.5 Q283 158 283 193 Q283 255 302 287.5 Q321 320 344 334 Q371 351 406 351 Z M446 -121 L446 -56 L379 -56 L379 -121 L149 -121 Q165 -95 182 -73 Q196 -54 212.5 -36 Q229 -18 243 -11 Q254 -6 276.5 -2 Q299 2 322 4 Q348 7 379 8 L379 -23 L446 -23 L446 8 Q473 7 497 4 Q517 2 537.5 -2 Q558 -6 569 -11 Q583 -18 600.5 -36 Q618 -54 635 -73 Q654 -95 675 -121 L446 -121 Z M446 8 L379 8 L379 60 L446 60 L446 8 Z M287 87 Q290 79 297.5 69 Q305 59 313 50 Q323 39 334 29 L204 29 L161 29 L52 29 Q56 52 60 70 Q64 86 70 100 Q76 114 85 119 Q92 122 104.5 124 Q117 126 130 128 Q145 130 161 131 L161 147 Q150 153 141 164 Q132 175 125 188.5 Q118 202 114 216.5 Q110 231 110 243 Q110 283 122 304.5 Q134 326 148 335 Q165 346 186 346 Q207 346 224 335 Q238 326 250.5 305.5 Q263 285 263 247 Q263 212 245 185 Q227 158 204 147 L204 131 Q219 130 233 128 Q245 126 257 124.5 Q269 123 276 120 Q277 115 279 110 Q281 105 282.5 99 Q284 93 287 87 Z M731 114 Q739 109 745.5 94.5 Q752 80 756 64 Q760 46 764 23 L654 23 L612 23 L482 24 Q492 33 502 44 Q510 52 518 62.5 Q526 73 529 81 Q531 88 532.5 93.5 Q534 99 536 104 Q538 109 539 114 Q546 117 558 119 Q570 121 582 123 Q596 125 612 126 L612 141 Q589 152 570.5 179 Q552 206 552 241 Q552 279 564 299.5 Q576 320 590 329 Q607 340 629 340 Q650 340 667 329 Q681 320 693.5 299 Q706 278 706 238 Q706 225 702 210.5 Q698 196 691 182.5 Q684 169 674.5 158 Q665 147 654 141 L654 126 Q670 125 685 123 Q698 121 710.5 119 Q723 117 731 114 Z M239 423 Q229 432 203.5 455.5 Q178 479 149.5 505.5 Q121 532 95 555.5 Q69 579 59 588 Q50 595 45.5 606.5 Q41 618 40 629.5 Q39 641 41.5 652 Q44 663 49 670 Q60 684 69.5 691.5 Q79 699 86 697 Q89 696 95.5 690.5 Q102 685 109 679 L127 663 L140 650 Q145 645 149.5 639.5 Q154 634 155 630 Q157 622 148.5 616.5 Q140 611 132 601 Q128 596 125.5 587 Q123 578 136 565 L210 497 Q224 486 232.5 489 Q241 492 246 497 Q255 505 259.5 514 Q264 523 272 522 Q276 521 282 517.5 Q288 514 294 509 Q301 504 308 497 Q318 489 326 481 Q333 474 338.5 467.5 Q344 461 345 458 Q347 452 340.5 442 Q334 432 321 420 Q315 414 304.5 410.5 Q294 407 282 407 Q270 407 258.5 411 Q247 415 239 423 Z M642 410 L642 498 L505 498 L505 624 L642 624 L642 713 L794 561 L642 410 Z " />
<glyph glyph-name="V" unicode="V" horiz-adv-x="833" d="M780 366 Q762 350 724 315.5 Q686 281 637.5 236.5 Q589 192 535.5 142.5 Q482 93 433.5 48.5 Q385 4 347 -31.5 Q309 -67 292 -83 Q269 -105 237.5 -115.5 Q206 -126 174 -126 Q142 -126 113.5 -117 Q85 -108 68 -92 Q33 -60 14.5 -32 Q-4 -4 2 13 Q4 21 20.5 39 Q37 57 55 74 Q76 94 103 118 Q123 136 141 151 Q157 164 173 174 Q189 184 200 186 Q211 187 219 181 Q227 175 234.5 164.5 Q242 154 250.5 141.5 Q259 129 271 118 Q278 112 287.5 105.5 Q297 99 309.5 97 Q322 95 337 99.5 Q352 104 370 119 L572 305 Q588 322 594 337 Q600 352 599 364.5 Q598 377 592.5 387 Q587 397 581 404 Q571 416 559 425.5 Q547 435 537.5 443.5 Q528 452 522.5 460.5 Q517 469 519 480 Q521 491 533 507 Q545 523 559 537 Q575 554 595 572 Q620 597 642 616 Q661 633 680 647.5 Q699 662 708 664 Q725 668 751.5 648 Q778 628 807 590 Q822 571 828.5 542 Q835 513 832 481 Q829 449 816.5 418 Q804 387 780 366 Z " />
<glyph glyph-name="W" unicode="W" horiz-adv-x="833" d="M577 -13 Q591 -20 609 -38 Q627 -56 644 -75 Q663 -97 684 -123 L454 -123 L454 -58 L386 -58 L386 -123 L156 -123 Q172 -97 189 -75 Q203 -56 219.5 -38 Q236 -20 250 -13 Q261 -8 283.5 -4 Q306 0 329 2 Q355 5 386 7 L386 -25 L454 -25 L454 7 Q481 5 505 2 Q525 0 545.5 -4 Q566 -8 577 -13 Z M454 7 L386 7 L386 31 Q368 39 350.5 55 Q333 71 319.5 92 Q306 113 298 138.5 Q290 164 290 192 Q290 254 309.5 287 Q329 320 352 334 Q379 351 414 351 Q448 351 475 333 Q498 318 517.5 284.5 Q537 251 537 187 Q537 167 530.5 143.5 Q524 120 513 98.5 Q502 77 487 59 Q472 41 454 31 L454 7 Z M168 27 L57 27 Q60 50 65 68 Q70 84 76 98.5 Q82 113 91 118 Q98 121 110.5 123 Q123 125 136 127 Q151 129 168 130 L168 146 Q157 152 147.5 163 Q138 174 131 187.5 Q124 201 120 215.5 Q116 230 116 243 Q116 284 128 305 Q140 326 154 335 Q171 346 193 346 Q214 346 231 335 Q245 326 257.5 305.5 Q270 285 270 246 Q270 211 251.5 184 Q233 157 210 146 L210 130 Q226 130 240 128 Q252 126 264 124 Q276 122 283 119 Q284 114 286 109 Q288 104 289.5 98 Q291 92 294 86 Q297 78 304.5 67.5 Q312 57 320 48 Q330 37 341 27 L210 27 L168 27 Z M621 140 Q598 151 579.5 178.5 Q561 206 561 241 Q561 280 573 300 Q585 320 599 329 Q616 340 638 340 Q659 340 676 329 Q690 320 702.5 299 Q715 278 715 237 Q715 225 711 210.5 Q707 196 700 182.5 Q693 169 683.5 158 Q674 147 663 141 L663 125 Q680 124 695 122 Q708 120 720.5 118 Q733 116 740 113 Q748 108 754.5 93.5 Q761 79 766 63 Q771 45 774 22 L663 22 L621 22 L490 22 Q500 32 510 43 Q518 52 526 62 Q534 72 537 80 Q539 87 541 92.5 Q543 98 545 103 Q547 108 548 113 Q555 116 567 118 Q579 120 591 122 Q605 124 621 125 L621 140 Z M296 411 Q282 422 274 431.5 Q266 441 268 447 Q269 450 274.5 457 Q280 464 286 471 L302 489 L315 502 Q320 507 325.5 511.5 Q331 516 336 517 Q344 519 349.5 510.5 Q355 502 364 494 Q369 489 378.5 487 Q388 485 401 498 L469 572 Q480 586 477.5 595 Q475 604 470 609 Q462 617 452.5 622 Q443 627 444 635 Q445 639 448.5 645 Q452 651 457 657 Q462 664 469 671 Q477 681 485 689 Q492 696 498.5 701.5 Q505 707 508 708 Q514 710 524.5 703.5 Q535 697 547 684 Q553 678 556.5 667.5 Q560 657 560 645 Q560 633 556 621.5 Q552 610 544 601 Q535 592 511.5 566 Q488 540 461 511 Q434 482 410.5 456.5 Q387 431 378 421 Q370 412 359 407 Q348 402 336 401 Q324 400 313.5 402.5 Q303 405 296 411 Z " />
<glyph glyph-name="X" unicode="X" horiz-adv-x="845" d="M32 667 Q35 669 41 669 L359 669 Q365 669 368 667 L200 501 L32 667 Z M395 411 Q395 410 394.5 409 Q394 408 394 407 L266 534 L393 660 Q395 654 395 650 L395 411 Z M383 384 Q376 379 370 379 L30 379 Q24 379 17 384 L151 517 L200 469 L249 517 L383 384 Z M132 536 L6 411 Q6 412 5.5 413 Q5 414 5 415 L5 651 Q5 654 7 660 L132 536 Z M303 -81 Q280 -103 249 -113 Q218 -123 186 -123.5 Q154 -124 125.5 -115 Q97 -106 79 -90 Q44 -57 26 -29.5 Q8 -2 14 15 Q16 23 32.5 41 Q49 59 67 76 Q88 96 115 120 Q135 138 153 152 Q169 164 185 174.5 Q201 185 212 187 Q222 188 230.5 182 Q239 176 246.5 165.5 Q254 155 262.5 142.5 Q271 130 283 119 Q289 113 298.5 106.5 Q308 100 320.5 98 Q333 96 348 101 Q363 106 381 121 L582 306 Q599 322 604.5 337 Q610 352 609.5 364.5 Q609 377 603.5 386.5 Q598 396 592 403 Q581 415 569.5 425 Q558 435 548.5 443.5 Q539 452 533.5 460.5 Q528 469 530 480 Q532 491 544 506.5 Q556 522 570 536 Q586 553 605 571 Q631 596 653 615 Q672 632 690.5 646 Q709 660 718 662 Q735 667 761.5 646.5 Q788 626 817 588 Q832 569 838.5 540 Q845 511 842 479.5 Q839 448 826.5 417.5 Q814 387 790 366 Q772 350 734 315.5 Q696 281 647.5 236.5 Q599 192 545.5 143 Q492 94 444 49.5 Q396 5 358 -30 Q320 -65 303 -81 Z " />
<glyph glyph-name="Y" unicode="Y" horiz-adv-x="833" d="M741 552 Q760 552 776.5 545 Q793 538 805.5 525.5 Q818 513 825 496 Q832 479 832 460 L832 92 Q832 73 825 56.5 Q818 40 805.5 27.5 Q793 15 776.5 8 Q760 1 741 1 L92 1 Q54 1 27.5 27.5 Q1 54 1 92 L1 460 Q1 479 8 496 Q15 513 27.5 525.5 Q40 538 56.5 545 Q73 552 92 552 L741 552 Z M787 460 Q787 480 773.5 493 Q760 506 741 506 L92 506 Q73 506 59.5 493 Q46 480 46 460 L46 92 Q46 73 59.5 60 Q73 47 92 47 L741 47 Q760 47 773.5 60 Q787 73 787 92 L787 460 Z M599 397 Q624 397 646 387.5 Q668 378 684.5 361.5 Q701 345 710.5 323 Q720 301 720 276 Q720 251 710.5 229 Q701 207 684.5 190.5 Q668 174 646 164.5 Q624 155 599 155 Q574 155 552 164.5 Q530 174 513.5 190.5 Q497 207 487.5 229 Q478 251 478 276 Q478 319 505 352 L330 352 Q357 319 357 276 Q357 251 347.5 229 Q338 207 321.5 190.5 Q305 174 283 164.5 Q261 155 236 155 Q211 155 189 164.5 Q167 174 150.5 190.5 Q134 207 124.5 229 Q115 251 115 276 Q115 301 124.5 323 Q134 345 150.5 361.5 Q167 378 189 387.5 Q211 397 236 397 L599 397 Z M236 201 Q268 201 290 223 Q312 245 312 276 Q312 308 290 330 Q268 352 236 352 Q204 352 182 330 Q160 308 160 276 Q160 245 182 223 Q204 201 236 201 Z M599 201 Q631 201 653 223 Q675 245 675 276 Q675 308 653 330 Q631 352 599 352 Q567 352 545 330 Q523 308 523 276 Q523 245 545 223 Q567 201 599 201 Z " />
<glyph glyph-name="Z" unicode="Z" horiz-adv-x="833" d="M499 682 L703 461 L499 461 L499 682 Z M454 415 L726 415 L726 -122 L107 -122 L107 707 L454 707 L454 415 Z M496 113 L606 113 L417 302 L228 113 L339 113 L339 -44 L496 -44 L496 113 Z " />
<glyph glyph-name="b" unicode="b" horiz-adv-x="833" d="M704 462 L499 462 L499 684 L704 462 Z M728 416 L728 -124 L106 -124 L106 709 L454 709 L454 416 L728 416 Z M591 128 L401 318 L401 206 L243 206 L243 49 L401 49 L401 -62 L591 128 Z " />
<glyph glyph-name="a" unicode="a" horiz-adv-x="833" d="M212 201 L286 265 L366 165 L549 373 L621 307 L364 18 L212 201 Z M390 498 L833 498 L833 -126 L0 -126 L0 587 L390 587 L390 498 Z M789 -82 L789 454 L346 454 L346 542 L44 542 L44 -82 L789 -82 Z " />
<glyph glyph-name="c" unicode="c" horiz-adv-x="833" d="M708 462 L500 462 L500 684 L708 462 Z M731 416 L731 -125 L100 -125 L100 709 L453 709 L453 416 L731 416 Z M627 239 L568 292 L368 72 L265 192 L204 140 L367 -48 L627 239 Z " />
<glyph glyph-name="d" unicode="d" horiz-adv-x="833" d="M691 458 L243 6 L125 124 L573 575 L691 458 Z M827 593 L726 492 L608 609 L709 710 L827 593 Z M85 84 L-3 -123 L203 -34 L85 84 Z " />
<glyph glyph-name="e" unicode="e" horiz-adv-x="833" d="M612 529 L462 529 L462 689 L612 529 Z M629 106 L174 106 L174 707 L428 707 L428 496 L629 496 L629 106 Z M558 261 L244 261 L244 222 L558 222 L558 261 Z M558 354 L244 354 L244 315 L558 315 L558 354 Z M832 96 L634 -127 L517 14 L574 63 L635 -14 L776 146 L832 96 Z " />
<glyph glyph-name="f" unicode="f" horiz-adv-x="833" d="M712 459 L505 459 L505 680 L712 459 Z M735 413 L735 -124 L108 -124 L108 705 L459 705 L459 413 L735 413 Z M428 49 L612 50 L612 194 L427 193 L427 307 L232 110 L429 -74 L428 49 Z " />
<glyph glyph-name="g" unicode="g" horiz-adv-x="833" d="M474 -125 L474 -22 L367 -22 L367 -125 L2 -125 Q29 -84 55 -49 Q78 -19 104 9.5 Q130 38 152 49 Q169 57 205 63 Q241 69 277 73 Q319 77 367 80 L367 30 L474 30 L474 80 Q516 77 554 73 Q586 69 619 63 Q652 57 669 49 Q680 44 693 33.5 Q706 23 720 9.5 Q734 -4 748.5 -19 Q763 -34 776 -49 Q807 -84 839 -125 L474 -125 Z M474 80 L367 80 L367 118 Q338 131 310.5 156 Q283 181 262 214.5 Q241 248 228 288.5 Q215 329 215 374 Q215 423 223.5 460 Q232 497 245.5 524 Q259 551 277 569 Q295 587 313 598 Q356 624 411 625 Q465 624 508 597 Q526 585 544 566.5 Q562 548 575.5 520.5 Q589 493 597.5 454.5 Q606 416 606 365 Q606 333 596 296.5 Q586 260 568 225.5 Q550 191 526 162.5 Q502 134 474 119 L474 80 Z " />
<glyph glyph-name="h" unicode="h" horiz-adv-x="833" d="M59 -120 L101 53 Q52 98 26 153.5 Q0 209 0 269 Q0 338 33 398 Q66 458 122.5 503 Q179 548 255 574 Q331 600 417 600 Q503 600 578.5 574 Q654 548 710.5 503 Q767 458 800 398 Q833 338 833 269 Q833 200 800 139.5 Q767 79 710.5 34 Q654 -11 578.5 -37 Q503 -63 417 -63 Q330 -63 249 -34 L59 -120 Z M417 557 Q340 557 272 534.5 Q204 512 153.5 473 Q103 434 73.5 381.5 Q44 329 44 269 Q44 215 68.5 166 Q93 117 140 77 L150 68 L123 -43 L247 13 L255 10 Q334 -19 417 -19 Q494 -19 561.5 3.5 Q629 26 679.5 65 Q730 104 759.5 156.5 Q789 209 789 269 Q789 329 759.5 381.5 Q730 434 679.5 473 Q629 512 561.5 534.5 Q494 557 417 557 Z " />
<glyph glyph-name="i" unicode="i" horiz-adv-x="833" d="M815 311 Q823 311 828 306 Q833 301 833 293 Q833 207 800 131.5 Q767 56 710.5 -0.5 Q654 -57 578.5 -90 Q503 -123 417 -123 Q331 -123 255 -90 Q179 -57 122.5 -0.5 Q66 56 33.5 131.5 Q1 207 1 293 Q1 379 33.5 455 Q66 531 122.5 587.5 Q179 644 255 676.5 Q331 709 417 709 Q486 709 550 687.5 Q614 666 669 624 L748 704 Q757 713 766 708 Q778 705 778 693 L792 416 Q792 408 787 403 Q782 398 775 398 L486 400 Q475 400 470 411 Q465 421 474 430 L563 516 Q496 560 417 560 Q362 560 313.5 539 Q265 518 228.5 481.5 Q192 445 171 396.5 Q150 348 150 293 Q150 238 171 189.5 Q192 141 228.5 105 Q265 69 313.5 48 Q362 27 417 27 Q472 27 520.5 48 Q569 69 605 105 Q641 141 662 189.5 Q683 238 683 293 Q683 301 688 306 Q693 311 701 311 L815 311 L815 311 Z " />
<glyph glyph-name="j" unicode="j" horiz-adv-x="833" d="M833 303 L403 -123 L403 126 L0 126 L0 437 L403 437 L403 705 L833 303 L833 303 Z " />
<glyph glyph-name="k" unicode="k" horiz-adv-x="833" d="M0 280 L430 705 L430 456 L833 456 L833 145 L430 145 L430 -123 L0 280 L0 280 Z " />
<glyph glyph-name="l" unicode="l" horiz-adv-x="833" d="M60 -120 L0 -120 L0 713 L60 713 L60 -120 L60 -120 Z M500 498 L500 238 L600 238 L833 498 L500 498 L500 498 Z M458 288 L116 288 L116 655 L458 655 L458 288 L458 288 Z " />
<glyph glyph-name="m" unicode="m" horiz-adv-x="833" d="M213 152 L213 205 L621 205 L621 152 L213 152 Z M213 32 L213 85 L621 85 L621 32 L213 32 Z M462 711 L737 421 L737 -121 L96 -121 L96 711 L462 711 Z M474 634 L474 434 L664 434 L474 634 Z M693 -77 L693 390 L430 390 L430 667 L141 667 L141 -77 L693 -77 Z " />
<glyph glyph-name="n" unicode="n" horiz-adv-x="833" d="M466 -123 L466 -32 L371 -32 L371 -123 L48 -123 Q71 -86 95 -55 Q115 -29 138 -4 Q161 21 181 31 Q196 39 227.5 44 Q259 49 291 52 Q328 56 371 58 L371 14 L466 14 L466 58 Q504 56 537 52 Q566 49 594.5 44 Q623 39 638 31 Q658 21 683.5 -4 Q709 -29 732 -55 Q759 -86 788 -123 L466 -123 Z M466 58 L371 58 L371 92 Q345 104 321 126 Q297 148 278 177.5 Q259 207 248 243 Q237 279 237 318 Q237 361 244.5 394 Q252 427 264 451 Q276 475 291.5 490.5 Q307 506 323 516 Q361 539 409 540 Q457 539 495 515 Q511 505 526.5 488.5 Q542 472 554.5 447.5 Q567 423 574.5 389 Q582 355 582 310 Q582 282 573 249.5 Q564 217 548.5 186.5 Q533 156 511.5 130.5 Q490 105 466 92 L466 58 Z M659 463 L554 590 L605 634 L660 565 L786 708 L836 663 L659 463 Z " />
<glyph glyph-name="o" unicode="o" horiz-adv-x="833" d="M759 670 L793 637 L665 508 L631 541 L759 670 Z M832 675 L803 646 L769 680 L798 709 L832 675 Z M654 496 L595 471 L620 530 L654 496 Z M635 30 Q655 20 680.5 -5 Q706 -30 729 -56 Q756 -87 785 -124 L463 -124 L463 -33 L368 -33 L368 -124 L45 -124 Q68 -87 92 -56 Q112 -30 135 -5 Q158 20 178 30 Q193 38 224.5 43 Q256 48 288 51 Q325 55 368 57 L368 13 L463 13 L463 57 Q501 55 534 51 Q563 48 591.5 43 Q620 38 635 30 Z M463 57 L368 57 L368 91 Q342 103 318 125 Q294 147 275 176.5 Q256 206 245 242 Q234 278 234 317 Q234 360 241.5 393 Q249 426 261 450 Q273 474 288.5 489.5 Q304 505 320 515 Q358 538 406 539 Q454 538 492 514 Q508 504 523.5 487.5 Q539 471 551.5 446.5 Q564 422 571.5 388 Q579 354 579 309 Q579 281 570 248.5 Q561 216 545.5 185.5 Q530 155 508.5 129.5 Q487 104 463 91 L463 57 Z " />
<glyph glyph-name="p" unicode="p" horiz-adv-x="833" d="M635 31 Q655 21 680.5 -4 Q706 -29 729 -55 Q756 -86 785 -123 L463 -123 L463 -32 L368 -32 L368 -123 L45 -123 Q68 -86 92 -55 Q112 -29 135 -4 Q158 21 178 31 Q193 39 224.5 44 Q256 49 288 52 Q325 56 368 58 L368 14 L463 14 L463 58 Q501 56 534 52 Q563 49 591.5 44 Q620 39 635 31 Z M463 58 L368 58 L368 92 Q342 104 318 126 Q294 148 275 177.5 Q256 207 245 243 Q234 279 234 318 Q234 361 241.5 394 Q249 427 261 451 Q273 475 288.5 490.5 Q304 506 320 516 Q358 539 406 540 Q454 539 492 515 Q508 505 523.5 488.5 Q539 472 551.5 447.5 Q564 423 571.5 389 Q579 355 579 310 Q579 282 570 249.5 Q561 217 545.5 186.5 Q530 156 508.5 130.5 Q487 105 463 92 L463 58 Z M814 547 Q820 543 826.5 538 Q833 533 833 526 Q833 518 826.5 512 Q820 506 810 506 Q802 506 795.5 510 Q789 514 784 518 L740 549 L740 493 Q740 473 717 473 Q693 473 693 493 L693 549 L649 518 Q644 514 638 510 Q632 506 624 506 Q613 506 606.5 512 Q600 518 600 526 Q600 533 606.5 538 Q613 543 619 547 L681 591 L613 638 Q608 642 604 646 Q600 650 600 655 Q600 663 606.5 669.5 Q613 676 624 676 Q629 676 634 673.5 Q639 671 643 668 L693 633 L693 689 Q693 709 717 709 Q740 709 740 689 L740 633 L791 668 Q795 671 799.5 673.5 Q804 676 810 676 Q820 676 826.5 669.5 Q833 663 833 655 Q833 650 829.5 646 Q826 642 821 638 L753 591 L814 547 Z " />
<glyph glyph-name="q" unicode="q" horiz-adv-x="833" d="M79 -124 L369 -124 L369 -30 L475 -30 L475 -124 L833 -124 Q801 -87 771 -54 Q745 -26 716.5 0 Q688 26 667 36 Q650 44 618 49.5 Q586 55 554 58 Q517 62 475 64 L475 19 L369 19 L369 64 Q351 63 333 61 Q317 59 297 57.5 Q277 56 256 54 L79 -124 Z M598 400 Q604 367 604 325 Q604 296 594 262.5 Q584 229 566.5 197.5 Q549 166 525.5 140 Q502 114 475 100 L475 64 L369 64 L369 99 Q345 110 326 125 L598 400 Z M548 505 Q527 528 503 540.5 Q479 553 459 558 Q435 564 413 564 Q359 564 317 539 Q299 528 281.5 511.5 Q264 495 250.5 470.5 Q237 446 229 412 Q221 378 221 333 Q221 299 229.5 267.5 Q238 236 254 208 L548 505 Z M23 -123 Q14 -123 7 -116 Q0 -110 0 -100.5 Q0 -91 7 -85 L796 703 Q803 710 812 710 Q821 710 828 703 Q835 696 835 687 Q835 678 828 671 L39 -116 Q33 -123 23 -123 Z " />
<glyph glyph-name="r" unicode="r" horiz-adv-x="833" d="M396 -114 L107 166 Q105 167 88.5 184 Q72 201 52.5 229 Q33 257 17 294.5 Q1 332 1 374 Q1 476 59.5 533.5 Q118 591 223 591 Q253 591 282 580.5 Q311 570 336.5 554.5 Q362 539 382.5 521.5 Q403 504 417 490 Q430 504 450.5 521.5 Q471 539 496.5 554.5 Q522 570 551 580.5 Q580 591 611 591 Q715 591 773.5 533.5 Q832 476 832 374 Q832 332 816 294.5 Q800 257 780.5 229 Q761 201 744 183.5 Q727 166 726 165 L437 -114 Q427 -122 417 -122 Q406 -122 396 -114 Z " />
<glyph glyph-name="s" unicode="s" horiz-adv-x="833" d="M763 577 Q796 549 814.5 505.5 Q833 462 833 407 Q833 366 817 329 Q801 292 781.5 264 Q762 236 745 219 Q728 202 726 201 L436 -75 Q429 -83 416 -83 Q403 -83 395 -75 L250 66 L763 577 Z M105 201 Q103 202 86.5 219 Q70 236 50.5 264 Q31 292 15 329 Q-1 366 -1 407 Q-1 509 57.5 565.5 Q116 622 221 622 Q252 622 281 611.5 Q310 601 335.5 586 Q361 571 381.5 553.5 Q402 536 416 523 Q430 536 450.5 554 Q471 572 496.5 587.5 Q522 603 551 613 Q580 623 611 622 Q624 621 635.5 620.5 Q647 620 656 619 Q667 618 675 616 L182 128 L105 201 Z M827 703 Q834 696 834 687 Q834 678 827 671 L37 -112 Q31 -118 21 -118 Q11 -118 5 -112 Q-2 -105 -2 -96 Q-2 -87 5 -80 L795 703 Q802 710 811 710 Q820 710 827 703 Z " />
<glyph glyph-name="t" unicode="t" horiz-adv-x="833" d="M761 707 Q795 707 814 688.5 Q833 670 833 637 Q833 623 828 611 Q823 599 816.5 590 Q810 581 804.5 575 Q799 569 799 569 L705 478 Q703 476 698 476 Q693 476 691 478 L597 569 Q597 569 591.5 575 Q586 581 579.5 590 Q573 599 568 611 Q563 623 563 637 Q563 670 582 688.5 Q601 707 635 707 Q655 707 672 695.5 Q689 684 698 675 Q707 684 724 695.5 Q741 707 761 707 Z M637 30 Q657 20 682.5 -5 Q708 -30 731 -56 Q758 -87 787 -124 L464 -124 L464 -33 L369 -33 L369 -124 L46 -124 Q69 -87 93 -56 Q113 -30 136 -5 Q159 20 179 30 Q194 38 225.5 42.5 Q257 47 289 51 Q326 55 369 58 L369 13 L464 13 L464 58 Q502 55 535 51 Q564 47 592.5 42.5 Q621 38 637 30 Z M464 58 L369 58 L369 92 Q343 104 319 126 Q295 148 276 177.5 Q257 207 246 243 Q235 279 235 318 Q235 361 242.5 394 Q250 427 262 451 Q274 475 289.5 491 Q305 507 321 517 Q359 541 408 541 Q456 541 494 516 Q510 505 525.5 488.5 Q541 472 553.5 447.5 Q566 423 573.5 389 Q581 355 581 310 Q581 282 572 249.5 Q563 217 547 186.5 Q531 156 509.5 130.5 Q488 105 464 92 L464 58 Z " />
<glyph glyph-name="u" unicode="u" horiz-adv-x="833" d="M587 571 Q587 571 581.5 576.5 Q576 582 570 591 Q564 600 559 611.5 Q554 623 554 636 Q554 668 572.5 686 Q591 704 623 704 Q643 704 659.5 692.5 Q676 681 684 673 Q693 681 709 692.5 Q725 704 745 704 Q756 704 769 699 L615 547 L587 571 Z M631 29 Q651 19 676.5 -6 Q702 -31 725 -57 Q752 -88 780 -124 L459 -124 L459 -34 L364 -34 L364 -124 L72 -124 L238 45 Q258 47 280 49 Q302 51 321 53 Q343 55 364 56 L364 12 L459 12 L459 56 Q497 54 530 50 Q559 47 587 42 Q615 37 631 29 Z M459 56 L364 56 L364 91 Q354 96 342 106.5 Q330 117 321 125 L567 373 Q569 367 571 358 Q573 350 574 337.5 Q575 325 575 308 Q575 279 566 246.5 Q557 214 541.5 184 Q526 154 504.5 129 Q483 104 459 91 L459 56 Z M259 198 Q245 224 237.5 253 Q230 282 230 315 Q230 358 237.5 391 Q245 424 257 448 Q269 472 284.5 487.5 Q300 503 316 513 Q354 536 403 537 Q424 537 447 531 Q466 525 489 511.5 Q512 498 533 470 L259 198 Z M826 699 Q833 692 833 683 Q833 674 826 667 L39 -118 Q32 -125 23 -125 Q13 -125 7 -119 Q0 -112 0 -103 Q0 -94 7 -87 L794 699 Q801 706 810 706 Q819 706 826 699 Z " />
<glyph glyph-name="v" unicode="v" horiz-adv-x="833" d="M141 462 L248 462 L248 351 L141 351 L141 462 Z M290 462 L397 462 L397 351 L290 351 L290 462 Z M439 462 L546 462 L546 351 L439 351 L439 462 Z M588 462 L695 462 L695 351 L588 351 L588 462 Z M141 305 L248 305 L248 194 L141 194 L141 305 Z M290 305 L397 305 L397 194 L290 194 L290 305 Z M439 305 L546 305 L546 194 L439 194 L439 305 Z M588 305 L695 305 L695 194 L588 194 L588 305 Z M141 148 L248 148 L248 37 L141 37 L141 148 Z M290 148 L397 148 L397 37 L290 37 L290 148 Z M439 148 L546 148 L546 37 L439 37 L439 148 Z M588 148 L695 148 L695 37 L588 37 L588 148 Z M834 629 L834 -124 L0 -124 L0 629 L247 629 L247 664 Q247 681 260 693 Q273 705 290 705 Q308 705 320.5 693 Q333 681 333 664 L333 629 L503 629 L503 664 Q503 681 515.5 693 Q528 705 546 705 Q563 705 576 693 Q589 681 589 664 L589 629 L834 629 Z M801 598 L589 598 L589 570 Q589 553 576 541 Q563 529 546 529 Q528 529 515.5 541 Q503 553 503 570 L503 598 L333 598 L333 570 Q333 553 320.5 541 Q308 529 290 529 Q273 529 260 541 Q247 553 247 570 L247 598 L32 598 L32 -93 L801 -93 L801 598 Z " />
<glyph glyph-name="w" unicode="w" horiz-adv-x="833" d="M415 607 Q491 607 557.5 578 Q624 549 673.5 499.5 Q723 450 752 383.5 Q781 317 781 242 Q781 166 752.5 100.5 Q724 35 675 -16 L724 -90 Q729 -98 727 -106.5 Q725 -115 717 -120 Q713 -124 705 -124 Q694 -124 687 -114 L641 -45 Q594 -82 536.5 -103 Q479 -124 415 -124 Q347 -124 286.5 -101 Q226 -78 178 -37 L127 -114 Q120 -124 109 -124 Q101 -124 96 -120 Q88 -115 86.5 -106.5 Q85 -98 90 -90 L146 -5 Q101 44 75.5 107 Q50 170 50 242 Q50 317 78.5 383.5 Q107 450 156.5 499.5 Q206 549 272.5 578 Q339 607 415 607 Z M94 242 Q94 176 119.5 117 Q145 58 188.5 14.5 Q232 -29 290.5 -54.5 Q349 -80 415 -80 Q476 -80 529.5 -59 Q583 -38 626 0 Q628 5 633 8 Q635 8 636 9 Q683 54 709.5 113.5 Q736 173 736 242 Q736 308 710.5 366.5 Q685 425 641.5 468.5 Q598 512 539.5 537.5 Q481 563 415 563 Q349 563 290.5 537.5 Q232 512 188.5 468.5 Q145 425 119.5 366.5 Q94 308 94 242 Z M634 219 L393 219 L393 453 L437 453 L437 264 L634 264 L634 219 Z M678 678 Q735 652 761 622 Q787 592 795 565 Q805 533 798 502 L468 649 Q483 676 511 691 Q535 703 575.5 704.5 Q616 706 678 678 Z M155 678 Q216 706 257 704.5 Q298 703 322 691 Q350 676 366 649 L35 502 Q28 533 38 565 Q46 592 72 622 Q98 652 155 678 Z " />
<glyph glyph-name="x" unicode="x" horiz-adv-x="833" d="M829 33 Q832 31 832 27 Q832 24 829 21 L688 -119 Q685 -122 682 -122 Q679 -122 676 -119 L417 142 L157 -119 Q155 -122 151 -122 Q148 -122 145 -119 L4 21 Q2 25 2 27 Q2 31 4 33 L265 295 L4 556 Q2 558 2 562 Q2 565 4 567 L145 708 Q151 714 157 708 L417 447 L676 708 Q683 713 688 708 L829 567 Q832 565 832 562 Q832 557 829 556 L569 295 L829 33 Z " />
<glyph glyph-name="y" unicode="y" horiz-adv-x="833" d="M133 706 L742 313 L127 -123 L127 709 L133 706 L133 706 Z " />
<glyph glyph-name="z" unicode="z" horiz-adv-x="833" d="M417 -120 Q396 -120 382 -106 L107 160 Q77 188 53 222 Q33 251 16 289.5 Q-1 328 -1 373 Q-1 426 15.5 468 Q32 510 62 539.5 Q92 569 135 585 Q178 601 232 601 Q260 601 286.5 592.5 Q313 584 337 571.5 Q361 559 381 543.5 Q401 528 417 514 Q432 528 452.5 543.5 Q473 559 496.5 571.5 Q520 584 546.5 592.5 Q573 601 601 601 Q655 601 698 585 Q741 569 771.5 539.5 Q802 510 818 468 Q834 426 834 373 Q834 334 821 299 Q808 264 790 236 Q772 208 754 188 Q736 168 727 159 L451 -106 Q437 -120 417 -120 Z M232 558 Q141 558 91.5 510 Q42 462 42 373 Q42 337 56.5 304 Q71 271 88.5 246 Q106 221 121 206 Q136 191 136 191 L412 -75 Q417 -80 421 -75 L696 190 Q702 196 718 212.5 Q734 229 750 253.5 Q766 278 778.5 309 Q791 340 791 373 Q791 462 741.5 510 Q692 558 601 558 Q574 558 548 548 Q522 538 499.5 523.5 Q477 509 459.5 494 Q442 479 432 469 L417 454 L402 469 Q389 481 370.5 496.5 Q352 512 330 525.5 Q308 539 283 548.5 Q258 558 232 558 Z " />
<glyph glyph-name="one" unicode="1" horiz-adv-x="833" d="M738 417 L738 -124 L98 -124 L98 9 L36 9 Q23 9 14.5 19 Q6 29 6 44 L6 259 Q6 273 14.5 283.5 Q23 294 36 294 L98 294 L98 707 L463 707 L738 417 Z M476 430 L665 430 L476 630 L476 430 Z M121 127 Q124 126 134 126 Q170 126 190 144 Q206 160 206 186 Q206 212 188 225 Q171 239 135 239 Q100 239 82 236 L82 65 L121 65 L121 127 Z M694 386 L432 386 L432 663 L142 663 L142 294 L561 294 Q573 294 582 283.5 Q591 273 591 259 L591 44 Q591 29 582 19 Q573 9 561 9 L142 9 L142 -80 L694 -80 L694 386 Z M231 66 Q239 65 249.5 64 Q260 63 275 63 Q327 63 355 86 Q367 97 375.5 114 Q384 131 384 156 Q384 179 376 194.5 Q368 210 354 221 Q342 230 325.5 234.5 Q309 239 284 239 Q252 239 231 236 L231 66 Z M448 166 L448 206 L515 206 L515 238 L409 238 L409 65 L448 65 L448 135 L510 135 L510 166 L448 166 Z M137 210 Q167 210 167 184 Q167 156 134 156 Q124 156 121 157 L121 208 Q127 210 137 210 Z M288 209 Q313 209 327.5 195 Q342 181 342 154 Q342 123 326 108.5 Q310 94 284 94 Q280 94 276 94 Q272 94 270 95 L270 208 Q272 208 276.5 208.5 Q281 209 288 209 Z " />
<glyph glyph-name="zero" unicode="0" horiz-adv-x="833" d="M736 419 L736 -122 L97 -122 L97 709 L462 709 L736 419 Z M474 432 L663 432 L474 631 L474 432 Z M692 388 L430 388 L430 665 L141 665 L141 -78 L692 -78 L692 388 Z M224 261 Q224 286 235.5 302.5 Q247 319 264 319 L572 319 Q589 319 600.5 302.5 Q612 286 612 261 L612 46 Q612 21 600.5 5 Q589 -11 572 -11 L264 -11 Q247 -11 235.5 5 Q224 21 224 46 L224 261 Z M491 260 Q474 260 462.5 248.5 Q451 237 451 220 Q451 203 462.5 191 Q474 179 491 179 Q508 179 520 191 Q532 203 532 220 Q532 237 520 248.5 Q508 260 491 260 Z M271 99 Q269 83 269 70 Q269 59 270 47 Q271 35 275 29 Q277 25 283 23.5 Q289 22 296 21 L312 19 L343 19 L350 19 L466 19 L518 19 Q527 19 535 20 Q542 21 549 23.5 Q556 26 561 31 Q569 42 567 51 Q566 56 564 61 Q558 75 550 86 Q542 95 531.5 103 Q521 111 506 111 Q489 111 466.5 101 Q444 91 422 77 Q412 88 400.5 100.5 Q389 113 376.5 123 Q364 133 352.5 139.5 Q341 146 331 146 Q317 146 306.5 138.5 Q296 131 288 122 Q278 111 271 99 Z " />
<glyph glyph-name="two" unicode="2" horiz-adv-x="833" d="M737 419 L737 -123 L96 -123 L96 709 L462 709 L737 419 Z M474 432 L664 432 L474 632 L474 432 Z M693 388 L430 388 L430 665 L141 665 L141 -79 L693 -79 L693 388 Z M425 278 L495 278 L495 141 L540 220 Q542 223 543 227 Q544 233 540 239 Q535 242 529 242 L522 242 L522 278 L637 278 L637 242 Q632 242 628 241 Q624 240 619.5 238.5 Q615 237 613 233 Q611 230 604.5 218.5 Q598 207 588.5 189 Q579 171 568 149 Q557 127 545 104 Q518 50 484 -16 L408 -16 L408 117 L338 -16 L272 -16 L272 209 Q273 215 272 220 Q271 225 269.5 229.5 Q268 234 264 237 Q261 239 256 239.5 Q251 240 246 241 Q241 242 235 242 L235 278 L375 278 L375 242 L362 242 Q357 241 351.5 240 Q346 239 342 235 Q339 232 338 228 Q337 224 336 220 Q335 216 336 211 L336 141 L425 278 Z " />
<glyph glyph-name="three" unicode="3" horiz-adv-x="833" d="M737 416 L737 -125 L97 -125 L97 706 L462 706 L737 416 Z M474 429 L663 429 L474 629 L474 429 Z M692 385 L430 385 L430 662 L141 662 L141 -81 L692 -81 L692 385 Z M420 249 L460 288 Q461 290 465 290 L597 290 Q601 290 603 287 Q605 282 602 279 L506 157 L597 157 Q603 157 603 151 L604 116 Q605 114 603 112 L577 80 L601 62 Q604 59 604 56 L603 17 Q603 11 597 11 L486 11 Q483 11 482 12 L466 29 L241 29 L240 29 Q236 29 234 34 Q233 35 233 36.5 Q233 38 235 40.5 Q237 43 241.5 47.5 Q246 52 254 60 L295 101 Q312 118 327.5 133 Q343 148 350 155 L241 279 Q238 282 240 286 Q241 290 246 290 L385 290 Q389 290 391 288 L420 249 Z M303 273 L278 273 L497 30 L519 30 L303 273 Z " />
<glyph glyph-name="four" unicode="4" horiz-adv-x="833" d="M737 419 L737 -123 L96 -123 L96 710 L462 710 L737 419 Z M474 432 L664 432 L474 632 L474 432 Z M693 388 L430 388 L430 666 L140 666 L140 -79 L693 -79 L693 388 Z M289 296 Q315 290 342 284.5 Q369 279 396 273 Q425 267 453 261.5 Q481 256 509 249 Q528 244 544.5 235.5 Q561 227 570 208 Q576 197 579 185 Q582 173 584 161 Q586 152 585.5 142.5 Q585 133 583 125 Q580 106 568 94 Q556 82 539 77 Q521 72 502.5 69 Q484 66 464 62 Q459 64 453.5 66 Q448 68 444 71 Q434 79 437.5 90.5 Q441 102 452 104 Q462 106 472 107 Q482 108 492 109 Q530 114 526 151 Q526 157 525 162.5 Q524 168 522 174 Q517 190 506 197 Q495 204 481 206 Q446 211 410 215.5 Q374 220 339 225 Q322 228 304.5 230.5 Q287 233 270 238 Q257 242 251.5 253.5 Q246 265 249 276 Q253 288 264 293.5 Q275 299 289 296 Z M397 146 Q402 117 409 87.5 Q416 58 422 28 Q425 16 421 4 Q417 -8 408 -16.5 Q399 -25 387 -29.5 Q375 -34 362 -32 Q320 -26 311 14 Q303 47 294.5 79.5 Q286 112 278 144 Q276 149 276 153.5 Q276 158 275 163 Q275 180 284.5 190.5 Q294 201 311 204 Q326 207 340 203 Q354 199 366 190.5 Q378 182 386 170.5 Q394 159 397 146 Z " />
<glyph glyph-name="five" unicode="5" horiz-adv-x="833" d="M465 185 Q465 156 431 156 Q426 156 423 156.5 Q420 157 418 157 L418 209 Q424 211 434 211 Q465 211 465 185 Z M738 418 L738 -124 L97 -124 L97 9 L35 9 Q22 9 13 19.5 Q4 30 4 44 L4 260 Q4 274 13 284.5 Q22 295 35 295 L97 295 L97 709 L463 709 L738 418 Z M475 431 L665 431 L475 631 L475 431 Z M97 64 L233 64 L233 97 L150 97 L150 98 L232 216 L232 239 L105 239 L105 206 L180 206 L180 205 L97 86 L97 64 Z M694 387 L431 387 L431 665 L141 665 L141 295 L560 295 Q573 295 582 284.5 Q591 274 591 260 L591 44 Q591 30 582 19.5 Q573 9 560 9 L141 9 L141 -80 L694 -80 L694 387 Z M323 64 L323 239 L283 239 L283 64 L323 64 Z M418 64 L418 127 Q421 126 431 126 Q467 126 488 144 Q504 160 504 186 Q504 213 485 226 Q470 240 432 240 Q397 240 379 237 L379 64 L418 64 Z " />
<glyph glyph-name="six" unicode="6" horiz-adv-x="833" d="M817 -51 Q831 -64 831 -82.5 Q831 -101 817 -115 Q804 -128 785 -128 Q766 -128 753 -115 L499 139 Q498 140 498 140.5 Q498 141 497 142 Q458 113 411.5 97 Q365 81 312 81 Q248 81 192 105 Q136 129 94 171 Q52 213 27.5 269.5 Q3 326 3 390 Q3 454 27.5 510 Q52 566 94 608 Q136 650 192 674.5 Q248 699 312 699 Q376 699 432.5 674.5 Q489 650 531 608 Q573 566 597 510 Q621 454 621 390 Q621 338 605 291 Q589 244 560 205 Q561 204 561.5 204 Q562 204 563 203 L817 -51 Z M49 390 Q49 335 69.5 287 Q90 239 126 203 Q162 167 210 146.5 Q258 126 312 126 Q367 126 415 146.5 Q463 167 499 203 Q535 239 555.5 287 Q576 335 576 390 Q576 444 555.5 492 Q535 540 499 576 Q463 612 415 632.5 Q367 653 312 653 Q258 653 210 632.5 Q162 612 126 576 Q90 540 69.5 492 Q49 444 49 390 Z " />
<glyph glyph-name="seven" unicode="7" horiz-adv-x="833" d="M36 -72 Q44 -70 53 -68.5 Q62 -67 73 -66 Q93 -62 109.5 -58 Q126 -54 140 -49 Q148 -36 151 -21 Q153 -3 154.5 23 Q156 49 156 84 L155 354 Q154 375 153 429 Q152 483 150 572 Q148 620 144 632 Q143 634 141.5 635 Q140 636 138 638 Q126 645 100 646 Q94 647 78.5 648.5 Q63 650 38 653 L36 698 L177 701 L383 709 L407 709 Q411 709 415 709.5 Q419 710 423 710 Q426 710 434 709.5 Q442 709 456 709 L496 709 Q543 709 600 694 Q619 690 652 673 Q668 665 681.5 654.5 Q695 644 707 632 Q732 606 742 576 Q754 544 754 510 Q754 471 736 440 Q719 410 685 383 Q669 371 604 342 Q700 319 748 262 Q798 204 798 135 Q798 93 783 47 Q770 12 744 -16 Q707 -56 668 -75 Q628 -95 558 -107 Q540 -111 513.5 -113 Q487 -115 451 -113 L344 -111 Q309 -110 269.5 -112 Q230 -114 183 -117 Q169 -119 132.5 -120 Q96 -121 35 -123 L36 -72 Z M387 355 Q483 355 531 390 Q579 427 579 512 Q579 573 533 613 Q486 654 394 654 Q381 654 363.5 652.5 Q346 651 324 647 Q324 639 324 629 Q324 619 325 605 Q327 578 328 540.5 Q329 503 328 454 L328 401 L328 359 Q341 357 355.5 356 Q370 355 387 355 Z M412 -63 Q482 -63 529 -41 Q575 -18 595 21 Q616 60 616 119 Q616 181 593 216 Q561 267 517 285 Q474 302 383 302 Q346 302 328 297 L328 219 L328 125 L329 -22 Q329 -29 336 -45 Q376 -63 412 -63 Z " />
<glyph glyph-name="eight" unicode="8" horiz-adv-x="833" d="M149 -75 Q156 -73 166.5 -70.5 Q177 -68 191 -64 Q231 -54 253 -43 Q268 -25 276 12 L290 87 L320 232 L327 266 Q339 330 348.5 362 Q358 394 358 396 L374 481 L383 515 L395 588 L399 615 L399 635 Q388 642 368.5 645.5 Q349 649 321 651 Q310 651 300 653 L311 708 L482 701 Q498 700 507.5 700 Q517 700 521 700 Q539 700 568 701 Q597 702 637 705 Q682 708 693 708 Q692 702 691.5 697.5 Q691 693 690 688 Q689 683 687 676 Q685 669 683 660 Q670 655 655.5 651 Q641 647 624 644 Q608 639 594.5 635.5 Q581 632 570 627 Q563 612 557 579 Q554 565 552.5 554 Q551 543 550 535 Q526 427 514 370 L481 201 L460 116 L437 -11 L431 -35 Q429 -40 431 -50 Q448 -54 464.5 -56.5 Q481 -59 496 -61 Q498 -62 507 -63 Q516 -64 531 -67 Q531 -76 530 -84 Q529 -92 527 -98 Q526 -102 525.5 -107 Q525 -112 523 -120 Q513 -120 510 -121 Q500 -122 494.5 -122 Q489 -122 487 -122 Q485 -122 481 -121.5 Q477 -121 472 -120 Q468 -119 448.5 -117 Q429 -115 394 -111 L287 -110 Q271 -109 248 -111 Q225 -113 193 -116 Q173 -118 159.5 -119 Q146 -120 140 -121 L149 -75 Z " />
<glyph glyph-name="nine" unicode="9" horiz-adv-x="833" d="M2 660 L1 708 Q6 709 11.5 709 Q17 709 22 709 Q51 709 83 706 Q121 704 143.5 703 Q166 702 173 702 Q196 702 218.5 702.5 Q241 703 264 704 Q286 705 306 705.5 Q326 706 343 707 Q360 707 372 707 Q384 707 390 708 L389 700 L390 666 L390 661 Q374 659 357.5 657.5 Q341 656 323 656 Q290 656 280 642 Q273 633 273 571 Q273 561 273.5 553.5 Q274 546 274 539 L274 415 L282 263 Q285 196 310 154 Q328 123 362 104 Q409 79 458 79 Q513 79 561 94 Q575 99 588.5 105 Q602 111 615 121 Q642 142 650 156 Q661 173 667.5 188.5 Q674 204 679 218 Q690 260 690 342 Q690 378 689 400.5 Q688 423 685.5 444 Q683 465 680.5 491.5 Q678 518 675 564 L673 596 Q670 633 660 644 Q641 663 618 662 L564 661 L556 663 L557 710 L603 710 L714 704 Q742 702 768 704.5 Q794 707 820 710 L830 709 Q833 688 833 681 Q833 677 832.5 673 Q832 669 831 664 Q820 661 808.5 659.5 Q797 658 786 657 Q746 651 743 648 Q735 640 735 626 Q735 621 735.5 613 Q736 605 736 594 Q737 588 739 563 Q741 542 743 499 Q745 456 748 379 Q750 318 747.5 276.5 Q745 235 740 215 Q736 194 730.5 177.5 Q725 161 718 149 Q697 113 657 82 Q618 52 559 34 Q499 16 420 16 Q329 16 266 41 Q202 67 169 107 Q153 127 141.5 153.5 Q130 180 124 212 Q119 235 117.5 267 Q116 299 116 341 L116 521 Q116 622 106 637 Q93 656 27 658 Q19 659 13 659 Q7 659 2 660 Z M833 -71 Q833 -54 816 -54 L18 -54 Q1 -54 1 -71 L1 -106 Q1 -113 5.5 -118 Q10 -123 18 -123 L816 -123 Q824 -123 828.5 -118 Q833 -113 833 -106 L833 -71 Z " />
<glyph glyph-name="colon" unicode="&#x3a;" horiz-adv-x="833" d="M580 508 L-1 508 L-1 613 L580 613 L580 508 L580 508 Z M835 297 L-1 297 L-1 402 L835 402 L835 297 L835 297 Z M703 86 L-1 86 L-1 192 L703 192 L703 86 L703 86 Z M835 -124 L-1 -124 L-1 -19 L835 -19 L835 -124 L835 -124 Z " />
<glyph glyph-name="semicolon" unicode="&#x3b;" horiz-adv-x="833" d="M587 581 L587 481 L234 481 L234 581 L587 581 Z M751 380 L751 279 L70 279 L70 380 L751 380 Z M645 77 L175 77 L175 178 L645 178 L645 77 Z M0 -24 L833 -24 L833 -125 L0 -125 L0 -24 Z " />
<glyph glyph-name="equal" unicode="&#x3d;" horiz-adv-x="833" d="M254 506 L254 610 L833 610 L833 506 L254 506 Z M0 296 L0 401 L833 401 L833 296 L0 296 Z M131 86 L131 191 L833 191 L833 86 L131 86 Z M0 -124 L0 -19 L833 -19 L833 -124 L0 -124 Z " />
<glyph glyph-name="question" unicode="&#x3f;" horiz-adv-x="833" d="M833 489 L245 489 L245 603 L833 603 L833 489 Z M833 259 L245 259 L245 373 L833 373 L833 259 Z M833 32 L245 32 L245 146 L833 146 L833 32 Z M179 546 Q179 509 153 483 Q127 457 89 457 Q52 457 26 483 Q0 509 0 546 Q0 583 26 609 Q52 635 89 635 Q127 635 153 609 Q179 583 179 546 Z M179 316 Q179 279 153 253 Q127 227 89 227 Q52 227 26 253 Q0 279 0 316 Q0 354 26 380 Q52 406 89 406 Q127 406 153 380 Q179 354 179 316 Z M179 89 Q179 51 153 25 Q127 -1 89 -1 Q52 -1 26 25 Q0 51 0 89 Q0 126 26 152 Q52 178 89 178 Q127 178 153 152 Q179 126 179 89 Z " />
<glyph glyph-name="at" unicode="&#x40;" horiz-adv-x="833" d="M162 203 L4 203 Q1 215 1 227 Q1 257 16.5 275.5 Q32 294 50.5 307.5 Q69 321 84.5 331.5 Q100 342 100 356 Q100 367 93.5 373 Q87 379 76 379 Q65 379 55.5 371 Q46 363 41 354 L4 379 Q15 402 35.5 414 Q56 426 81 426 Q111 426 133.5 408.5 Q156 391 156 359 Q156 335 141.5 319 Q127 303 109 291 Q91 279 76 269 Q61 259 60 246 L116 246 L116 272 L162 272 L162 203 Z M78 -76 Q57 -76 37 -69 Q17 -62 3 -47 L28 -9 Q36 -17 48.5 -23 Q61 -29 74 -29 Q85 -29 95 -23 Q105 -17 105 -4 Q105 5 100.5 10.5 Q96 16 89 18.5 Q82 21 74 21 Q66 21 59 21 L48 45 Q60 60 71.5 75.5 Q83 91 97 104 L97 105 Q86 105 76 104.5 Q66 104 55 104 L55 81 L8 81 L8 147 L154 147 L154 109 L112 59 Q134 54 147.5 38 Q161 22 161 -1 Q161 -37 136.5 -56.5 Q112 -76 78 -76 Z M162 500 L16 500 L16 543 L63 543 L63 649 L63 654 L62 654 Q58 646 52.5 641 Q47 636 40 630 L9 664 L69 719 L115 719 L115 543 L162 543 L162 500 Z M833 493 L245 493 L245 607 L833 607 L833 493 Z M833 263 L245 263 L245 377 L833 377 L833 263 Z M833 36 L245 36 L245 149 L833 149 L833 36 Z " />
<glyph glyph-name="underscore" unicode="&#x5f;" horiz-adv-x="833" d="M789 -6 L714 -80 Q694 -101 667 -111.5 Q640 -122 611 -122 Q582 -122 554.5 -111 Q527 -100 507 -79 L402 26 Q381 47 370.5 74 Q360 101 360 130 Q360 160 371.5 187.5 Q383 215 404 236 L360 281 Q339 260 311.5 248 Q284 236 254 236 Q225 236 197.5 247.5 Q170 259 150 279 L44 385 Q1 428 1 489 Q1 518 12.5 545 Q24 572 44 592 L119 667 Q163 709 223 709 Q252 709 279 698 Q306 687 326 666 L431 560 Q452 540 463 513 Q474 486 474 457 Q474 427 462 399 Q450 371 429 350 L474 306 Q518 350 580 350 Q609 350 636 339 Q663 328 684 308 L790 202 Q811 181 821.5 154 Q832 127 832 98 Q832 69 820.5 41.5 Q809 14 789 -6 Z M362 492 L257 597 Q243 611 223 611 Q203 611 188 598 L113 523 Q99 509 99 489 Q99 468 113 454 L219 348 Q232 335 254 335 Q275 335 290 350 Q277 363 265.5 375 Q254 387 254 407 Q254 428 268 442 Q282 456 303 456 Q322 456 334.5 444.5 Q347 433 360 420 Q376 436 376 457 Q376 476 362 492 Z M720 132 L614 238 Q600 253 580 253 Q558 253 543 236 Q556 223 568 211 Q580 199 580 179 Q580 159 565.5 144.5 Q551 130 531 130 Q511 130 499 142 Q487 154 474 167 Q457 152 457 130 Q457 109 471 95 L576 -10 Q589 -24 611 -24 Q620 -24 629 -21 Q638 -18 645 -11 L720 64 Q735 77 735 98 Q735 118 720 132 Z " />
<glyph glyph-name="slash" unicode="&#x2f;" horiz-adv-x="833" d="M837 -124 L0 -124 L0 713 L837 713 L837 -124 L837 -124 Z " />
<glyph glyph-name="backslash" unicode="&#x5c;" horiz-adv-x="833" d="M420 709 L834 345 Q829 343 823.5 342 Q818 341 812 341 L29 341 Q23 341 17.5 342 Q12 343 7 345 L420 709 Z M573 107 L830 -90 Q830 -88 831 -86 Q832 -84 832 -82 L832 325 Q832 327 831 329.5 Q830 332 829 334 L573 107 Z M287 85 L24 -117 Q38 -124 53 -124 L781 -124 Q795 -124 809 -117 L547 85 L415 -32 L287 85 Z M4 341 Q-1 333 -1 325 L-1 -82 Q-1 -84 0 -86 Q1 -88 1 -90 L260 109 L23 324 L4 341 Z " />
<glyph glyph-name="bar" unicode="&#x7c;" horiz-adv-x="833" d="M296 -124 L70 -124 L70 705 L296 705 L296 -124 L296 -124 Z M763 -124 L537 -124 L537 705 L763 705 L763 -124 L763 -124 Z " />
<glyph glyph-name="exclam" unicode="&#x21;" horiz-adv-x="833" d="M411 131 Q383 131 358 140.5 Q333 150 314.5 167 Q296 184 285 206.5 Q274 229 274 255 L274 585 Q274 611 285 633.5 Q296 656 314.5 673 Q333 690 358 700 Q383 710 411 710 Q439 710 464 700 Q489 690 508 673 Q527 656 537.5 633.5 Q548 611 548 585 L548 255 Q548 229 537.5 206.5 Q527 184 508 167 Q489 150 464 140.5 Q439 131 411 131 Z M648 356 L648 280 Q648 238 633.5 200 Q619 162 593.5 132 Q568 102 533.5 81.5 Q499 61 459 54 L459 -88 L567 -88 L567 -121 L274 -121 L274 -88 L377 -88 L377 53 Q336 60 301 80.5 Q266 101 240 131 Q214 161 199.5 199 Q185 237 185 280 L185 356 L230 356 L230 280 Q230 241 244.5 207.5 Q259 174 284.5 148.5 Q310 123 344 108.5 Q378 94 417 94 Q456 94 490 108.5 Q524 123 549.5 148.5 Q575 174 589.5 207.5 Q604 241 604 280 L604 356 L648 356 Z " />
<glyph glyph-name="quotedbl" unicode="&#x22;" horiz-adv-x="833" d="M548 255 Q548 229 537 206.5 Q526 184 507.5 167 Q489 150 463.5 140 Q438 130 410 130 Q390 130 374.5 132.5 Q359 135 336 149 L548 361 L548 255 Z M278 219 Q276 227 274 236.5 Q272 246 272 255 L272 585 Q272 611 283 633.5 Q294 656 312.5 673 Q331 690 356 700 Q381 710 410 710 Q438 710 463.5 700 Q489 690 507.5 673 Q526 656 537 633.5 Q548 611 548 585 L548 488 L278 219 Z M217 159 Q202 185 192 216.5 Q182 248 182 280 L182 356 L227 356 L227 280 Q227 257 234 233.5 Q241 210 250 191 L217 159 Z M824 700 Q831 694 831 684.5 Q831 675 825 669 L39 -115 Q32 -122 22 -122 Q13 -122 7 -116 Q0 -109 0 -100 Q0 -91 7 -84 L793 700 Q799 707 808.5 707 Q818 707 824 700 Z M604 356 L649 356 L649 280 Q649 238 634.5 200 Q620 162 594.5 132 Q569 102 534 81 Q499 60 458 53 L458 -89 L567 -89 L567 -122 L458 -122 L376 -122 L272 -122 L272 -89 L376 -89 L376 52 Q350 57 326.5 67 Q303 77 282 91 L314 123 Q336 109 361.5 101 Q387 93 416 93 Q455 93 489 107.5 Q523 122 548.5 147.5 Q574 173 589 207 Q604 241 604 280 L604 356 Z " />
<glyph glyph-name="numbersign" unicode="&#x23;" horiz-adv-x="833" d="M530 52 Q530 32 517.5 18 Q505 4 487 4 L42 4 Q25 4 12.5 18 Q0 32 0 52 L0 431 Q0 451 12.5 465 Q25 479 42 479 L487 479 Q505 479 517.5 465 Q530 451 530 431 L530 52 Z M600 286 L600 190 L833 50 L833 433 L600 286 Z " />
<glyph glyph-name="dollar" unicode="&#x24;" horiz-adv-x="833" d="M530 292 L530 45 Q530 25 517.5 11 Q505 -3 487 -3 L236 -3 L530 292 Z M106 -3 L42 -3 Q25 -3 12.5 11 Q0 25 0 45 L0 425 Q0 445 12.5 458.5 Q25 472 42 472 L487 472 Q505 472 517.5 459 Q530 446 530 421 L106 -3 Z M833 491 L833 -3 L600 184 L600 279 L833 491 Z M826 655 Q833 649 833 639.5 Q833 630 826 624 L39 -167 Q33 -173 23 -173 Q14 -173 7 -167 Q0 -160 0 -151 Q0 -142 7 -135 L794 655 Q801 662 810 662 Q819 662 826 655 Z " />
<glyph glyph-name="percent" unicode="&#x25;" horiz-adv-x="833" d="M559 652 Q616 652 665.5 632.5 Q715 613 752 578.5 Q789 544 810.5 498 Q832 452 832 400 L832 124 Q832 72 810.5 26 Q789 -20 752 -54 Q715 -88 665.5 -108 Q616 -128 559 -128 L274 -128 Q218 -128 168.5 -108 Q119 -88 82 -54 Q45 -20 23.5 26 Q2 72 2 124 L2 400 Q2 452 23.5 498 Q45 544 82 578.5 Q119 613 168.5 632.5 Q218 652 274 652 L559 652 Z M695 442 Q695 472 672.5 493 Q650 514 618 514 L216 514 Q184 514 161 493 Q138 472 138 442 L138 82 Q138 53 161 31.5 Q184 10 216 10 L618 10 Q650 10 672.5 31.5 Q695 53 695 82 L695 442 Z " />
<glyph glyph-name="ampersand" unicode="&#x26;" horiz-adv-x="833" d="M770 554 Q796 522 812 482 Q828 442 828 400 L828 126 Q828 74 806.5 28.5 Q785 -17 748.5 -51 Q712 -85 662.5 -104.5 Q613 -124 557 -124 L274 -124 Q235 -124 194 -118.5 Q153 -113 122 -96 L231 13 L615 13 Q647 13 669.5 34 Q692 55 692 84 L692 441 Q692 458 685 471 L770 554 Z M61 -29 Q36 3 19.5 43.5 Q3 84 3 126 L3 400 Q3 452 24 497.5 Q45 543 82 577 Q119 611 168.5 630.5 Q218 650 274 650 L557 650 Q594 650 631.5 641.5 Q669 633 701 612 L600 513 L216 513 Q184 513 161 492 Q138 471 138 441 L138 84 Q138 76 140 69.5 Q142 63 145 56 L61 -29 Z M824 672 Q831 666 831 656.5 Q831 647 824 641 L39 -147 Q32 -154 23 -154 Q13 -154 7 -148 Q0 -141 0 -132 Q0 -123 7 -116 L792 672 Q799 679 808 679 Q817 679 824 672 Z " />
<glyph glyph-name="quotesingle" unicode="&#x27;" horiz-adv-x="833" d="M513 304 L196 304 L196 388 L513 388 L513 304 Z M818 -43 Q833 -59 833 -80 Q833 -101 818 -116 Q803 -131 782 -131 Q761 -131 746 -116 L560 70 Q559 71 559 71.5 Q559 72 558 73 Q513 41 461 22.5 Q409 4 349 4 Q277 4 213.5 31.5 Q150 59 102.5 106 Q55 153 27.5 217 Q0 281 0 353 Q0 425 27.5 488.5 Q55 552 102.5 599.5 Q150 647 213.5 674.5 Q277 702 349 702 Q421 702 485 674.5 Q549 647 596 599.5 Q643 552 670.5 488.5 Q698 425 698 353 Q698 293 679.5 241 Q661 189 629 144 Q630 143 630.5 143 Q631 143 632 142 L818 -43 Z M52 353 Q52 291 75.5 237 Q99 183 139 142.5 Q179 102 233 78.5 Q287 55 349 55 Q411 55 465 78.5 Q519 102 559.5 142.5 Q600 183 623.5 237 Q647 291 647 353 Q647 414 623.5 468.5 Q600 523 559.5 563 Q519 603 465 626.5 Q411 650 349 650 Q287 650 233 626.5 Q179 603 139 563 Q99 523 75.5 468.5 Q52 414 52 353 Z " />
<glyph glyph-name="parenleft" unicode="&#x28;" horiz-adv-x="833" d="M396 408 L513 408 L513 324 L396 324 L396 207 L313 207 L313 324 L196 324 L196 408 L313 408 L313 525 L396 525 L396 408 Z M818 -23 Q833 -39 833 -60 Q833 -81 818 -96 Q803 -111 782 -111 Q761 -111 746 -96 L560 90 Q559 91 559 91.5 Q559 92 558 93 Q513 61 461 42.5 Q409 24 349 24 Q277 24 213.5 51.5 Q150 79 102.5 126 Q55 173 27.5 237 Q0 301 0 373 Q0 445 27.5 508.5 Q55 572 102.5 619.5 Q150 667 213.5 694.5 Q277 722 349 722 Q421 722 485 694.5 Q549 667 596 619.5 Q643 572 670.5 508.5 Q698 445 698 373 Q698 313 679.5 261 Q661 209 629 164 Q630 163 630.5 163 Q631 163 632 162 L818 -23 Z M349 75 Q411 75 465 98.5 Q519 122 559.5 162.5 Q600 203 623.5 257 Q647 311 647 373 Q647 434 623.5 488.5 Q600 543 559.5 583 Q519 623 465 646.5 Q411 670 349 670 Q287 670 233 646.5 Q179 623 139 583 Q99 543 75.5 488.5 Q52 434 52 373 Q52 311 75.5 257 Q99 203 139 162.5 Q179 122 233 98.5 Q287 75 349 75 Z " />
<glyph glyph-name="parenright" unicode="&#x29;" horiz-adv-x="833" d="M0 466 L0 710 L253 710 L253 631 L79 631 L79 466 L0 466 Z M590 710 L833 710 L833 456 L754 456 L754 631 L590 631 L590 710 Z M754 -44 L754 120 L833 120 L833 -123 L580 -123 L580 -44 L754 -44 Z M79 130 L79 -44 L243 -44 L243 -123 L0 -123 L0 130 L79 130 Z " />
<glyph glyph-name="asterisk" unicode="&#x2a;" horiz-adv-x="833" d="M174 541 L174 706 L253 706 L253 462 L0 462 L0 541 L174 541 Z M669 531 L833 531 L833 452 L590 452 L590 706 L669 706 L669 531 Z M580 -127 L580 116 L833 116 L833 37 L659 37 L659 -127 L580 -127 Z M0 47 L0 126 L243 126 L243 -127 L164 -127 L164 47 L0 47 Z " />
<glyph glyph-name="plus" unicode="&#x2b;" horiz-adv-x="833" d="M833 647 L833 0 L0 0 L0 647 L833 647 Z M798 611 L35 611 L35 35 L798 35 L798 611 Z M417 115 Q374 115 336 131.5 Q298 148 270 176 Q242 204 225.5 241.5 Q209 279 209 322 Q209 365 225.5 402.5 Q242 440 270 468 Q298 496 336 512.5 Q374 529 417 529 Q460 529 497.5 512.5 Q535 496 563 468 Q591 440 607.5 402.5 Q624 365 624 322 Q624 279 607.5 241.5 Q591 204 563 176 Q535 148 497.5 131.5 Q460 115 417 115 Z M417 494 Q381 494 350 480.5 Q319 467 295.5 443.5 Q272 420 258.5 389 Q245 358 245 322 Q245 286 258.5 255 Q272 224 295.5 200.5 Q319 177 350 163.5 Q381 150 417 150 Q453 150 484 163.5 Q515 177 538.5 200.5 Q562 224 575.5 255 Q589 286 589 322 Q589 358 575.5 389 Q562 420 538.5 443.5 Q515 467 484 480.5 Q453 494 417 494 Z M417 206 Q393 206 372 215 Q351 224 335 240 Q319 256 310 277 Q301 298 301 322 Q301 346 310 367 Q319 388 335 404 Q351 420 372 429 Q393 438 417 438 Q441 438 462 429 Q483 420 498.5 404 Q514 388 523 367 Q532 346 532 322 Q532 298 523 277 Q514 256 498.5 240 Q483 224 462 215 Q441 206 417 206 Z " />
<glyph glyph-name="comma" unicode="&#x2c;" horiz-adv-x="833" d="M834 638 L834 -1 L0 -1 L0 638 L834 638 Z M417 119 Q458 119 494 134.5 Q530 150 557 177 Q584 204 599.5 240 Q615 276 615 317 Q615 358 599.5 394 Q584 430 557 457 Q530 484 494 499.5 Q458 515 417 515 Q376 515 340 499.5 Q304 484 277 457 Q250 430 234.5 394 Q219 358 219 317 Q219 276 234.5 240 Q250 204 277 177 Q304 150 340 134.5 Q376 119 417 119 Z M417 438 Q442 438 464 428.5 Q486 419 502.5 402.5 Q519 386 528.5 364 Q538 342 538 317 Q538 292 528.5 270 Q519 248 502.5 231.5 Q486 215 464 205.5 Q442 196 417 196 Q392 196 370 205.5 Q348 215 331.5 231.5 Q315 248 305.5 270 Q296 292 296 317 Q296 342 305.5 364 Q315 386 331.5 402.5 Q348 419 370 428.5 Q392 438 417 438 Z " />
<glyph glyph-name="hyphen" unicode="&#x2d;" horiz-adv-x="833" d="M323 133 L638 447 L638 -59 L402 133 L323 133 Z M638 578 L200 140 L200 438 L402 438 L638 647 L638 608 L638 578 Z M828 703 Q835 697 835 687.5 Q835 678 828 672 L42 -115 Q36 -122 26 -122 Q17 -122 10 -116 Q3 -109 3 -100 Q3 -91 10 -84 L796 703 Q803 710 812 710 Q821 710 828 703 Z " />
<glyph glyph-name="period" unicode="&#x2e;" horiz-adv-x="833" d="M-1 415 L218 415 L473 642 L473 -124 L218 85 L-1 85 L-1 415 Z M570 148 Q563 148 558 153 Q553 158 553 165.5 Q553 173 558 178 Q578 197 588 222 Q598 247 598 274 Q598 324 566 362 Q561 367 562 374 Q563 381 569 386 Q574 391 581 390 Q588 389 593 384 Q612 361 622.5 332.5 Q633 304 633 274 Q633 204 582 153 Q577 148 570 148 Z M630 50 Q622 50 618 56 Q613 61 613 68 Q613 75 618 80 Q656 118 676.5 167.5 Q697 217 697 271 Q697 318 681 362.5 Q665 407 635 443 Q630 448 631 455 Q632 462 637 467 Q642 472 649 471 Q656 470 661 465 Q696 423 713.5 373.5 Q731 324 731 271 Q731 209 708.5 154 Q686 99 642 56 Q637 50 630 50 Z M687 -56 Q679 -56 674 -51 Q664 -39 674 -27 Q735 34 767 111.5 Q799 189 799 275 Q799 350 774 419.5 Q749 489 701 547 Q696 552 697 559 Q698 566 703 571 Q716 581 728 569 Q779 506 806.5 431 Q834 356 834 275 Q834 182 799.5 98.5 Q765 15 699 -51 Q695 -56 687 -56 Z " />
<glyph glyph-name="greater" unicode="&#x3e;" horiz-adv-x="833" d="M156 710 L677 349 L677 238 L156 -123 L156 53 L514 293 L156 534 L156 710 L156 710 Z " />
<glyph glyph-name="less" unicode="&#x3c;" horiz-adv-x="833" d="M677 -121 L156 240 L156 350 L677 712 L677 536 L319 295 L677 54 L677 -121 L677 -121 Z " />
<glyph glyph-name="bracketleft" unicode="&#x5b;" horiz-adv-x="833" d="M559 467 Q616 465 666 441.5 Q716 418 753.5 379.5 Q791 341 812.5 290 Q834 239 834 181 Q834 122 811.5 70 Q789 18 750 -21 Q711 -60 659 -82.5 Q607 -105 548 -105 Q500 -105 456.5 -90 Q413 -75 377 -48 Q341 -21 314.5 15.5 Q288 52 275 96 Q218 98 167.5 121.5 Q117 145 80 183.5 Q43 222 21.5 273 Q0 324 0 382 Q0 441 22.5 493 Q45 545 83.5 584 Q122 623 174 645.5 Q226 668 285 668 Q333 668 377 653 Q421 638 456.5 611 Q492 584 518.5 547 Q545 510 559 467 Z M264 144 Q263 153 262.5 162 Q262 171 262 181 Q262 235 281 283.5 Q300 332 333.5 370 Q367 408 412 432.5 Q457 457 510 464 Q497 498 475 527 Q453 556 423.5 577 Q394 598 359 609.5 Q324 621 285 621 Q236 621 192.5 602 Q149 583 116.5 551 Q84 519 65 475 Q46 431 46 382 Q46 335 63 293.5 Q80 252 109.5 220 Q139 188 178.5 168 Q218 148 264 144 Z M309 181 Q309 162 312 144 Q357 149 395.5 169.5 Q434 190 463 222 Q492 254 508.5 295 Q525 336 525 382 Q525 401 522 418 Q477 413 438 392.5 Q399 372 370.5 340.5 Q342 309 325.5 268 Q309 227 309 181 Z M548 -58 Q597 -58 641 -39 Q685 -20 717 12 Q749 44 768 87.5 Q787 131 787 181 Q787 228 770 269.5 Q753 311 723.5 343 Q694 375 654.5 395 Q615 415 569 419 Q571 410 571 400.5 Q571 391 571 382 Q571 328 552 279.5 Q533 231 499.5 193 Q466 155 420.5 130.5 Q375 106 323 99 Q336 64 358 35.5 Q380 7 409.5 -14 Q439 -35 474 -46.5 Q509 -58 548 -58 Z " />
<glyph glyph-name="bracketright" unicode="&#x5d;" horiz-adv-x="833" d="M320 -49 L-1 323 L118 426 L323 189 L718 624 L834 518 L320 -49 L320 -49 Z " />
<glyph glyph-name="braceleft" unicode="&#x7b;" horiz-adv-x="833" d="M320 -72 L-1 300 L118 403 L323 166 L718 601 L834 495 L320 -72 L320 -72 Z " />
<glyph glyph-name="braceright" unicode="&#x7d;" horiz-adv-x="833" d="M380 78 L346 711 L488 711 L462 78 L380 78 Z M417 20 Q446 20 467 -1 Q488 -22 488 -51 Q488 -80 467 -101 Q446 -122 417 -122 Q387 -122 366.5 -101 Q346 -80 346 -51 Q346 -22 366.5 -1 Q387 20 417 20 Z " />
<glyph glyph-name="asciicircum" unicode="&#x5e;" horiz-adv-x="833" d="M419 229 L525 123 Q525 122 527 122 Q529 122 530 123 L587 180 Q589 182 587 185 L481 290 L587 396 Q589 398 587 401 L530 458 Q529 459 527 459 Q525 459 525 458 L419 352 L313 458 Q312 459 310 459 Q308 459 308 458 L251 401 Q250 400 250 398 Q250 397 251 396 L357 290 L251 185 Q250 183 250 183 Q250 181 251 180 L308 123 Q308 122 310 122 Q312 122 313 123 L419 229 Z M419 -125 Q333 -125 257 -92.5 Q181 -60 124.5 -3.5 Q68 53 35.5 128.5 Q3 204 3 290 Q3 376 35.5 452 Q68 528 124.5 584.5 Q181 641 257 673.5 Q333 706 419 706 Q505 706 580.5 673.5 Q656 641 712.5 584.5 Q769 528 801.5 452 Q834 376 834 290 Q834 204 801.5 128.5 Q769 53 712.5 -3.5 Q656 -60 580.5 -92.5 Q505 -125 419 -125 Z M419 662 Q342 662 274.5 632.5 Q207 603 156.5 552.5 Q106 502 76.5 434.5 Q47 367 47 290 Q47 213 76.5 145.5 Q106 78 156.5 28 Q207 -22 274.5 -51.5 Q342 -81 419 -81 Q495 -81 563 -51.5 Q631 -22 681 28 Q731 78 760.5 145.5 Q790 213 790 290 Q790 367 760.5 434.5 Q731 502 681 552.5 Q631 603 563 632.5 Q495 662 419 662 Z " />
<glyph glyph-name="asciitilde" unicode="&#x7e;" horiz-adv-x="833" d="M833 362 Q835 357 834 355 L671 8 Q669 3 663 3 L7 3 Q4 3 0 7 Q-2 10 0 14 L173 362 Q175 366 180 366 L826 366 Q832 366 833 362 Z M5 219 Q-1 221 -1 227 L-1 556 Q-1 564 7 564 L106 564 Q111 579 127.5 596 Q144 613 176 613 L330 613 Q360 613 376.5 596 Q393 579 399 564 L653 564 Q661 564 661 556 L661 437 Q661 429 653 429 L117 429 L14 223 Q13 219 7 219 L5 219 Z " />
<glyph glyph-name="E" unicode="E" horiz-adv-x="833" d="M832 13 Q838 -4 820 -32 Q802 -60 767 -92 Q749 -108 720.5 -117 Q692 -126 660 -126 Q628 -126 596.5 -115.5 Q565 -105 542 -83 Q525 -67 487 -32 Q449 3 401 47.5 Q353 92 299.5 141 Q246 190 197.5 234.5 Q149 279 111 314 Q73 349 55 365 Q31 386 18 416.5 Q5 447 2 479 Q-1 511 5.5 540 Q12 569 27 588 Q56 626 82.5 646 Q109 666 126 662 Q135 660 153.5 645.5 Q172 631 191 614 Q213 595 239 570 Q259 552 275 535 Q289 521 301 505.5 Q313 490 315 479 Q317 468 311.5 459.5 Q306 451 296.5 442.5 Q287 434 275 424 Q263 414 253 402 Q247 395 241.5 385.5 Q236 376 235 363.5 Q234 351 240 336 Q246 321 263 304 L465 119 Q483 104 498 99 Q513 94 525.5 96 Q538 98 547.5 104.5 Q557 111 563 117 Q575 129 583.5 141.5 Q592 154 599.5 164.5 Q607 175 615 181 Q623 187 634 186 Q645 184 661 173 Q677 162 693 150 Q711 135 731 118 Q758 94 779 74 Q797 57 813 39 Q829 21 832 13 Z " />
<glyph glyph-name="eacute" unicode="&#xe9;" horiz-adv-x="833" d="M834 587 L0 587 L0 706 L834 706 L834 587 L834 587 Z M834 350 L297 350 L297 468 L834 468 L834 350 L834 350 Z M834 113 L297 113 L297 231 L834 231 L834 113 L834 113 Z M834 -125 L0 -125 L0 -6 L834 -6 L834 -125 L834 -125 Z M0 113 L0 468 L183 290 L0 113 L0 113 Z " />
<glyph glyph-name="egrave" unicode="&#xe8;" horiz-adv-x="833" d="M834 588 L0 588 L0 707 L834 707 L834 588 Z M834 351 L297 351 L297 469 L834 469 L834 351 Z M834 114 L297 114 L297 232 L834 232 L834 114 Z M834 -124 L0 -124 L0 -5 L834 -5 L834 -124 Z M183 469 L183 114 L0 291 L183 469 Z " />
<glyph glyph-name="degree" unicode="&#xb0;" horiz-adv-x="833" d="M421 370 Q533 368 611 350 Q689 332 737.5 307 Q786 282 809 254 Q832 226 834 203 Q838 163 830.5 135 Q823 107 809 99 Q802 95 782 94.5 Q762 94 741 94 Q715 94 686 95 Q664 94 645 96 Q628 97 612.5 100 Q597 103 590 108 Q583 113 582.5 121.5 Q582 130 584 140.5 Q586 151 589 163.5 Q592 176 592 190 Q592 197 591 206.5 Q590 216 584 224 Q578 232 566.5 237.5 Q555 243 536 244 L310 245 Q290 244 277.5 238.5 Q265 233 258 225 Q251 217 248 207.5 Q245 198 244 191 Q242 177 243 164.5 Q244 152 244 141.5 Q244 131 242 122.5 Q240 114 232 109 Q224 104 208 101.5 Q192 99 175 98 Q156 97 134 97 Q105 96 80 97 Q59 98 40 99 Q21 100 15 104 Q3 112 0.5 139 Q-2 166 5 205 Q8 225 35 254 Q62 283 114 309.5 Q166 336 242.5 354 Q319 372 421 370 Z " />
<glyph glyph-name="agrave" unicode="&#xe0;" horiz-adv-x="833" d="M613 32 Q633 22 660 -4 Q687 -30 711 -58 Q739 -91 768 -128 L434 -128 L434 -34 L335 -34 L335 -128 L0 -128 Q24 -91 49 -58 Q70 -30 94 -4 Q118 22 138 32 Q154 40 186.5 45.5 Q219 51 252 54 Q291 58 335 60 L335 14 L434 14 L434 60 Q473 58 508 54 Q537 51 567 45.5 Q597 40 613 32 Z M434 60 L335 60 L335 95 Q308 107 283 130 Q258 153 238.5 184 Q219 215 207.5 252 Q196 289 196 330 Q196 375 203.5 409 Q211 443 223.5 468 Q236 493 252 509 Q268 525 285 536 Q325 560 375 561 Q425 560 465 535 Q482 524 498 507 Q514 490 527 464.5 Q540 439 547.5 404 Q555 369 555 322 Q555 293 545.5 259 Q536 225 519.5 193.5 Q503 162 481 136 Q459 110 434 96 L434 60 Z M832 524 Q832 523 831.5 523 Q831 523 831 522 L830 522 L746 522 L746 438 Q746 438 745 437 Q745 436 744 436 L699 436 L698 437 Q697 437 697 438 L697 522 L614 521 L613 522 Q612 522 612 523 L612 568 Q612 569 613 570 L614 570 L697 570 L698 654 L698 655 Q699 656 700 656 L745 656 Q746 656 746 654 L746 570 L830 571 Q831 571 831 569 L832 524 Z " />
<glyph glyph-name="igrave" unicode="&#xec;" horiz-adv-x="833" d="M499 680 L703 459 L499 459 L499 680 Z M453 413 L726 413 L726 -125 L107 -125 L107 705 L453 705 L453 413 Z M416 -47 L606 142 L494 142 L494 299 L338 299 L338 142 L227 142 L416 -47 Z " />
<glyph glyph-name="ugrave" unicode="&#xf9;" horiz-adv-x="833" d="M50 391 Q30 411 19.5 437 Q9 463 9 492 Q9 520 20 545.5 Q31 571 51 591 L123 663 Q143 683 168.5 693 Q194 703 222 703 Q251 703 276.5 692.5 Q302 682 322 662 L424 560 Q444 540 454 514.5 Q464 489 464 461 Q464 432 453 405 Q442 378 421 358 L354 291 Q334 271 307.5 259.5 Q281 248 252 248 Q224 248 198 258.5 Q172 269 152 289 L50 391 Z M117 521 Q103 507 103 488 Q103 468 117 454 L219 352 Q232 339 252 339 Q273 339 288 354 Q275 366 263.5 378 Q252 390 252 409 Q252 429 265.5 442.5 Q279 456 299 456 Q318 456 330 444.5 Q342 433 354 421 Q371 436 371 457 Q371 476 357 490 L256 592 Q243 605 222 605 Q202 605 189 592 L117 521 Z M786 197 Q828 155 828 97 Q828 69 817 43 Q806 17 786 -3 L714 -74 Q694 -94 668 -104.5 Q642 -115 614 -115 Q556 -115 514 -73 L413 28 Q393 48 382.5 74 Q372 100 372 128 Q372 157 383.5 183.5 Q395 210 416 230 L482 297 Q502 318 528.5 329 Q555 340 584 340 Q613 340 638.5 329.5 Q664 319 684 299 L786 197 Z M720 64 Q734 78 734 97 Q734 117 720 131 L618 232 Q604 246 584 246 Q564 246 549 230 Q561 218 572.5 206.5 Q584 195 584 176 Q584 156 570.5 142.5 Q557 129 537 129 Q518 129 506 140.5 Q494 152 482 164 Q466 148 466 128 Q466 109 480 95 L581 -7 Q594 -20 614 -20 Q623 -20 632 -17 Q641 -14 648 -7 L720 64 Z M804 681 Q811 674 811 665 Q811 656 804 650 L43 -115 Q35 -121 27 -121 Q18 -121 12 -115 Q5 -109 5 -100 Q5 -91 12 -84 L773 680 Q780 687 789 687 Q798 687 804 681 Z " />
</font>
</svg>
